%TF.GenerationSoftware,KiCad,Pcbnew,9.0.8-1.fc43*%
%TF.CreationDate,2026-04-27T11:30:58+02:00*%
%TF.ProjectId,ESP32-RTL8201F-devboard,45535033-322d-4525-944c-38323031462d,rev?*%
%TF.SameCoordinates,Original*%
%TF.FileFunction,Soldermask,Top*%
%TF.FilePolarity,Negative*%
%FSLAX46Y46*%
G04 Gerber Fmt 4.6, Leading zero omitted, Abs format (unit mm)*
G04 Created by KiCad (PCBNEW 9.0.8-1.fc43) date 2026-04-27 11:30:58*
%MOMM*%
%LPD*%
G01*
G04 APERTURE LIST*
G04 Aperture macros list*
%AMRoundRect*
0 Rectangle with rounded corners*
0 $1 Rounding radius*
0 $2 $3 $4 $5 $6 $7 $8 $9 X,Y pos of 4 corners*
0 Add a 4 corners polygon primitive as box body*
4,1,4,$2,$3,$4,$5,$6,$7,$8,$9,$2,$3,0*
0 Add four circle primitives for the rounded corners*
1,1,$1+$1,$2,$3*
1,1,$1+$1,$4,$5*
1,1,$1+$1,$6,$7*
1,1,$1+$1,$8,$9*
0 Add four rect primitives between the rounded corners*
20,1,$1+$1,$2,$3,$4,$5,0*
20,1,$1+$1,$4,$5,$6,$7,0*
20,1,$1+$1,$6,$7,$8,$9,0*
20,1,$1+$1,$8,$9,$2,$3,0*%
G04 Aperture macros list end*
%ADD10R,1.500000X0.900000*%
%ADD11R,0.900000X1.500000*%
%ADD12R,0.900000X0.900000*%
%ADD13C,0.600000*%
%ADD14RoundRect,0.200000X0.200000X0.275000X-0.200000X0.275000X-0.200000X-0.275000X0.200000X-0.275000X0*%
%ADD15RoundRect,0.200000X0.275000X-0.200000X0.275000X0.200000X-0.275000X0.200000X-0.275000X-0.200000X0*%
%ADD16RoundRect,0.200000X-0.275000X0.200000X-0.275000X-0.200000X0.275000X-0.200000X0.275000X0.200000X0*%
%ADD17RoundRect,0.200000X-0.200000X-0.275000X0.200000X-0.275000X0.200000X0.275000X-0.200000X0.275000X0*%
%ADD18RoundRect,0.250000X-0.650000X1.000000X-0.650000X-1.000000X0.650000X-1.000000X0.650000X1.000000X0*%
%ADD19RoundRect,0.150000X-0.825000X-0.150000X0.825000X-0.150000X0.825000X0.150000X-0.825000X0.150000X0*%
%ADD20RoundRect,0.225000X0.225000X0.250000X-0.225000X0.250000X-0.225000X-0.250000X0.225000X-0.250000X0*%
%ADD21RoundRect,0.225000X-0.250000X0.225000X-0.250000X-0.225000X0.250000X-0.225000X0.250000X0.225000X0*%
%ADD22RoundRect,0.150000X-0.587500X-0.150000X0.587500X-0.150000X0.587500X0.150000X-0.587500X0.150000X0*%
%ADD23RoundRect,0.062500X0.062500X-0.375000X0.062500X0.375000X-0.062500X0.375000X-0.062500X-0.375000X0*%
%ADD24RoundRect,0.062500X0.375000X-0.062500X0.375000X0.062500X-0.375000X0.062500X-0.375000X-0.062500X0*%
%ADD25R,3.100000X3.100000*%
%ADD26R,1.700000X1.700000*%
%ADD27C,1.700000*%
%ADD28RoundRect,0.218750X0.256250X-0.218750X0.256250X0.218750X-0.256250X0.218750X-0.256250X-0.218750X0*%
%ADD29RoundRect,0.225000X0.250000X-0.225000X0.250000X0.225000X-0.250000X0.225000X-0.250000X-0.225000X0*%
%ADD30RoundRect,0.250500X-0.499500X-0.499500X0.499500X-0.499500X0.499500X0.499500X-0.499500X0.499500X0*%
%ADD31C,1.500000*%
%ADD32C,2.500000*%
%ADD33RoundRect,0.250000X0.650000X-1.000000X0.650000X1.000000X-0.650000X1.000000X-0.650000X-1.000000X0*%
%ADD34RoundRect,0.150000X0.587500X0.150000X-0.587500X0.150000X-0.587500X-0.150000X0.587500X-0.150000X0*%
%ADD35R,0.600000X1.240000*%
%ADD36R,0.300000X1.240000*%
%ADD37O,1.000000X2.100000*%
%ADD38O,1.000000X1.800000*%
%ADD39RoundRect,0.225000X-0.225000X-0.250000X0.225000X-0.250000X0.225000X0.250000X-0.225000X0.250000X0*%
%ADD40RoundRect,0.375000X0.375000X-0.625000X0.375000X0.625000X-0.375000X0.625000X-0.375000X-0.625000X0*%
%ADD41RoundRect,0.500000X1.400000X-0.500000X1.400000X0.500000X-1.400000X0.500000X-1.400000X-0.500000X0*%
G04 APERTURE END LIST*
D10*
%TO.C,U6*%
X106050000Y-42970000D03*
X106050000Y-44240000D03*
X106050000Y-45510000D03*
X106050000Y-46780000D03*
X106050000Y-48050000D03*
X106050000Y-49320000D03*
X106050000Y-50590000D03*
X106050000Y-51860000D03*
X106050000Y-53130000D03*
X106050000Y-54400000D03*
X106050000Y-55670000D03*
X106050000Y-56940000D03*
X106050000Y-58210000D03*
X106050000Y-59480000D03*
D11*
X109085000Y-60730000D03*
X110355000Y-60730000D03*
X111625000Y-60730000D03*
X112895000Y-60730000D03*
X114165000Y-60730000D03*
X115435000Y-60730000D03*
X116705000Y-60730000D03*
X117975000Y-60730000D03*
X119245000Y-60730000D03*
X120515000Y-60730000D03*
D10*
X123550000Y-59480000D03*
X123550000Y-58210000D03*
X123550000Y-56940000D03*
X123550000Y-55670000D03*
X123550000Y-54400000D03*
X123550000Y-53130000D03*
X123550000Y-51860000D03*
X123550000Y-50590000D03*
X123550000Y-49320000D03*
X123550000Y-48050000D03*
X123550000Y-46780000D03*
X123550000Y-45510000D03*
X123550000Y-44240000D03*
X123550000Y-42970000D03*
D12*
X111900000Y-49290000D03*
D13*
X111900000Y-49990000D03*
D12*
X111900000Y-50690000D03*
D13*
X111900000Y-51390000D03*
D12*
X111900000Y-52090000D03*
D13*
X112600000Y-49290000D03*
X112600000Y-50690000D03*
X112600000Y-52090000D03*
D12*
X113300000Y-49290000D03*
D13*
X113300000Y-49990000D03*
D12*
X113300000Y-50690000D03*
D13*
X113300000Y-51390000D03*
D12*
X113300000Y-52090000D03*
D13*
X114000000Y-49290000D03*
X114000000Y-50690000D03*
X114000000Y-52090000D03*
D12*
X114700000Y-49290000D03*
D13*
X114700000Y-49990000D03*
D12*
X114700000Y-50690000D03*
D13*
X114700000Y-51390000D03*
D12*
X114700000Y-52090000D03*
%TD*%
D14*
%TO.C,R2*%
X106425000Y-65000000D03*
X104775000Y-65000000D03*
%TD*%
D15*
%TO.C,R21*%
X118100000Y-83925000D03*
X118100000Y-82275000D03*
%TD*%
D16*
%TO.C,R16*%
X114400000Y-78475000D03*
X114400000Y-80125000D03*
%TD*%
D17*
%TO.C,R13*%
X104875000Y-84900000D03*
X106525000Y-84900000D03*
%TD*%
D18*
%TO.C,D1*%
X128925000Y-86150000D03*
X128925000Y-90150000D03*
%TD*%
D17*
%TO.C,R19*%
X124300000Y-96450000D03*
X125950000Y-96450000D03*
%TD*%
D14*
%TO.C,R10*%
X110590000Y-65655000D03*
X108940000Y-65655000D03*
%TD*%
%TO.C,R9*%
X115425000Y-73000000D03*
X113775000Y-73000000D03*
%TD*%
%TO.C,R18*%
X112725000Y-84300000D03*
X111075000Y-84300000D03*
%TD*%
D19*
%TO.C,U1*%
X120450000Y-84005000D03*
X120450000Y-85275000D03*
X120450000Y-86545000D03*
X120450000Y-87815000D03*
X120450000Y-89085000D03*
X120450000Y-90355000D03*
X120450000Y-91625000D03*
X120450000Y-92895000D03*
X125400000Y-92895000D03*
X125400000Y-91625000D03*
X125400000Y-90355000D03*
X125400000Y-89085000D03*
X125400000Y-87815000D03*
X125400000Y-86545000D03*
X125400000Y-85275000D03*
X125400000Y-84005000D03*
%TD*%
D15*
%TO.C,R8*%
X107865000Y-77405000D03*
X107865000Y-75755000D03*
%TD*%
%TO.C,R22*%
X117800000Y-87425000D03*
X117800000Y-85775000D03*
%TD*%
D20*
%TO.C,C11*%
X101475000Y-65100000D03*
X99925000Y-65100000D03*
%TD*%
D21*
%TO.C,C24*%
X111465000Y-74180000D03*
X111465000Y-75730000D03*
%TD*%
D22*
%TO.C,Q1*%
X127762500Y-66750000D03*
X127762500Y-68650000D03*
X129637500Y-67700000D03*
%TD*%
D16*
%TO.C,R23*%
X117200000Y-71575000D03*
X117200000Y-73225000D03*
%TD*%
%TO.C,R11*%
X115600000Y-82075000D03*
X115600000Y-83725000D03*
%TD*%
D21*
%TO.C,C25*%
X104600000Y-70725000D03*
X104600000Y-72275000D03*
%TD*%
D23*
%TO.C,U4*%
X107750000Y-72337500D03*
X108250000Y-72337500D03*
X108750000Y-72337500D03*
X109250000Y-72337500D03*
X109750000Y-72337500D03*
X110250000Y-72337500D03*
X110750000Y-72337500D03*
X111250000Y-72337500D03*
D24*
X111937500Y-71650000D03*
X111937500Y-71150000D03*
X111937500Y-70650000D03*
X111937500Y-70150000D03*
X111937500Y-69650000D03*
X111937500Y-69150000D03*
X111937500Y-68650000D03*
X111937500Y-68150000D03*
D23*
X111250000Y-67462500D03*
X110750000Y-67462500D03*
X110250000Y-67462500D03*
X109750000Y-67462500D03*
X109250000Y-67462500D03*
X108750000Y-67462500D03*
X108250000Y-67462500D03*
X107750000Y-67462500D03*
D24*
X107062500Y-68150000D03*
X107062500Y-68650000D03*
X107062500Y-69150000D03*
X107062500Y-69650000D03*
X107062500Y-70150000D03*
X107062500Y-70650000D03*
X107062500Y-71150000D03*
X107062500Y-71650000D03*
D25*
X109500000Y-69900000D03*
%TD*%
D26*
%TO.C,J3*%
X99900000Y-61920000D03*
D27*
X99900000Y-59380000D03*
X99900000Y-56840000D03*
X99900000Y-54300000D03*
X99900000Y-51760000D03*
X99900000Y-49220000D03*
X99900000Y-46680000D03*
X99900000Y-44140000D03*
X99900000Y-41600000D03*
X99900000Y-39060000D03*
%TD*%
D28*
%TO.C,D2*%
X117600000Y-76687500D03*
X117600000Y-75112500D03*
%TD*%
D29*
%TO.C,C10*%
X103400000Y-51375000D03*
X103400000Y-49825000D03*
%TD*%
D14*
%TO.C,R7*%
X125825000Y-68700000D03*
X124175000Y-68700000D03*
%TD*%
%TO.C,R4*%
X118425000Y-68100000D03*
X116775000Y-68100000D03*
%TD*%
D30*
%TO.C,J1*%
X103560000Y-91290000D03*
D31*
X104820000Y-88750000D03*
X106100000Y-91290000D03*
X107360000Y-88750000D03*
X108640000Y-91290000D03*
X109900000Y-88750000D03*
X111180000Y-91290000D03*
X112440000Y-88750000D03*
X101375000Y-102550000D03*
X103915000Y-102550000D03*
X112085000Y-102550000D03*
X114625000Y-102550000D03*
D32*
X100255000Y-94600000D03*
X115745000Y-94600000D03*
%TD*%
D14*
%TO.C,R17*%
X111725000Y-82400000D03*
X110075000Y-82400000D03*
%TD*%
D33*
%TO.C,D3*%
X128925000Y-82350000D03*
X128925000Y-78350000D03*
%TD*%
D34*
%TO.C,Q2*%
X122337500Y-68650000D03*
X122337500Y-66750000D03*
X120462500Y-67700000D03*
%TD*%
D15*
%TO.C,R3*%
X124600000Y-65325000D03*
X124600000Y-63675000D03*
%TD*%
D21*
%TO.C,C3*%
X111700000Y-78625000D03*
X111700000Y-80175000D03*
%TD*%
D15*
%TO.C,R5*%
X126500000Y-64525000D03*
X126500000Y-62875000D03*
%TD*%
D16*
%TO.C,R25*%
X115800000Y-75075000D03*
X115800000Y-76725000D03*
%TD*%
D15*
%TO.C,R1*%
X103400000Y-48325000D03*
X103400000Y-46675000D03*
%TD*%
D16*
%TO.C,R12*%
X102100000Y-80375000D03*
X102100000Y-82025000D03*
%TD*%
D17*
%TO.C,R14*%
X105675000Y-83000000D03*
X107325000Y-83000000D03*
%TD*%
D16*
%TO.C,R15*%
X103900000Y-80375000D03*
X103900000Y-82025000D03*
%TD*%
D29*
%TO.C,C26*%
X113800000Y-69275000D03*
X113800000Y-67725000D03*
%TD*%
D21*
%TO.C,C2*%
X103400000Y-43225000D03*
X103400000Y-44775000D03*
%TD*%
D17*
%TO.C,R6*%
X124175000Y-66800000D03*
X125825000Y-66800000D03*
%TD*%
D26*
%TO.C,J2*%
X129300000Y-61920000D03*
D27*
X129300000Y-59380000D03*
X129300000Y-56840000D03*
X129300000Y-54300000D03*
X129300000Y-51760000D03*
X129300000Y-49220000D03*
X129300000Y-46680000D03*
X129300000Y-44140000D03*
X129300000Y-41600000D03*
X129300000Y-39060000D03*
%TD*%
D35*
%TO.C,J4*%
X120925000Y-98725000D03*
X121725000Y-98725000D03*
D36*
X122875000Y-98725000D03*
X123875000Y-98725000D03*
X124375000Y-98725000D03*
X125375000Y-98725000D03*
D35*
X126525000Y-98725000D03*
X127325000Y-98725000D03*
X127325000Y-98725000D03*
X126525000Y-98725000D03*
D36*
X125875000Y-98725000D03*
X124875000Y-98725000D03*
X123375000Y-98725000D03*
X122375000Y-98725000D03*
D35*
X121725000Y-98725000D03*
X120925000Y-98725000D03*
D37*
X119805000Y-99325000D03*
D38*
X119805000Y-103525000D03*
D37*
X128445000Y-99325000D03*
D38*
X128445000Y-103525000D03*
%TD*%
D39*
%TO.C,C4*%
X124750000Y-80850000D03*
X126300000Y-80850000D03*
%TD*%
D20*
%TO.C,C22*%
X107840000Y-74155000D03*
X106290000Y-74155000D03*
%TD*%
D29*
%TO.C,C23*%
X104900000Y-69175000D03*
X104900000Y-67625000D03*
%TD*%
D20*
%TO.C,C1*%
X121300000Y-80850000D03*
X119750000Y-80850000D03*
%TD*%
%TO.C,C7*%
X101475000Y-68900000D03*
X99925000Y-68900000D03*
%TD*%
D14*
%TO.C,R20*%
X121350000Y-96450000D03*
X119700000Y-96450000D03*
%TD*%
D28*
%TO.C,L3*%
X104665000Y-78542500D03*
X104665000Y-76967500D03*
%TD*%
D20*
%TO.C,C5*%
X101475000Y-67000000D03*
X99925000Y-67000000D03*
%TD*%
D15*
%TO.C,R24*%
X106265000Y-77405000D03*
X106265000Y-75755000D03*
%TD*%
D40*
%TO.C,U2*%
X120200000Y-77950000D03*
X122500000Y-77950000D03*
D41*
X122500000Y-71650000D03*
D40*
X124800000Y-77950000D03*
%TD*%
M02*
