%TF.GenerationSoftware,KiCad,Pcbnew,9.0.8-1.fc43*%
%TF.CreationDate,2026-04-27T11:30:58+02:00*%
%TF.ProjectId,ESP32-RTL8201F-devboard,45535033-322d-4525-944c-38323031462d,rev?*%
%TF.SameCoordinates,Original*%
%TF.FileFunction,Copper,L4,Bot*%
%TF.FilePolarity,Positive*%
%FSLAX46Y46*%
G04 Gerber Fmt 4.6, Leading zero omitted, Abs format (unit mm)*
G04 Created by KiCad (PCBNEW 9.0.8-1.fc43) date 2026-04-27 11:30:58*
%MOMM*%
%LPD*%
G01*
G04 APERTURE LIST*
G04 Aperture macros list*
%AMRoundRect*
0 Rectangle with rounded corners*
0 $1 Rounding radius*
0 $2 $3 $4 $5 $6 $7 $8 $9 X,Y pos of 4 corners*
0 Add a 4 corners polygon primitive as box body*
4,1,4,$2,$3,$4,$5,$6,$7,$8,$9,$2,$3,0*
0 Add four circle primitives for the rounded corners*
1,1,$1+$1,$2,$3*
1,1,$1+$1,$4,$5*
1,1,$1+$1,$6,$7*
1,1,$1+$1,$8,$9*
0 Add four rect primitives between the rounded corners*
20,1,$1+$1,$2,$3,$4,$5,0*
20,1,$1+$1,$4,$5,$6,$7,0*
20,1,$1+$1,$6,$7,$8,$9,0*
20,1,$1+$1,$8,$9,$2,$3,0*%
G04 Aperture macros list end*
%TA.AperFunction,HeatsinkPad*%
%ADD10C,0.600000*%
%TD*%
%TA.AperFunction,ComponentPad*%
%ADD11R,1.700000X1.700000*%
%TD*%
%TA.AperFunction,ComponentPad*%
%ADD12C,1.700000*%
%TD*%
%TA.AperFunction,ComponentPad*%
%ADD13RoundRect,0.250500X-0.499500X-0.499500X0.499500X-0.499500X0.499500X0.499500X-0.499500X0.499500X0*%
%TD*%
%TA.AperFunction,ComponentPad*%
%ADD14C,1.500000*%
%TD*%
%TA.AperFunction,ComponentPad*%
%ADD15C,2.500000*%
%TD*%
%TA.AperFunction,HeatsinkPad*%
%ADD16O,1.000000X2.100000*%
%TD*%
%TA.AperFunction,HeatsinkPad*%
%ADD17O,1.000000X1.800000*%
%TD*%
%TA.AperFunction,ViaPad*%
%ADD18C,0.600000*%
%TD*%
%TA.AperFunction,ViaPad*%
%ADD19C,0.800000*%
%TD*%
%TA.AperFunction,Conductor*%
%ADD20C,0.400000*%
%TD*%
%TA.AperFunction,Conductor*%
%ADD21C,0.200000*%
%TD*%
%TA.AperFunction,Conductor*%
%ADD22C,0.300000*%
%TD*%
G04 APERTURE END LIST*
D10*
%TO.P,U6,39,GND*%
%TO.N,GND*%
X111900000Y-49990000D03*
X111900000Y-51390000D03*
X112600000Y-49290000D03*
X112600000Y-50690000D03*
X112600000Y-52090000D03*
X113300000Y-49990000D03*
X113300000Y-51390000D03*
X114000000Y-49290000D03*
X114000000Y-50690000D03*
X114000000Y-52090000D03*
X114700000Y-49990000D03*
X114700000Y-51390000D03*
%TD*%
D11*
%TO.P,J3,1,Pin_1*%
%TO.N,+3V3*%
X99900000Y-61920000D03*
D12*
%TO.P,J3,2,Pin_2*%
%TO.N,GND*%
X99900000Y-59380000D03*
%TO.P,J3,3,Pin_3*%
%TO.N,/IO12*%
X99900000Y-56840000D03*
%TO.P,J3,4,Pin_4*%
%TO.N,/IO14*%
X99900000Y-54300000D03*
%TO.P,J3,5,Pin_5*%
%TO.N,/IO33*%
X99900000Y-51760000D03*
%TO.P,J3,6,Pin_6*%
%TO.N,/IO32*%
X99900000Y-49220000D03*
%TO.P,J3,7,Pin_7*%
%TO.N,/IO35*%
X99900000Y-46680000D03*
%TO.P,J3,8,Pin_8*%
%TO.N,/IO34*%
X99900000Y-44140000D03*
%TO.P,J3,9,Pin_9*%
%TO.N,/VP*%
X99900000Y-41600000D03*
%TO.P,J3,10,Pin_10*%
%TO.N,/VN*%
X99900000Y-39060000D03*
%TD*%
D13*
%TO.P,J1,1,TD+*%
%TO.N,/MDI0_P*%
X103560000Y-91290000D03*
D14*
%TO.P,J1,2,TD-*%
%TO.N,/MDI0_N*%
X104820000Y-88750000D03*
%TO.P,J1,3,RD+*%
%TO.N,/MDI1_P*%
X106100000Y-91290000D03*
%TO.P,J1,4,TCT*%
%TO.N,/MDI0_CT*%
X107360000Y-88750000D03*
%TO.P,J1,5,RCT*%
X108640000Y-91290000D03*
%TO.P,J1,6,RD-*%
%TO.N,/MDI1_N*%
X109900000Y-88750000D03*
%TO.P,J1,7*%
%TO.N,N/C*%
X111180000Y-91290000D03*
%TO.P,J1,8*%
%TO.N,GND*%
X112440000Y-88750000D03*
%TO.P,J1,9,LEDG_A*%
%TO.N,/ETH_LED0*%
X101375000Y-102550000D03*
%TO.P,J1,10,LEDG_K*%
%TO.N,GND*%
X103915000Y-102550000D03*
%TO.P,J1,11,LEDY_K*%
X112085000Y-102550000D03*
%TO.P,J1,12,LEDY_A*%
%TO.N,/ETH_LED1*%
X114625000Y-102550000D03*
D15*
%TO.P,J1,SH,SHIELD*%
%TO.N,GND*%
X100255000Y-94600000D03*
X115745000Y-94600000D03*
%TD*%
D11*
%TO.P,J2,1,Pin_1*%
%TO.N,VBUS*%
X129300000Y-61920000D03*
D12*
%TO.P,J2,2,Pin_2*%
%TO.N,GND*%
X129300000Y-59380000D03*
%TO.P,J2,3,Pin_3*%
%TO.N,/IO15*%
X129300000Y-56840000D03*
%TO.P,J2,4,Pin_4*%
%TO.N,/IO2*%
X129300000Y-54300000D03*
%TO.P,J2,5,Pin_5*%
%TO.N,/IO4*%
X129300000Y-51760000D03*
%TO.P,J2,6,Pin_6*%
%TO.N,/IO16*%
X129300000Y-49220000D03*
%TO.P,J2,7,Pin_7*%
%TO.N,/IO5*%
X129300000Y-46680000D03*
%TO.P,J2,8,Pin_8*%
%TO.N,/RXD*%
X129300000Y-44140000D03*
%TO.P,J2,9,Pin_9*%
%TO.N,/TXD*%
X129300000Y-41600000D03*
%TO.P,J2,10,Pin_10*%
%TO.N,/IO13*%
X129300000Y-39060000D03*
%TD*%
D16*
%TO.P,J4,S1,SHIELD*%
%TO.N,GND*%
X119805000Y-99325000D03*
D17*
X119805000Y-103525000D03*
D16*
X128445000Y-99325000D03*
D17*
X128445000Y-103525000D03*
%TD*%
D18*
%TO.N,/MDI0_CT*%
X105000000Y-83700000D03*
X112800000Y-83000000D03*
D19*
%TO.N,GND*%
X117200000Y-42070000D03*
X115600000Y-85400000D03*
X115800000Y-42070000D03*
X114400000Y-42070000D03*
X119200000Y-48900000D03*
X127200000Y-50000000D03*
X119000000Y-56300000D03*
X122100000Y-82700000D03*
X125900000Y-74000000D03*
X106700000Y-78800000D03*
X115600000Y-55800000D03*
X111100000Y-42070000D03*
D18*
X108500000Y-81700000D03*
X105800000Y-71700000D03*
D19*
X101800000Y-63600000D03*
X127700000Y-70400000D03*
X112700000Y-42070000D03*
X119700000Y-42100000D03*
X127300000Y-52800000D03*
X122000000Y-54700000D03*
X130400000Y-64900000D03*
X109600000Y-58200000D03*
D18*
X115800000Y-58600000D03*
D19*
X127200000Y-57600000D03*
X109700000Y-42070000D03*
X121000000Y-42070000D03*
X127200000Y-60700000D03*
X104800000Y-66600000D03*
X101300000Y-71000000D03*
X113700000Y-66300000D03*
X104600000Y-43100000D03*
X118400000Y-42100000D03*
X129600000Y-97000000D03*
X127200000Y-94600000D03*
X118700000Y-53100000D03*
D18*
%TO.N,VBUS*%
X126500000Y-78300000D03*
D19*
%TO.N,/EN*%
X116800000Y-66500000D03*
X107600000Y-45100000D03*
%TO.N,/ETH_MDC*%
X113200000Y-65100000D03*
D18*
X108165000Y-64300000D03*
D19*
%TO.N,/IO34*%
X108300000Y-48800000D03*
%TO.N,/ETH_TXD1*%
X112400000Y-63100000D03*
X113500000Y-59000000D03*
%TO.N,/IO35*%
X108000000Y-50600000D03*
%TO.N,/IO32*%
X108100000Y-52200000D03*
%TO.N,/ETH_RXD1*%
X112500000Y-55670000D03*
D18*
X114700000Y-65700000D03*
%TO.N,/ETH_RXD0*%
X115681250Y-65618750D03*
D19*
X112000000Y-54400000D03*
%TO.N,+3V3*%
X122325000Y-79825000D03*
X124100000Y-74200000D03*
D18*
X110350000Y-64400000D03*
D19*
X125400000Y-71600000D03*
D18*
X123925000Y-83950000D03*
D19*
X127900000Y-63800000D03*
X102637500Y-45537500D03*
X122500000Y-74200000D03*
D18*
X105700000Y-79600000D03*
X122625000Y-81050000D03*
X128925000Y-76550000D03*
D19*
X121100000Y-74200000D03*
%TO.N,/ETH_MDIO*%
X113767586Y-64122364D03*
D18*
X108150000Y-63350000D03*
D19*
%TO.N,/BOOT*%
X125044975Y-62544975D03*
X123400000Y-60600000D03*
%TO.N,/ETH_CLK*%
X123200000Y-61600000D03*
X119300000Y-62300000D03*
D18*
%TO.N,/IO14*%
X108300000Y-57300000D03*
%TO.N,/IO12*%
X108500000Y-59000000D03*
%TO.N,/RTL_LED1*%
X114400000Y-77100000D03*
D19*
X106300000Y-66200000D03*
%TO.N,/RTL_LED0*%
X107186889Y-66666839D03*
D18*
X103300000Y-78700000D03*
D19*
%TO.N,/IO2*%
X119800000Y-57400000D03*
%TO.N,/IO4*%
X121700000Y-58200000D03*
%TO.N,/IO16*%
X121800000Y-56500000D03*
%TO.N,/IO5*%
X125000000Y-54300000D03*
%TO.N,Net-(U4-RXD3_CLK_CTL)*%
X114800000Y-76000000D03*
X113122512Y-70450000D03*
%TO.N,/LAN_3P3V*%
X114800000Y-69700000D03*
D18*
X104700000Y-75600000D03*
X105600000Y-70400000D03*
X113500000Y-75000000D03*
D19*
%TO.N,/RXD*%
X125400000Y-48020000D03*
D18*
X117700000Y-80500000D03*
D19*
%TO.N,/TXD*%
X121650000Y-49250000D03*
D18*
X116800000Y-80500000D03*
D19*
%TO.N,/IO15*%
X119000000Y-58600000D03*
%TD*%
D20*
%TO.N,/MDI0_CT*%
X107360000Y-88750000D02*
X107360000Y-88440000D01*
X107360000Y-88440000D02*
X112800000Y-83000000D01*
X108640000Y-90030000D02*
X107360000Y-88750000D01*
X105010000Y-83700000D02*
X105000000Y-83700000D01*
X107360000Y-88750000D02*
X105000000Y-86390000D01*
X108640000Y-91290000D02*
X108640000Y-90030000D01*
X105000000Y-86390000D02*
X105000000Y-83700000D01*
%TO.N,VBUS*%
X126500000Y-77500000D02*
X126500000Y-78300000D01*
X129300000Y-74700000D02*
X126500000Y-77500000D01*
X129300000Y-61920000D02*
X129300000Y-74700000D01*
D21*
%TO.N,/EN*%
X116800000Y-50800000D02*
X111100000Y-45100000D01*
X111100000Y-45100000D02*
X107600000Y-45100000D01*
X116800000Y-66500000D02*
X116800000Y-50800000D01*
%TO.N,/ETH_MDC*%
X112300000Y-64900000D02*
X110700000Y-63300000D01*
X110700000Y-63300000D02*
X109200000Y-63300000D01*
X113000000Y-64900000D02*
X112300000Y-64900000D01*
X108309683Y-64190317D02*
X108112500Y-64190317D01*
X113200000Y-65100000D02*
X113000000Y-64900000D01*
X109200000Y-63300000D02*
X108309683Y-64190317D01*
D22*
%TO.N,/IO34*%
X104560000Y-48800000D02*
X99900000Y-44140000D01*
X108300000Y-48800000D02*
X104560000Y-48800000D01*
D21*
%TO.N,/ETH_TXD1*%
X112300000Y-63100000D02*
X112400000Y-63000000D01*
X112400000Y-63100000D02*
X112219608Y-63100000D01*
X112219608Y-63100000D02*
X112209804Y-63109804D01*
X112400000Y-63000000D02*
X112400000Y-60700000D01*
X112400000Y-60700000D02*
X113500000Y-59600000D01*
X113500000Y-59600000D02*
X113500000Y-59000000D01*
X112400000Y-63100000D02*
X112300000Y-63100000D01*
D22*
%TO.N,/IO35*%
X103820000Y-50600000D02*
X99900000Y-46680000D01*
X108000000Y-50600000D02*
X103820000Y-50600000D01*
%TO.N,/IO32*%
X102880000Y-52200000D02*
X99900000Y-49220000D01*
X108100000Y-52200000D02*
X102880000Y-52200000D01*
D21*
%TO.N,/ETH_RXD1*%
X114467585Y-65467585D02*
X114467585Y-57567585D01*
X114700000Y-65700000D02*
X114467585Y-65467585D01*
X112570000Y-55670000D02*
X112500000Y-55670000D01*
X114467585Y-57567585D02*
X112570000Y-55670000D01*
%TO.N,/ETH_RXD0*%
X115000000Y-57140025D02*
X112259975Y-54400000D01*
X112259975Y-54400000D02*
X112000000Y-54400000D01*
X115000000Y-64937500D02*
X115000000Y-57140025D01*
X115681250Y-65618750D02*
X115000000Y-64937500D01*
%TO.N,/ETH_MDIO*%
X113767586Y-64122364D02*
X113745222Y-64100000D01*
X110900000Y-62700000D02*
X108800000Y-62700000D01*
X113745222Y-64100000D02*
X112300000Y-64100000D01*
X113789950Y-64100000D02*
X113900000Y-64100000D01*
X112300000Y-64100000D02*
X110900000Y-62700000D01*
X113767586Y-64122364D02*
X113789950Y-64100000D01*
X108800000Y-62700000D02*
X108150000Y-63350000D01*
X108100000Y-63400000D02*
X108150000Y-63350000D01*
%TO.N,/BOOT*%
X123600000Y-60600000D02*
X123400000Y-60600000D01*
X125044975Y-62544975D02*
X125044975Y-62044975D01*
X125044975Y-62044975D02*
X123600000Y-60600000D01*
%TO.N,/ETH_CLK*%
X123200000Y-61600000D02*
X123400000Y-61400000D01*
X119700000Y-62100000D02*
X122700000Y-62100000D01*
X119500000Y-62300000D02*
X119700000Y-62100000D01*
X122700000Y-62100000D02*
X123200000Y-61600000D01*
X119300000Y-62300000D02*
X119500000Y-62300000D01*
D22*
%TO.N,/IO14*%
X102900000Y-57300000D02*
X99900000Y-54300000D01*
X108300000Y-57300000D02*
X102900000Y-57300000D01*
%TO.N,/IO12*%
X108500000Y-59000000D02*
X102060000Y-59000000D01*
X102060000Y-59000000D02*
X99900000Y-56840000D01*
D21*
%TO.N,/RTL_LED1*%
X103300000Y-75900000D02*
X103300000Y-69900000D01*
X104500000Y-77100000D02*
X103300000Y-75900000D01*
X106232500Y-66967500D02*
X106252500Y-66967500D01*
X103300000Y-69900000D02*
X106232500Y-66967500D01*
X114400000Y-77100000D02*
X104500000Y-77100000D01*
X106252500Y-66967500D02*
X106252500Y-66247500D01*
X106252500Y-66247500D02*
X106300000Y-66200000D01*
%TO.N,/RTL_LED0*%
X104800000Y-65400000D02*
X102900000Y-67300000D01*
X107252500Y-66567500D02*
X107252500Y-65952500D01*
X107252500Y-65952500D02*
X106700000Y-65400000D01*
X102900000Y-67300000D02*
X102900000Y-78300000D01*
X106700000Y-65400000D02*
X104800000Y-65400000D01*
X102900000Y-78300000D02*
X103300000Y-78700000D01*
D22*
%TO.N,/IO2*%
X119800000Y-58500000D02*
X120400000Y-59100000D01*
X124500000Y-59100000D02*
X129300000Y-54300000D01*
X119800000Y-57400000D02*
X119800000Y-58500000D01*
X120400000Y-59100000D02*
X124500000Y-59100000D01*
%TO.N,/IO4*%
X129300000Y-52200000D02*
X129300000Y-51760000D01*
X121700000Y-58200000D02*
X121800000Y-58300000D01*
X123200000Y-58300000D02*
X129300000Y-52200000D01*
X121800000Y-58300000D02*
X123200000Y-58300000D01*
%TO.N,/IO16*%
X126200000Y-54319239D02*
X126200000Y-52320000D01*
X121800000Y-56500000D02*
X121900000Y-56600000D01*
X123919239Y-56600000D02*
X126200000Y-54319239D01*
X126200000Y-52320000D02*
X129300000Y-49220000D01*
X121900000Y-56600000D02*
X123919239Y-56600000D01*
%TO.N,/IO5*%
X125000000Y-50980000D02*
X129300000Y-46680000D01*
X125000000Y-54300000D02*
X125000000Y-50980000D01*
D21*
%TO.N,Net-(U4-RXD3_CLK_CTL)*%
X114800000Y-72177488D02*
X113122512Y-70500000D01*
X114800000Y-76000000D02*
X114800000Y-72177488D01*
%TO.N,/RXD*%
X117700000Y-80500000D02*
X118300000Y-79900000D01*
X118300000Y-79900000D02*
X118300000Y-55140000D01*
X118300000Y-55140000D02*
X129300000Y-44140000D01*
%TO.N,/TXD*%
X116800000Y-80500000D02*
X117800000Y-79500000D01*
X121650000Y-49250000D02*
X129300000Y-41600000D01*
X121460050Y-49250000D02*
X121650000Y-49250000D01*
X117800000Y-79500000D02*
X117800000Y-52910050D01*
X117800000Y-52910050D02*
X121460050Y-49250000D01*
D22*
%TO.N,/IO15*%
X126340000Y-59800000D02*
X129300000Y-56840000D01*
X119500000Y-59800000D02*
X126340000Y-59800000D01*
X119000000Y-58600000D02*
X119000000Y-59300000D01*
X119000000Y-59300000D02*
X119500000Y-59800000D01*
%TD*%
%TA.AperFunction,Conductor*%
%TO.N,GND*%
G36*
X105617290Y-65819407D02*
G01*
X105653254Y-65868907D01*
X105653254Y-65930093D01*
X105650563Y-65937385D01*
X105626420Y-65995670D01*
X105626420Y-65995672D01*
X105599500Y-66131004D01*
X105599500Y-66268995D01*
X105626420Y-66404327D01*
X105626420Y-66404329D01*
X105679222Y-66531806D01*
X105679228Y-66531817D01*
X105755885Y-66646541D01*
X105801471Y-66692127D01*
X105829248Y-66746644D01*
X105819677Y-66807076D01*
X105801471Y-66832135D01*
X103469504Y-69164103D01*
X103414987Y-69191880D01*
X103354555Y-69182309D01*
X103311290Y-69139044D01*
X103300500Y-69094099D01*
X103300500Y-67506900D01*
X103319407Y-67448709D01*
X103329496Y-67436896D01*
X104936896Y-65829496D01*
X104991413Y-65801719D01*
X105006900Y-65800500D01*
X105559099Y-65800500D01*
X105617290Y-65819407D01*
G37*
%TD.AperFunction*%
%TA.AperFunction,Conductor*%
G36*
X98709207Y-41418907D02*
G01*
X98745171Y-41468407D01*
X98749712Y-41506759D01*
X98749500Y-41509455D01*
X98749500Y-41690549D01*
X98777828Y-41869406D01*
X98833788Y-42041637D01*
X98878020Y-42128448D01*
X98916004Y-42202994D01*
X99022447Y-42349501D01*
X99150499Y-42477553D01*
X99297006Y-42583996D01*
X99458361Y-42666211D01*
X99630591Y-42722171D01*
X99702136Y-42733502D01*
X99809451Y-42750500D01*
X99809454Y-42750500D01*
X99990549Y-42750500D01*
X100079977Y-42736335D01*
X100169409Y-42722171D01*
X100341639Y-42666211D01*
X100502994Y-42583996D01*
X100649501Y-42477553D01*
X100777553Y-42349501D01*
X100883996Y-42202994D01*
X100966211Y-42041639D01*
X101022171Y-41869409D01*
X101050500Y-41690546D01*
X101050500Y-41509454D01*
X101050499Y-41509453D01*
X101050288Y-41506759D01*
X101050500Y-41505876D01*
X101050500Y-41505564D01*
X101050575Y-41505564D01*
X101064577Y-41447265D01*
X101111107Y-41407532D01*
X101148984Y-41400000D01*
X105701000Y-41400000D01*
X105759191Y-41418907D01*
X105795155Y-41468407D01*
X105800000Y-41499000D01*
X105800000Y-41670000D01*
X105800001Y-41670000D01*
X123799999Y-41670000D01*
X123800000Y-41670000D01*
X123800000Y-41499000D01*
X123818907Y-41440809D01*
X123868407Y-41404845D01*
X123899000Y-41400000D01*
X128051016Y-41400000D01*
X128109207Y-41418907D01*
X128145171Y-41468407D01*
X128149712Y-41506759D01*
X128149500Y-41509455D01*
X128149500Y-41690549D01*
X128177828Y-41869406D01*
X128229309Y-42027852D01*
X128229308Y-42089037D01*
X128205158Y-42128448D01*
X121810720Y-48522885D01*
X121756203Y-48550662D01*
X121721402Y-48549979D01*
X121718995Y-48549500D01*
X121718993Y-48549500D01*
X121581007Y-48549500D01*
X121581004Y-48549500D01*
X121445672Y-48576420D01*
X121445670Y-48576420D01*
X121318193Y-48629222D01*
X121318182Y-48629228D01*
X121203458Y-48705885D01*
X121105885Y-48803458D01*
X121029228Y-48918182D01*
X121029222Y-48918193D01*
X120976420Y-49045670D01*
X120952093Y-49167968D01*
X120924999Y-49218657D01*
X117479517Y-52664140D01*
X117479516Y-52664141D01*
X117426793Y-52755461D01*
X117426792Y-52755461D01*
X117426793Y-52755462D01*
X117399500Y-52857323D01*
X117399500Y-65872873D01*
X117395243Y-65885972D01*
X117395786Y-65899734D01*
X117386024Y-65914347D01*
X117380593Y-65931064D01*
X117369449Y-65939160D01*
X117361800Y-65950612D01*
X117345312Y-65956696D01*
X117331093Y-65967028D01*
X117317319Y-65967028D01*
X117304399Y-65971796D01*
X117287485Y-65967028D01*
X117269907Y-65967028D01*
X117245509Y-65955195D01*
X117244509Y-65954527D01*
X117206623Y-65906482D01*
X117200500Y-65872205D01*
X117200500Y-50747274D01*
X117200500Y-50747273D01*
X117179525Y-50668993D01*
X117173207Y-50645412D01*
X117168829Y-50637829D01*
X117120483Y-50554091D01*
X117120481Y-50554089D01*
X117120480Y-50554087D01*
X111345913Y-44779520D01*
X111345910Y-44779518D01*
X111345908Y-44779516D01*
X111254591Y-44726794D01*
X111254593Y-44726794D01*
X111215070Y-44716204D01*
X111152727Y-44699500D01*
X111152725Y-44699500D01*
X108227795Y-44699500D01*
X108169604Y-44680593D01*
X108145478Y-44655500D01*
X108144114Y-44653458D01*
X108105734Y-44615078D01*
X108046550Y-44555893D01*
X108046541Y-44555885D01*
X107931817Y-44479228D01*
X107931806Y-44479222D01*
X107804328Y-44426420D01*
X107668995Y-44399500D01*
X107668993Y-44399500D01*
X107531007Y-44399500D01*
X107531004Y-44399500D01*
X107395672Y-44426420D01*
X107395670Y-44426420D01*
X107268193Y-44479222D01*
X107268182Y-44479228D01*
X107153458Y-44555885D01*
X107055885Y-44653458D01*
X106979228Y-44768182D01*
X106979222Y-44768193D01*
X106926420Y-44895670D01*
X106926420Y-44895672D01*
X106899500Y-45031004D01*
X106899500Y-45031007D01*
X106899500Y-45168993D01*
X106923669Y-45290500D01*
X106926420Y-45304327D01*
X106926420Y-45304329D01*
X106979222Y-45431806D01*
X106979228Y-45431817D01*
X107055885Y-45546541D01*
X107153458Y-45644114D01*
X107268182Y-45720771D01*
X107268193Y-45720777D01*
X107315283Y-45740282D01*
X107395672Y-45773580D01*
X107531007Y-45800500D01*
X107531008Y-45800500D01*
X107668992Y-45800500D01*
X107668993Y-45800500D01*
X107804328Y-45773580D01*
X107931811Y-45720775D01*
X108046542Y-45644114D01*
X108144114Y-45546542D01*
X108145478Y-45544499D01*
X108146362Y-45543802D01*
X108147202Y-45542780D01*
X108147426Y-45542964D01*
X108193527Y-45506620D01*
X108227795Y-45500500D01*
X110893099Y-45500500D01*
X110951290Y-45519407D01*
X110963103Y-45529496D01*
X116370504Y-50936897D01*
X116398281Y-50991414D01*
X116399500Y-51006901D01*
X116399500Y-65292322D01*
X116380593Y-65350513D01*
X116331093Y-65386477D01*
X116269907Y-65386477D01*
X116220407Y-65350513D01*
X116214764Y-65341822D01*
X116161771Y-65250036D01*
X116161770Y-65250034D01*
X116049966Y-65138230D01*
X115913034Y-65059173D01*
X115760307Y-65018250D01*
X115760305Y-65018250D01*
X115688151Y-65018250D01*
X115629960Y-64999343D01*
X115618147Y-64989254D01*
X115429496Y-64800603D01*
X115401719Y-64746086D01*
X115400500Y-64730599D01*
X115400500Y-57200739D01*
X115400501Y-57200726D01*
X115400501Y-57087301D01*
X115400501Y-57087299D01*
X115373207Y-56985438D01*
X115354743Y-56953458D01*
X115320480Y-56894112D01*
X115245913Y-56819545D01*
X115245910Y-56819543D01*
X112707612Y-54281244D01*
X112680518Y-54230553D01*
X112676321Y-54209454D01*
X112673580Y-54195672D01*
X112620775Y-54068189D01*
X112620774Y-54068187D01*
X112620771Y-54068182D01*
X112544114Y-53953458D01*
X112446541Y-53855885D01*
X112331817Y-53779228D01*
X112331806Y-53779222D01*
X112204328Y-53726420D01*
X112068995Y-53699500D01*
X112068993Y-53699500D01*
X111931007Y-53699500D01*
X111931004Y-53699500D01*
X111795672Y-53726420D01*
X111795670Y-53726420D01*
X111668193Y-53779222D01*
X111668182Y-53779228D01*
X111553458Y-53855885D01*
X111455885Y-53953458D01*
X111379228Y-54068182D01*
X111379222Y-54068193D01*
X111326420Y-54195670D01*
X111326420Y-54195672D01*
X111299500Y-54331004D01*
X111299500Y-54468995D01*
X111326420Y-54604327D01*
X111326420Y-54604329D01*
X111379222Y-54731806D01*
X111379228Y-54731817D01*
X111455885Y-54846541D01*
X111553458Y-54944114D01*
X111668182Y-55020771D01*
X111668193Y-55020777D01*
X111715283Y-55040282D01*
X111795672Y-55073580D01*
X111880170Y-55090387D01*
X111933553Y-55120283D01*
X111959169Y-55175848D01*
X111947232Y-55235858D01*
X111943171Y-55242486D01*
X111879227Y-55338184D01*
X111879222Y-55338193D01*
X111826420Y-55465670D01*
X111826420Y-55465672D01*
X111799500Y-55601004D01*
X111799500Y-55738995D01*
X111826420Y-55874327D01*
X111826420Y-55874329D01*
X111879222Y-56001806D01*
X111879228Y-56001817D01*
X111955885Y-56116541D01*
X112053458Y-56214114D01*
X112168182Y-56290771D01*
X112168193Y-56290777D01*
X112180011Y-56295672D01*
X112295672Y-56343580D01*
X112431007Y-56370500D01*
X112431008Y-56370500D01*
X112568992Y-56370500D01*
X112568993Y-56370500D01*
X112568994Y-56370499D01*
X112569001Y-56370499D01*
X112612857Y-56361774D01*
X112629787Y-56358407D01*
X112690549Y-56365597D01*
X112719107Y-56385500D01*
X114038089Y-57704482D01*
X114065866Y-57758999D01*
X114067085Y-57774486D01*
X114067085Y-58351214D01*
X114048178Y-58409405D01*
X113998678Y-58445369D01*
X113937492Y-58445369D01*
X113913083Y-58433529D01*
X113831818Y-58379228D01*
X113831806Y-58379222D01*
X113704328Y-58326420D01*
X113568995Y-58299500D01*
X113568993Y-58299500D01*
X113431007Y-58299500D01*
X113431004Y-58299500D01*
X113295672Y-58326420D01*
X113295670Y-58326420D01*
X113168193Y-58379222D01*
X113168182Y-58379228D01*
X113053458Y-58455885D01*
X112955885Y-58553458D01*
X112879228Y-58668182D01*
X112879222Y-58668193D01*
X112826420Y-58795670D01*
X112826420Y-58795672D01*
X112799500Y-58931004D01*
X112799500Y-59068995D01*
X112801501Y-59079055D01*
X112821679Y-59180496D01*
X112826420Y-59204327D01*
X112826420Y-59204329D01*
X112879222Y-59331806D01*
X112879228Y-59331817D01*
X112955890Y-59446548D01*
X112958096Y-59449236D01*
X112980392Y-59506214D01*
X112964938Y-59565416D01*
X112951567Y-59582037D01*
X112079520Y-60454086D01*
X112079516Y-60454091D01*
X112026794Y-60545407D01*
X112026793Y-60545412D01*
X112005320Y-60625554D01*
X111999500Y-60647274D01*
X111999500Y-62472205D01*
X111980593Y-62530396D01*
X111955504Y-62554518D01*
X111954323Y-62555307D01*
X111953456Y-62555887D01*
X111855893Y-62653449D01*
X111855885Y-62653458D01*
X111779228Y-62768182D01*
X111779223Y-62768192D01*
X111764269Y-62804293D01*
X111724532Y-62850817D01*
X111665036Y-62865100D01*
X111608509Y-62841684D01*
X111602803Y-62836409D01*
X111145913Y-62379520D01*
X111145908Y-62379516D01*
X111054591Y-62326794D01*
X111054593Y-62326794D01*
X111015070Y-62316204D01*
X110952727Y-62299500D01*
X108852727Y-62299500D01*
X108747273Y-62299500D01*
X108684929Y-62316204D01*
X108645407Y-62326794D01*
X108554091Y-62379516D01*
X108554086Y-62379520D01*
X108213102Y-62720504D01*
X108158586Y-62748281D01*
X108143099Y-62749500D01*
X108070943Y-62749500D01*
X107918216Y-62790423D01*
X107781284Y-62869480D01*
X107669480Y-62981284D01*
X107590423Y-63118216D01*
X107549500Y-63270943D01*
X107549500Y-63429057D01*
X107590423Y-63581784D01*
X107669480Y-63718716D01*
X107669482Y-63718718D01*
X107713260Y-63762497D01*
X107741037Y-63817014D01*
X107731465Y-63877446D01*
X107713261Y-63902503D01*
X107684480Y-63931283D01*
X107605423Y-64068216D01*
X107564500Y-64220943D01*
X107564500Y-64379057D01*
X107605423Y-64531784D01*
X107684480Y-64668716D01*
X107796284Y-64780520D01*
X107933216Y-64859577D01*
X108085943Y-64900500D01*
X108085945Y-64900500D01*
X108244055Y-64900500D01*
X108244057Y-64900500D01*
X108396784Y-64859577D01*
X108533716Y-64780520D01*
X108645520Y-64668716D01*
X108724577Y-64531784D01*
X108765500Y-64379057D01*
X108765500Y-64341901D01*
X108784407Y-64283710D01*
X108794496Y-64271897D01*
X109336897Y-63729496D01*
X109391414Y-63701719D01*
X109406901Y-63700500D01*
X109991097Y-63700500D01*
X110049288Y-63719407D01*
X110085252Y-63768907D01*
X110085252Y-63830093D01*
X110049288Y-63879593D01*
X110040602Y-63885232D01*
X110010689Y-63902503D01*
X109981285Y-63919479D01*
X109981284Y-63919480D01*
X109869480Y-64031284D01*
X109790423Y-64168216D01*
X109749500Y-64320943D01*
X109749500Y-64479057D01*
X109790423Y-64631784D01*
X109869480Y-64768716D01*
X109981284Y-64880520D01*
X110118216Y-64959577D01*
X110270943Y-65000500D01*
X110270945Y-65000500D01*
X110429055Y-65000500D01*
X110429057Y-65000500D01*
X110581784Y-64959577D01*
X110718716Y-64880520D01*
X110830520Y-64768716D01*
X110909577Y-64631784D01*
X110950500Y-64479057D01*
X110950500Y-64355900D01*
X110969407Y-64297709D01*
X111018907Y-64261745D01*
X111080093Y-64261745D01*
X111119502Y-64285895D01*
X111979518Y-65145910D01*
X111979520Y-65145913D01*
X112054087Y-65220480D01*
X112113164Y-65254588D01*
X112145413Y-65273207D01*
X112247270Y-65300500D01*
X112247272Y-65300501D01*
X112247273Y-65300501D01*
X112358790Y-65300501D01*
X112358806Y-65300500D01*
X112458685Y-65300500D01*
X112516876Y-65319407D01*
X112550149Y-65361615D01*
X112579222Y-65431806D01*
X112579228Y-65431817D01*
X112655885Y-65546541D01*
X112753458Y-65644114D01*
X112868182Y-65720771D01*
X112868193Y-65720777D01*
X112915283Y-65740282D01*
X112995672Y-65773580D01*
X113131007Y-65800500D01*
X113131008Y-65800500D01*
X113268992Y-65800500D01*
X113268993Y-65800500D01*
X113404328Y-65773580D01*
X113531811Y-65720775D01*
X113646542Y-65644114D01*
X113744114Y-65546542D01*
X113820775Y-65431811D01*
X113873580Y-65304328D01*
X113873580Y-65304327D01*
X113875441Y-65299835D01*
X113876660Y-65300339D01*
X113908333Y-65254896D01*
X113966141Y-65234849D01*
X114024692Y-65252610D01*
X114061621Y-65301394D01*
X114067085Y-65333830D01*
X114067085Y-65414858D01*
X114067085Y-65520312D01*
X114094378Y-65622173D01*
X114094378Y-65622174D01*
X114096058Y-65628441D01*
X114094440Y-65628874D01*
X114099500Y-65654230D01*
X114099500Y-65779057D01*
X114140423Y-65931784D01*
X114219480Y-66068716D01*
X114331284Y-66180520D01*
X114468216Y-66259577D01*
X114620943Y-66300500D01*
X114620945Y-66300500D01*
X114779055Y-66300500D01*
X114779057Y-66300500D01*
X114931784Y-66259577D01*
X115068716Y-66180520D01*
X115161247Y-66087988D01*
X115215761Y-66060212D01*
X115276194Y-66069783D01*
X115301250Y-66087987D01*
X115312531Y-66099267D01*
X115312534Y-66099270D01*
X115449466Y-66178327D01*
X115602193Y-66219250D01*
X115602195Y-66219250D01*
X115760305Y-66219250D01*
X115760307Y-66219250D01*
X115913034Y-66178327D01*
X116004803Y-66125344D01*
X116064649Y-66112623D01*
X116120545Y-66137509D01*
X116151138Y-66190497D01*
X116145766Y-66248965D01*
X116126419Y-66295673D01*
X116099500Y-66431004D01*
X116099500Y-66568995D01*
X116126420Y-66704327D01*
X116126420Y-66704329D01*
X116179222Y-66831806D01*
X116179228Y-66831817D01*
X116255885Y-66946541D01*
X116353458Y-67044114D01*
X116468182Y-67120771D01*
X116468193Y-67120777D01*
X116515283Y-67140282D01*
X116595672Y-67173580D01*
X116731007Y-67200500D01*
X116731008Y-67200500D01*
X116868992Y-67200500D01*
X116868993Y-67200500D01*
X117004328Y-67173580D01*
X117131811Y-67120775D01*
X117245499Y-67044810D01*
X117304386Y-67028202D01*
X117361790Y-67049379D01*
X117395783Y-67100252D01*
X117399500Y-67127126D01*
X117399500Y-79293099D01*
X117380593Y-79351290D01*
X117370504Y-79363103D01*
X116863103Y-79870504D01*
X116808586Y-79898281D01*
X116793099Y-79899500D01*
X116720943Y-79899500D01*
X116568216Y-79940423D01*
X116431284Y-80019480D01*
X116319480Y-80131284D01*
X116240423Y-80268216D01*
X116199500Y-80420943D01*
X116199500Y-80579057D01*
X116240423Y-80731784D01*
X116319480Y-80868716D01*
X116431284Y-80980520D01*
X116568216Y-81059577D01*
X116720943Y-81100500D01*
X116720945Y-81100500D01*
X116879055Y-81100500D01*
X116879057Y-81100500D01*
X117031784Y-81059577D01*
X117168716Y-80980520D01*
X117179998Y-80969237D01*
X117234513Y-80941462D01*
X117294945Y-80951033D01*
X117320000Y-80969236D01*
X117331284Y-80980520D01*
X117468216Y-81059577D01*
X117620943Y-81100500D01*
X117620945Y-81100500D01*
X117779055Y-81100500D01*
X117779057Y-81100500D01*
X117931784Y-81059577D01*
X118068716Y-80980520D01*
X118180520Y-80868716D01*
X118259577Y-80731784D01*
X118300500Y-80579057D01*
X118300500Y-80506900D01*
X118319407Y-80448709D01*
X118329490Y-80436902D01*
X118620480Y-80145913D01*
X118673207Y-80054588D01*
X118700500Y-79952727D01*
X118700500Y-79847273D01*
X118700500Y-79756004D01*
X121624500Y-79756004D01*
X121624500Y-79893995D01*
X121651420Y-80029327D01*
X121651420Y-80029329D01*
X121704222Y-80156806D01*
X121704228Y-80156817D01*
X121780885Y-80271541D01*
X121878458Y-80369114D01*
X121993182Y-80445771D01*
X121993193Y-80445777D01*
X122022256Y-80457815D01*
X122120672Y-80498580D01*
X122120687Y-80498583D01*
X122121052Y-80498694D01*
X122121205Y-80498800D01*
X122125165Y-80500441D01*
X122124805Y-80501309D01*
X122171252Y-80533675D01*
X122191303Y-80591482D01*
X122173547Y-80650034D01*
X122162327Y-80663436D01*
X122144482Y-80681281D01*
X122144480Y-80681283D01*
X122144480Y-80681284D01*
X122065423Y-80818216D01*
X122024500Y-80970943D01*
X122024500Y-81129057D01*
X122065423Y-81281784D01*
X122144480Y-81418716D01*
X122256284Y-81530520D01*
X122393216Y-81609577D01*
X122545943Y-81650500D01*
X122545945Y-81650500D01*
X122704055Y-81650500D01*
X122704057Y-81650500D01*
X122856784Y-81609577D01*
X122993716Y-81530520D01*
X123105520Y-81418716D01*
X123184577Y-81281784D01*
X123225500Y-81129057D01*
X123225500Y-80970943D01*
X123184577Y-80818216D01*
X123105520Y-80681284D01*
X122993716Y-80569480D01*
X122885323Y-80506900D01*
X122856781Y-80490421D01*
X122850789Y-80487940D01*
X122851587Y-80486011D01*
X122808187Y-80457815D01*
X122786271Y-80400689D01*
X122802118Y-80341592D01*
X122815133Y-80325523D01*
X122869106Y-80271550D01*
X122869114Y-80271542D01*
X122945775Y-80156811D01*
X122998580Y-80029328D01*
X123025500Y-79893993D01*
X123025500Y-79756007D01*
X122998580Y-79620672D01*
X122980978Y-79578177D01*
X122945777Y-79493193D01*
X122945771Y-79493182D01*
X122869114Y-79378458D01*
X122771541Y-79280885D01*
X122656817Y-79204228D01*
X122656806Y-79204222D01*
X122529328Y-79151420D01*
X122393995Y-79124500D01*
X122393993Y-79124500D01*
X122256007Y-79124500D01*
X122256004Y-79124500D01*
X122120672Y-79151420D01*
X122120670Y-79151420D01*
X121993193Y-79204222D01*
X121993182Y-79204228D01*
X121878458Y-79280885D01*
X121780885Y-79378458D01*
X121704228Y-79493182D01*
X121704222Y-79493193D01*
X121651420Y-79620670D01*
X121651420Y-79620672D01*
X121624500Y-79756004D01*
X118700500Y-79756004D01*
X118700500Y-74131004D01*
X120399500Y-74131004D01*
X120399500Y-74268995D01*
X120426420Y-74404327D01*
X120426420Y-74404329D01*
X120479222Y-74531806D01*
X120479228Y-74531817D01*
X120555885Y-74646541D01*
X120653458Y-74744114D01*
X120768182Y-74820771D01*
X120768193Y-74820777D01*
X120815283Y-74840282D01*
X120895672Y-74873580D01*
X121031007Y-74900500D01*
X121031008Y-74900500D01*
X121168992Y-74900500D01*
X121168993Y-74900500D01*
X121304328Y-74873580D01*
X121431811Y-74820775D01*
X121546542Y-74744114D01*
X121644114Y-74646542D01*
X121717685Y-74536436D01*
X121765735Y-74498557D01*
X121826873Y-74496155D01*
X121877747Y-74530148D01*
X121882315Y-74536436D01*
X121955886Y-74646542D01*
X121955889Y-74646545D01*
X122053458Y-74744114D01*
X122168182Y-74820771D01*
X122168193Y-74820777D01*
X122215283Y-74840282D01*
X122295672Y-74873580D01*
X122431007Y-74900500D01*
X122431008Y-74900500D01*
X122568992Y-74900500D01*
X122568993Y-74900500D01*
X122704328Y-74873580D01*
X122831811Y-74820775D01*
X122946542Y-74744114D01*
X123044114Y-74646542D01*
X123120775Y-74531811D01*
X123173580Y-74404328D01*
X123200500Y-74268993D01*
X123200500Y-74131007D01*
X123200499Y-74131004D01*
X123399500Y-74131004D01*
X123399500Y-74268995D01*
X123426420Y-74404327D01*
X123426420Y-74404329D01*
X123479222Y-74531806D01*
X123479228Y-74531817D01*
X123555885Y-74646541D01*
X123653458Y-74744114D01*
X123768182Y-74820771D01*
X123768193Y-74820777D01*
X123815283Y-74840282D01*
X123895672Y-74873580D01*
X124031007Y-74900500D01*
X124031008Y-74900500D01*
X124168992Y-74900500D01*
X124168993Y-74900500D01*
X124304328Y-74873580D01*
X124431811Y-74820775D01*
X124546542Y-74744114D01*
X124644114Y-74646542D01*
X124720775Y-74531811D01*
X124773580Y-74404328D01*
X124800500Y-74268993D01*
X124800500Y-74131007D01*
X124773580Y-73995672D01*
X124720775Y-73868189D01*
X124720774Y-73868187D01*
X124720771Y-73868182D01*
X124644114Y-73753458D01*
X124546541Y-73655885D01*
X124431817Y-73579228D01*
X124431806Y-73579222D01*
X124304328Y-73526420D01*
X124168995Y-73499500D01*
X124168993Y-73499500D01*
X124031007Y-73499500D01*
X124031004Y-73499500D01*
X123895672Y-73526420D01*
X123895670Y-73526420D01*
X123768193Y-73579222D01*
X123768182Y-73579228D01*
X123653458Y-73655885D01*
X123555885Y-73753458D01*
X123479228Y-73868182D01*
X123479222Y-73868193D01*
X123426420Y-73995670D01*
X123426420Y-73995672D01*
X123399500Y-74131004D01*
X123200499Y-74131004D01*
X123173580Y-73995672D01*
X123120775Y-73868189D01*
X123120774Y-73868187D01*
X123120771Y-73868182D01*
X123044114Y-73753458D01*
X122946541Y-73655885D01*
X122831817Y-73579228D01*
X122831806Y-73579222D01*
X122704328Y-73526420D01*
X122568995Y-73499500D01*
X122568993Y-73499500D01*
X122431007Y-73499500D01*
X122431004Y-73499500D01*
X122295672Y-73526420D01*
X122295670Y-73526420D01*
X122168193Y-73579222D01*
X122168182Y-73579228D01*
X122053458Y-73655885D01*
X121955885Y-73753458D01*
X121882315Y-73863563D01*
X121834265Y-73901442D01*
X121773126Y-73903844D01*
X121722253Y-73869850D01*
X121717685Y-73863563D01*
X121644114Y-73753458D01*
X121546541Y-73655885D01*
X121431817Y-73579228D01*
X121431806Y-73579222D01*
X121304328Y-73526420D01*
X121168995Y-73499500D01*
X121168993Y-73499500D01*
X121031007Y-73499500D01*
X121031004Y-73499500D01*
X120895672Y-73526420D01*
X120895670Y-73526420D01*
X120768193Y-73579222D01*
X120768182Y-73579228D01*
X120653458Y-73655885D01*
X120555885Y-73753458D01*
X120479228Y-73868182D01*
X120479222Y-73868193D01*
X120426420Y-73995670D01*
X120426420Y-73995672D01*
X120399500Y-74131004D01*
X118700500Y-74131004D01*
X118700500Y-71531004D01*
X124699500Y-71531004D01*
X124699500Y-71668995D01*
X124726420Y-71804327D01*
X124726420Y-71804329D01*
X124779222Y-71931806D01*
X124779228Y-71931817D01*
X124855885Y-72046541D01*
X124953458Y-72144114D01*
X125068182Y-72220771D01*
X125068193Y-72220777D01*
X125115283Y-72240282D01*
X125195672Y-72273580D01*
X125331007Y-72300500D01*
X125331008Y-72300500D01*
X125468992Y-72300500D01*
X125468993Y-72300500D01*
X125604328Y-72273580D01*
X125731811Y-72220775D01*
X125846542Y-72144114D01*
X125944114Y-72046542D01*
X126020775Y-71931811D01*
X126073580Y-71804328D01*
X126100500Y-71668993D01*
X126100500Y-71531007D01*
X126073580Y-71395672D01*
X126020775Y-71268189D01*
X126020774Y-71268187D01*
X126020771Y-71268182D01*
X125944114Y-71153458D01*
X125846541Y-71055885D01*
X125731817Y-70979228D01*
X125731806Y-70979222D01*
X125604328Y-70926420D01*
X125468995Y-70899500D01*
X125468993Y-70899500D01*
X125331007Y-70899500D01*
X125331004Y-70899500D01*
X125195672Y-70926420D01*
X125195670Y-70926420D01*
X125068193Y-70979222D01*
X125068182Y-70979228D01*
X124953458Y-71055885D01*
X124855885Y-71153458D01*
X124779228Y-71268182D01*
X124779222Y-71268193D01*
X124726420Y-71395670D01*
X124726420Y-71395672D01*
X124699500Y-71531004D01*
X118700500Y-71531004D01*
X118700500Y-62927126D01*
X118719407Y-62868935D01*
X118768907Y-62832971D01*
X118830093Y-62832971D01*
X118854498Y-62844809D01*
X118902355Y-62876786D01*
X118968182Y-62920771D01*
X118968193Y-62920777D01*
X119015283Y-62940282D01*
X119095672Y-62973580D01*
X119231007Y-63000500D01*
X119231008Y-63000500D01*
X119368992Y-63000500D01*
X119368993Y-63000500D01*
X119504328Y-62973580D01*
X119631811Y-62920775D01*
X119746542Y-62844114D01*
X119844114Y-62746542D01*
X119920775Y-62631811D01*
X119949851Y-62561614D01*
X119989587Y-62515089D01*
X120041315Y-62500500D01*
X122752725Y-62500500D01*
X122752727Y-62500500D01*
X122854588Y-62473207D01*
X122854590Y-62473205D01*
X122854592Y-62473205D01*
X122945908Y-62420483D01*
X122945908Y-62420482D01*
X122945913Y-62420480D01*
X123039278Y-62327113D01*
X123093791Y-62299336D01*
X123128593Y-62300019D01*
X123131007Y-62300500D01*
X123131012Y-62300500D01*
X123268992Y-62300500D01*
X123268993Y-62300500D01*
X123404328Y-62273580D01*
X123531811Y-62220775D01*
X123646542Y-62144114D01*
X123744114Y-62046542D01*
X123820775Y-61931811D01*
X123873580Y-61804328D01*
X123897896Y-61682079D01*
X123927793Y-61628697D01*
X123983358Y-61603081D01*
X124043367Y-61615018D01*
X124064998Y-61631391D01*
X124455898Y-62022291D01*
X124483675Y-62076808D01*
X124474104Y-62137240D01*
X124468210Y-62147296D01*
X124424202Y-62213158D01*
X124424197Y-62213168D01*
X124371395Y-62340645D01*
X124371395Y-62340647D01*
X124344475Y-62475979D01*
X124344475Y-62613970D01*
X124362421Y-62704191D01*
X124365666Y-62720504D01*
X124371395Y-62749302D01*
X124371395Y-62749304D01*
X124424197Y-62876781D01*
X124424203Y-62876792D01*
X124500860Y-62991516D01*
X124598433Y-63089089D01*
X124713157Y-63165746D01*
X124713168Y-63165752D01*
X124745703Y-63179228D01*
X124840647Y-63218555D01*
X124975982Y-63245475D01*
X124975983Y-63245475D01*
X125113967Y-63245475D01*
X125113968Y-63245475D01*
X125249303Y-63218555D01*
X125376786Y-63165750D01*
X125491517Y-63089089D01*
X125589089Y-62991517D01*
X125665750Y-62876786D01*
X125718555Y-62749303D01*
X125745475Y-62613968D01*
X125745475Y-62475982D01*
X125718555Y-62340647D01*
X125700953Y-62298152D01*
X125665752Y-62213168D01*
X125665746Y-62213157D01*
X125589089Y-62098433D01*
X125589081Y-62098424D01*
X125491518Y-62000862D01*
X125491517Y-62000861D01*
X125469224Y-61985965D01*
X125431347Y-61937915D01*
X125428601Y-61929274D01*
X125418182Y-61890387D01*
X125396861Y-61853458D01*
X125365458Y-61799066D01*
X125365457Y-61799065D01*
X125365456Y-61799064D01*
X125365455Y-61799062D01*
X124122504Y-60556111D01*
X124095947Y-60507947D01*
X124095665Y-60506701D01*
X124073580Y-60395672D01*
X124066912Y-60379575D01*
X124065050Y-60371340D01*
X124067116Y-60348876D01*
X124065346Y-60326391D01*
X124069862Y-60319020D01*
X124070654Y-60310411D01*
X124085529Y-60293451D01*
X124097314Y-60274221D01*
X124105300Y-60270912D01*
X124111001Y-60264414D01*
X124133000Y-60259438D01*
X124153841Y-60250805D01*
X124161611Y-60250500D01*
X126399309Y-60250500D01*
X126489669Y-60226287D01*
X126489672Y-60226287D01*
X126502903Y-60222741D01*
X126513887Y-60219799D01*
X126616614Y-60160489D01*
X127821619Y-58955483D01*
X127876131Y-58927709D01*
X127936563Y-58937280D01*
X127979828Y-58980545D01*
X127989399Y-59040977D01*
X127985774Y-59056078D01*
X127983241Y-59063873D01*
X127950000Y-59273749D01*
X127950000Y-59486250D01*
X127983240Y-59696121D01*
X128048904Y-59898215D01*
X128145376Y-60087553D01*
X128145380Y-60087559D01*
X128184728Y-60141716D01*
X128184729Y-60141716D01*
X128817037Y-59509408D01*
X128834075Y-59572993D01*
X128899901Y-59687007D01*
X128992993Y-59780099D01*
X129107007Y-59845925D01*
X129170589Y-59862962D01*
X128538282Y-60495269D01*
X128538282Y-60495270D01*
X128592440Y-60534619D01*
X128592446Y-60534623D01*
X128685999Y-60582290D01*
X128729263Y-60625554D01*
X128738835Y-60685986D01*
X128711058Y-60740503D01*
X128656542Y-60768281D01*
X128641054Y-60769500D01*
X128405139Y-60769500D01*
X128405136Y-60769501D01*
X128380009Y-60772414D01*
X128277235Y-60817794D01*
X128197794Y-60897235D01*
X128152414Y-61000011D01*
X128149500Y-61025130D01*
X128149500Y-62814860D01*
X128149501Y-62814863D01*
X128152414Y-62839990D01*
X128168664Y-62876792D01*
X128197794Y-62942765D01*
X128225473Y-62970444D01*
X128253249Y-63024959D01*
X128243678Y-63085391D01*
X128200413Y-63128656D01*
X128139981Y-63138227D01*
X128117584Y-63131911D01*
X128104326Y-63126419D01*
X127968995Y-63099500D01*
X127968993Y-63099500D01*
X127831007Y-63099500D01*
X127831004Y-63099500D01*
X127695672Y-63126420D01*
X127695670Y-63126420D01*
X127568193Y-63179222D01*
X127568182Y-63179228D01*
X127453458Y-63255885D01*
X127355885Y-63353458D01*
X127279228Y-63468182D01*
X127279222Y-63468193D01*
X127226420Y-63595670D01*
X127226420Y-63595672D01*
X127199500Y-63731004D01*
X127199500Y-63868995D01*
X127226420Y-64004327D01*
X127226420Y-64004329D01*
X127279222Y-64131806D01*
X127279228Y-64131817D01*
X127355885Y-64246541D01*
X127453458Y-64344114D01*
X127568182Y-64420771D01*
X127568193Y-64420777D01*
X127615283Y-64440282D01*
X127695672Y-64473580D01*
X127831007Y-64500500D01*
X127831008Y-64500500D01*
X127968992Y-64500500D01*
X127968993Y-64500500D01*
X128104328Y-64473580D01*
X128231811Y-64420775D01*
X128346542Y-64344114D01*
X128444114Y-64246542D01*
X128520775Y-64131811D01*
X128573580Y-64004328D01*
X128600500Y-63868993D01*
X128600500Y-63731007D01*
X128573580Y-63595672D01*
X128534610Y-63501589D01*
X128520777Y-63468193D01*
X128520771Y-63468182D01*
X128444114Y-63353458D01*
X128346545Y-63255889D01*
X128346542Y-63255886D01*
X128339617Y-63251258D01*
X128301738Y-63203211D01*
X128299335Y-63142073D01*
X128333326Y-63091199D01*
X128390730Y-63070020D01*
X128402270Y-63070460D01*
X128402278Y-63070335D01*
X128405120Y-63070498D01*
X128405135Y-63070500D01*
X128700500Y-63070499D01*
X128758690Y-63089406D01*
X128794654Y-63138906D01*
X128799500Y-63169499D01*
X128799500Y-74451678D01*
X128780593Y-74509869D01*
X128770504Y-74521682D01*
X126192686Y-77099500D01*
X126192685Y-77099499D01*
X126099500Y-77192685D01*
X126099496Y-77192690D01*
X126033609Y-77306809D01*
X125999500Y-77434109D01*
X125999500Y-77939363D01*
X125986237Y-77988862D01*
X125940423Y-78068214D01*
X125932412Y-78098112D01*
X125899500Y-78220943D01*
X125899500Y-78379057D01*
X125940423Y-78531784D01*
X126019480Y-78668716D01*
X126131284Y-78780520D01*
X126268216Y-78859577D01*
X126420943Y-78900500D01*
X126420945Y-78900500D01*
X126579055Y-78900500D01*
X126579057Y-78900500D01*
X126731784Y-78859577D01*
X126868716Y-78780520D01*
X126980520Y-78668716D01*
X127059577Y-78531784D01*
X127100500Y-78379057D01*
X127100500Y-78220943D01*
X127059577Y-78068216D01*
X127013763Y-77988862D01*
X127000500Y-77939363D01*
X127000500Y-77748321D01*
X127019407Y-77690130D01*
X127029490Y-77678323D01*
X128155496Y-76552316D01*
X128210013Y-76524540D01*
X128270445Y-76534111D01*
X128313710Y-76577376D01*
X128324500Y-76622321D01*
X128324500Y-76629057D01*
X128365423Y-76781784D01*
X128444480Y-76918716D01*
X128556284Y-77030520D01*
X128693216Y-77109577D01*
X128845943Y-77150500D01*
X128845945Y-77150500D01*
X129004055Y-77150500D01*
X129004057Y-77150500D01*
X129156784Y-77109577D01*
X129293716Y-77030520D01*
X129405520Y-76918716D01*
X129484577Y-76781784D01*
X129525500Y-76629057D01*
X129525500Y-76470943D01*
X129484577Y-76318216D01*
X129405520Y-76181284D01*
X129293716Y-76069480D01*
X129156784Y-75990423D01*
X129004057Y-75949500D01*
X128997321Y-75949500D01*
X128939130Y-75930593D01*
X128903166Y-75881093D01*
X128903166Y-75819907D01*
X128927317Y-75780496D01*
X129186870Y-75520943D01*
X129700500Y-75007314D01*
X129700503Y-75007309D01*
X129766390Y-74893190D01*
X129766390Y-74893188D01*
X129766392Y-74893186D01*
X129800500Y-74765892D01*
X129800500Y-74634108D01*
X129800500Y-63169499D01*
X129819407Y-63111308D01*
X129868907Y-63075344D01*
X129899500Y-63070499D01*
X130194861Y-63070499D01*
X130194864Y-63070499D01*
X130219991Y-63067585D01*
X130322765Y-63022206D01*
X130402206Y-62942765D01*
X130447585Y-62839991D01*
X130450500Y-62814865D01*
X130450499Y-61025136D01*
X130447585Y-61000009D01*
X130402206Y-60897235D01*
X130322765Y-60817794D01*
X130219991Y-60772415D01*
X130219990Y-60772414D01*
X130219988Y-60772414D01*
X130194869Y-60769500D01*
X129958945Y-60769500D01*
X129900754Y-60750593D01*
X129864790Y-60701093D01*
X129864790Y-60639907D01*
X129900754Y-60590407D01*
X129914000Y-60582290D01*
X130007556Y-60534620D01*
X130061716Y-60495270D01*
X129429408Y-59862962D01*
X129492993Y-59845925D01*
X129607007Y-59780099D01*
X129700099Y-59687007D01*
X129765925Y-59572993D01*
X129782962Y-59509408D01*
X130415270Y-60141716D01*
X130454620Y-60087556D01*
X130551095Y-59898215D01*
X130616759Y-59696121D01*
X130650000Y-59486250D01*
X130650000Y-59273749D01*
X130616759Y-59063878D01*
X130551095Y-58861784D01*
X130454623Y-58672446D01*
X130454619Y-58672440D01*
X130415270Y-58618282D01*
X130415269Y-58618282D01*
X129782962Y-59250589D01*
X129765925Y-59187007D01*
X129700099Y-59072993D01*
X129607007Y-58979901D01*
X129492993Y-58914075D01*
X129429408Y-58897037D01*
X130061716Y-58264729D01*
X130061716Y-58264728D01*
X130007559Y-58225380D01*
X130007553Y-58225376D01*
X129818215Y-58128904D01*
X129727015Y-58099272D01*
X129677515Y-58063308D01*
X129658608Y-58005117D01*
X129677515Y-57946926D01*
X129727013Y-57910962D01*
X129727017Y-57910962D01*
X129727018Y-57910962D01*
X129741633Y-57906213D01*
X129741633Y-57906212D01*
X129741639Y-57906211D01*
X129902994Y-57823996D01*
X130049501Y-57717553D01*
X130177553Y-57589501D01*
X130283996Y-57442994D01*
X130366211Y-57281639D01*
X130422171Y-57109409D01*
X130441806Y-56985438D01*
X130450500Y-56930549D01*
X130450500Y-56749450D01*
X130422171Y-56570593D01*
X130422171Y-56570591D01*
X130366211Y-56398361D01*
X130283996Y-56237006D01*
X130177553Y-56090499D01*
X130049501Y-55962447D01*
X129902994Y-55856004D01*
X129902993Y-55856003D01*
X129902991Y-55856002D01*
X129741637Y-55773788D01*
X129569406Y-55717828D01*
X129390549Y-55689500D01*
X129390546Y-55689500D01*
X129209454Y-55689500D01*
X129209451Y-55689500D01*
X129030593Y-55717828D01*
X128858362Y-55773788D01*
X128697008Y-55856002D01*
X128627578Y-55906446D01*
X128559453Y-55955942D01*
X128559446Y-55955947D01*
X128501255Y-55974854D01*
X128443064Y-55955947D01*
X128407100Y-55906446D01*
X128407100Y-55845261D01*
X128431249Y-55805852D01*
X128824922Y-55412179D01*
X128879437Y-55384404D01*
X128925512Y-55388029D01*
X129030591Y-55422171D01*
X129030592Y-55422171D01*
X129030595Y-55422172D01*
X129209451Y-55450500D01*
X129209454Y-55450500D01*
X129390549Y-55450500D01*
X129479977Y-55436335D01*
X129569409Y-55422171D01*
X129741639Y-55366211D01*
X129902994Y-55283996D01*
X130049501Y-55177553D01*
X130177553Y-55049501D01*
X130283996Y-54902994D01*
X130366211Y-54741639D01*
X130422171Y-54569409D01*
X130450500Y-54390546D01*
X130450500Y-54209454D01*
X130450500Y-54209450D01*
X130428598Y-54071168D01*
X130422171Y-54030591D01*
X130366211Y-53858361D01*
X130283996Y-53697006D01*
X130177553Y-53550499D01*
X130049501Y-53422447D01*
X129902994Y-53316004D01*
X129902993Y-53316003D01*
X129902991Y-53316002D01*
X129741637Y-53233788D01*
X129569406Y-53177828D01*
X129390549Y-53149500D01*
X129390546Y-53149500D01*
X129226611Y-53149500D01*
X129204563Y-53142336D01*
X129181666Y-53138710D01*
X129176017Y-53133061D01*
X129168420Y-53130593D01*
X129154792Y-53111836D01*
X129138401Y-53095445D01*
X129137151Y-53087555D01*
X129132456Y-53081093D01*
X129132456Y-53057907D01*
X129128830Y-53035013D01*
X129132456Y-53027896D01*
X129132456Y-53019907D01*
X129156606Y-52980497D01*
X129197608Y-52939495D01*
X129252124Y-52911719D01*
X129267611Y-52910500D01*
X129390549Y-52910500D01*
X129479977Y-52896335D01*
X129569409Y-52882171D01*
X129741639Y-52826211D01*
X129902994Y-52743996D01*
X130049501Y-52637553D01*
X130177553Y-52509501D01*
X130283996Y-52362994D01*
X130366211Y-52201639D01*
X130422171Y-52029409D01*
X130450500Y-51850546D01*
X130450500Y-51669454D01*
X130450500Y-51669450D01*
X130422171Y-51490593D01*
X130422171Y-51490591D01*
X130366211Y-51318361D01*
X130283996Y-51157006D01*
X130177553Y-51010499D01*
X130049501Y-50882447D01*
X129902994Y-50776004D01*
X129902993Y-50776003D01*
X129902991Y-50776002D01*
X129741637Y-50693788D01*
X129569406Y-50637828D01*
X129390549Y-50609500D01*
X129390546Y-50609500D01*
X129209454Y-50609500D01*
X129209451Y-50609500D01*
X129030593Y-50637828D01*
X128858362Y-50693788D01*
X128697008Y-50776002D01*
X128658021Y-50804328D01*
X128559444Y-50875947D01*
X128501256Y-50894854D01*
X128443065Y-50875947D01*
X128407101Y-50826447D01*
X128407101Y-50765261D01*
X128431252Y-50725851D01*
X128824920Y-50332182D01*
X128879437Y-50304404D01*
X128925512Y-50308029D01*
X129030591Y-50342171D01*
X129030592Y-50342171D01*
X129030595Y-50342172D01*
X129209451Y-50370500D01*
X129209454Y-50370500D01*
X129390549Y-50370500D01*
X129479977Y-50356335D01*
X129569409Y-50342171D01*
X129741639Y-50286211D01*
X129902994Y-50203996D01*
X130049501Y-50097553D01*
X130177553Y-49969501D01*
X130283996Y-49822994D01*
X130366211Y-49661639D01*
X130422171Y-49489409D01*
X130436335Y-49399977D01*
X130450500Y-49310549D01*
X130450500Y-49129450D01*
X130422171Y-48950593D01*
X130422171Y-48950591D01*
X130366211Y-48778361D01*
X130283996Y-48617006D01*
X130177553Y-48470499D01*
X130049501Y-48342447D01*
X129902994Y-48236004D01*
X129902993Y-48236003D01*
X129902991Y-48236002D01*
X129741637Y-48153788D01*
X129569406Y-48097828D01*
X129390549Y-48069500D01*
X129390546Y-48069500D01*
X129209454Y-48069500D01*
X129209451Y-48069500D01*
X129030593Y-48097828D01*
X128858362Y-48153788D01*
X128697008Y-48236002D01*
X128669636Y-48255889D01*
X128559449Y-48335945D01*
X128559446Y-48335947D01*
X128501255Y-48354854D01*
X128443064Y-48335947D01*
X128407100Y-48286446D01*
X128407100Y-48225261D01*
X128431249Y-48185852D01*
X128824922Y-47792179D01*
X128879437Y-47764404D01*
X128925512Y-47768029D01*
X129030591Y-47802171D01*
X129030592Y-47802171D01*
X129030595Y-47802172D01*
X129209451Y-47830500D01*
X129209454Y-47830500D01*
X129390549Y-47830500D01*
X129484179Y-47815670D01*
X129569409Y-47802171D01*
X129741639Y-47746211D01*
X129902994Y-47663996D01*
X130049501Y-47557553D01*
X130177553Y-47429501D01*
X130283996Y-47282994D01*
X130366211Y-47121639D01*
X130422171Y-46949409D01*
X130450500Y-46770546D01*
X130450500Y-46589454D01*
X130450500Y-46589450D01*
X130422171Y-46410593D01*
X130422171Y-46410591D01*
X130366211Y-46238361D01*
X130283996Y-46077006D01*
X130177553Y-45930499D01*
X130049501Y-45802447D01*
X129902994Y-45696004D01*
X129902993Y-45696003D01*
X129902991Y-45696002D01*
X129741637Y-45613788D01*
X129569406Y-45557828D01*
X129390549Y-45529500D01*
X129390546Y-45529500D01*
X129209454Y-45529500D01*
X129209451Y-45529500D01*
X129030593Y-45557828D01*
X128858362Y-45613788D01*
X128697008Y-45696002D01*
X128633936Y-45741827D01*
X128550499Y-45802447D01*
X128422447Y-45930499D01*
X128383547Y-45984041D01*
X128316002Y-46077008D01*
X128233788Y-46238362D01*
X128177828Y-46410593D01*
X128149500Y-46589450D01*
X128149500Y-46770549D01*
X128177828Y-46949406D01*
X128211968Y-47054482D01*
X128211967Y-47115668D01*
X128187817Y-47155078D01*
X124639508Y-50703389D01*
X124639507Y-50703390D01*
X124580200Y-50806112D01*
X124580200Y-50806113D01*
X124580201Y-50806114D01*
X124554223Y-50903067D01*
X124549500Y-50920692D01*
X124549500Y-53718836D01*
X124530593Y-53777027D01*
X124520504Y-53788840D01*
X124455889Y-53853454D01*
X124455885Y-53853458D01*
X124379228Y-53968182D01*
X124379222Y-53968193D01*
X124326420Y-54095670D01*
X124326420Y-54095672D01*
X124299500Y-54231004D01*
X124299500Y-54368995D01*
X124312450Y-54434098D01*
X124321390Y-54479043D01*
X124326420Y-54504327D01*
X124326420Y-54504329D01*
X124379222Y-54631806D01*
X124379228Y-54631817D01*
X124455885Y-54746541D01*
X124553458Y-54844114D01*
X124668182Y-54920771D01*
X124668193Y-54920777D01*
X124738605Y-54949942D01*
X124785131Y-54989678D01*
X124799415Y-55049173D01*
X124776001Y-55105701D01*
X124770724Y-55111410D01*
X123761632Y-56120504D01*
X123707115Y-56148281D01*
X123691628Y-56149500D01*
X122461204Y-56149500D01*
X122403013Y-56130593D01*
X122378888Y-56105501D01*
X122344114Y-56053458D01*
X122246550Y-55955893D01*
X122246541Y-55955885D01*
X122131817Y-55879228D01*
X122131806Y-55879222D01*
X122004328Y-55826420D01*
X121868995Y-55799500D01*
X121868993Y-55799500D01*
X121731007Y-55799500D01*
X121731004Y-55799500D01*
X121595672Y-55826420D01*
X121595670Y-55826420D01*
X121468193Y-55879222D01*
X121468182Y-55879228D01*
X121353458Y-55955885D01*
X121255885Y-56053458D01*
X121179228Y-56168182D01*
X121179222Y-56168193D01*
X121126420Y-56295670D01*
X121126420Y-56295672D01*
X121099500Y-56431004D01*
X121099500Y-56568995D01*
X121126420Y-56704327D01*
X121126420Y-56704329D01*
X121179222Y-56831806D01*
X121179228Y-56831817D01*
X121255885Y-56946541D01*
X121353458Y-57044114D01*
X121468182Y-57120771D01*
X121468193Y-57120777D01*
X121515283Y-57140282D01*
X121595672Y-57173580D01*
X121731007Y-57200500D01*
X121731008Y-57200500D01*
X121868992Y-57200500D01*
X121868993Y-57200500D01*
X122004328Y-57173580D01*
X122131811Y-57120775D01*
X122212014Y-57067184D01*
X122267016Y-57050500D01*
X123573389Y-57050500D01*
X123631580Y-57069407D01*
X123667544Y-57118907D01*
X123667544Y-57180093D01*
X123643393Y-57219504D01*
X123042393Y-57820504D01*
X122987876Y-57848281D01*
X122972389Y-57849500D01*
X122361204Y-57849500D01*
X122303013Y-57830593D01*
X122278888Y-57805501D01*
X122244114Y-57753458D01*
X122146550Y-57655893D01*
X122146541Y-57655885D01*
X122031817Y-57579228D01*
X122031806Y-57579222D01*
X121904328Y-57526420D01*
X121768995Y-57499500D01*
X121768993Y-57499500D01*
X121631007Y-57499500D01*
X121631004Y-57499500D01*
X121495672Y-57526420D01*
X121495670Y-57526420D01*
X121368193Y-57579222D01*
X121368182Y-57579228D01*
X121253458Y-57655885D01*
X121155885Y-57753458D01*
X121079228Y-57868182D01*
X121079222Y-57868193D01*
X121026420Y-57995670D01*
X121026420Y-57995672D01*
X120999500Y-58131004D01*
X120999500Y-58268995D01*
X121026420Y-58404327D01*
X121026420Y-58404329D01*
X121071273Y-58512615D01*
X121076073Y-58573612D01*
X121044104Y-58625781D01*
X120987576Y-58649195D01*
X120979809Y-58649500D01*
X120627611Y-58649500D01*
X120569420Y-58630593D01*
X120557607Y-58620504D01*
X120279496Y-58342393D01*
X120251719Y-58287876D01*
X120250500Y-58272389D01*
X120250500Y-57981164D01*
X120269407Y-57922973D01*
X120279496Y-57911160D01*
X120291156Y-57899500D01*
X120344114Y-57846542D01*
X120420775Y-57731811D01*
X120473580Y-57604328D01*
X120500500Y-57468993D01*
X120500500Y-57331007D01*
X120473580Y-57195672D01*
X120437848Y-57109406D01*
X120420777Y-57068193D01*
X120420771Y-57068182D01*
X120344114Y-56953458D01*
X120246541Y-56855885D01*
X120131817Y-56779228D01*
X120131806Y-56779222D01*
X120004328Y-56726420D01*
X119868995Y-56699500D01*
X119868993Y-56699500D01*
X119731007Y-56699500D01*
X119731004Y-56699500D01*
X119595672Y-56726420D01*
X119595670Y-56726420D01*
X119468193Y-56779222D01*
X119468182Y-56779228D01*
X119353458Y-56855885D01*
X119255885Y-56953458D01*
X119179228Y-57068182D01*
X119179222Y-57068193D01*
X119126420Y-57195670D01*
X119126420Y-57195672D01*
X119099500Y-57331004D01*
X119099500Y-57468995D01*
X119126420Y-57604327D01*
X119126420Y-57604329D01*
X119179222Y-57731806D01*
X119179228Y-57731818D01*
X119192555Y-57751762D01*
X119209164Y-57810651D01*
X119187986Y-57868054D01*
X119137113Y-57902047D01*
X119090928Y-57903862D01*
X119069000Y-57899500D01*
X119068993Y-57899500D01*
X118931007Y-57899500D01*
X118931003Y-57899500D01*
X118818814Y-57921816D01*
X118758052Y-57914624D01*
X118713123Y-57873091D01*
X118700500Y-57824718D01*
X118700500Y-55346900D01*
X118719407Y-55288709D01*
X118729490Y-55276902D01*
X125256896Y-48749495D01*
X125311413Y-48721719D01*
X125326900Y-48720500D01*
X125468992Y-48720500D01*
X125468993Y-48720500D01*
X125604328Y-48693580D01*
X125731811Y-48640775D01*
X125846542Y-48564114D01*
X125944114Y-48466542D01*
X126020775Y-48351811D01*
X126073580Y-48224328D01*
X126100500Y-48088993D01*
X126100500Y-47951007D01*
X126100500Y-47946900D01*
X126119407Y-47888709D01*
X126129496Y-47876896D01*
X127416942Y-46589450D01*
X128771552Y-45234839D01*
X128826067Y-45207064D01*
X128872146Y-45210690D01*
X129030591Y-45262171D01*
X129102136Y-45273502D01*
X129209451Y-45290500D01*
X129209454Y-45290500D01*
X129390549Y-45290500D01*
X129479977Y-45276335D01*
X129569409Y-45262171D01*
X129741639Y-45206211D01*
X129902994Y-45123996D01*
X130049501Y-45017553D01*
X130177553Y-44889501D01*
X130283996Y-44742994D01*
X130366211Y-44581639D01*
X130422171Y-44409409D01*
X130450500Y-44230546D01*
X130450500Y-44049454D01*
X130450500Y-44049450D01*
X130422171Y-43870593D01*
X130422171Y-43870591D01*
X130366211Y-43698361D01*
X130283996Y-43537006D01*
X130177553Y-43390499D01*
X130049501Y-43262447D01*
X129902994Y-43156004D01*
X129902993Y-43156003D01*
X129902991Y-43156002D01*
X129741637Y-43073788D01*
X129569406Y-43017828D01*
X129390549Y-42989500D01*
X129390546Y-42989500D01*
X129209454Y-42989500D01*
X129209451Y-42989500D01*
X129030593Y-43017828D01*
X128858362Y-43073788D01*
X128697008Y-43156002D01*
X128623752Y-43209225D01*
X128550499Y-43262447D01*
X128422447Y-43390499D01*
X128369225Y-43463752D01*
X128316002Y-43537008D01*
X128233788Y-43698362D01*
X128177828Y-43870593D01*
X128149500Y-44049450D01*
X128149500Y-44230549D01*
X128177828Y-44409406D01*
X128229309Y-44567851D01*
X128229308Y-44629036D01*
X128205158Y-44668447D01*
X125577402Y-47296203D01*
X125522885Y-47323980D01*
X125488085Y-47323297D01*
X125468997Y-47319500D01*
X125468993Y-47319500D01*
X125331007Y-47319500D01*
X125331004Y-47319500D01*
X125195672Y-47346420D01*
X125195670Y-47346420D01*
X125068193Y-47399222D01*
X125068182Y-47399228D01*
X124953458Y-47475885D01*
X124855885Y-47573458D01*
X124779228Y-47688182D01*
X124779222Y-47688193D01*
X124726420Y-47815670D01*
X124726420Y-47815672D01*
X124699500Y-47951004D01*
X124699500Y-48088997D01*
X124703297Y-48108085D01*
X124696105Y-48168846D01*
X124676203Y-48197402D01*
X118369504Y-54504102D01*
X118314987Y-54531879D01*
X118254555Y-54522308D01*
X118211290Y-54479043D01*
X118200500Y-54434098D01*
X118200500Y-53116950D01*
X118219407Y-53058759D01*
X118229490Y-53046952D01*
X121333272Y-49943169D01*
X121387787Y-49915394D01*
X121441159Y-49921710D01*
X121445672Y-49923580D01*
X121581007Y-49950500D01*
X121581008Y-49950500D01*
X121718992Y-49950500D01*
X121718993Y-49950500D01*
X121854328Y-49923580D01*
X121981811Y-49870775D01*
X122096542Y-49794114D01*
X122194114Y-49696542D01*
X122270775Y-49581811D01*
X122323580Y-49454328D01*
X122350500Y-49318993D01*
X122350500Y-49181007D01*
X122350021Y-49178601D01*
X122350152Y-49177489D01*
X122350023Y-49176171D01*
X122350312Y-49176142D01*
X122357206Y-49117844D01*
X122377110Y-49089281D01*
X128771551Y-42694839D01*
X128826066Y-42667064D01*
X128872145Y-42670690D01*
X128930657Y-42689701D01*
X129030591Y-42722171D01*
X129102136Y-42733502D01*
X129209451Y-42750500D01*
X129209454Y-42750500D01*
X129390549Y-42750500D01*
X129479977Y-42736335D01*
X129569409Y-42722171D01*
X129741639Y-42666211D01*
X129902994Y-42583996D01*
X130049501Y-42477553D01*
X130177553Y-42349501D01*
X130283996Y-42202994D01*
X130366211Y-42041639D01*
X130422171Y-41869409D01*
X130450500Y-41690546D01*
X130450500Y-41509454D01*
X130450499Y-41509453D01*
X130450288Y-41506759D01*
X130450500Y-41505876D01*
X130450500Y-41505564D01*
X130450575Y-41505564D01*
X130464577Y-41447265D01*
X130511107Y-41407532D01*
X130548984Y-41400000D01*
X131140500Y-41400000D01*
X131198691Y-41418907D01*
X131234655Y-41468407D01*
X131239500Y-41499000D01*
X131239500Y-105245139D01*
X131239023Y-105254842D01*
X131239023Y-105254843D01*
X131226246Y-105384565D01*
X131222460Y-105403599D01*
X131186039Y-105523663D01*
X131178612Y-105541593D01*
X131119469Y-105652242D01*
X131108687Y-105668379D01*
X131029090Y-105765367D01*
X131015367Y-105779090D01*
X130918379Y-105858687D01*
X130902242Y-105869469D01*
X130791593Y-105928612D01*
X130773663Y-105936039D01*
X130653599Y-105972460D01*
X130634565Y-105976246D01*
X130504843Y-105989023D01*
X130495139Y-105989500D01*
X99004861Y-105989500D01*
X98995157Y-105989023D01*
X98865434Y-105976246D01*
X98846400Y-105972460D01*
X98726336Y-105936039D01*
X98708406Y-105928612D01*
X98597757Y-105869469D01*
X98581620Y-105858687D01*
X98484632Y-105779090D01*
X98470909Y-105765367D01*
X98391312Y-105668379D01*
X98380530Y-105652242D01*
X98321387Y-105541593D01*
X98313960Y-105523663D01*
X98277539Y-105403599D01*
X98273753Y-105384564D01*
X98260977Y-105254842D01*
X98260500Y-105245139D01*
X98260500Y-102446532D01*
X100324500Y-102446532D01*
X100324500Y-102653467D01*
X100364869Y-102856418D01*
X100444058Y-103047597D01*
X100559020Y-103219651D01*
X100559023Y-103219655D01*
X100705345Y-103365977D01*
X100877402Y-103480941D01*
X101068580Y-103560130D01*
X101271535Y-103600500D01*
X101271536Y-103600500D01*
X101478464Y-103600500D01*
X101478465Y-103600500D01*
X101681420Y-103560130D01*
X101872598Y-103480941D01*
X101872598Y-103480940D01*
X101872600Y-103480940D01*
X101883513Y-103473648D01*
X101883537Y-103473632D01*
X101913629Y-103453524D01*
X102044655Y-103365977D01*
X102190977Y-103219655D01*
X102305941Y-103047598D01*
X102385130Y-102856420D01*
X102425500Y-102653465D01*
X102425500Y-102451619D01*
X102665000Y-102451619D01*
X102665000Y-102648380D01*
X102695778Y-102842710D01*
X102695779Y-102842714D01*
X102756576Y-103029826D01*
X102756578Y-103029829D01*
X102845907Y-103205148D01*
X102871319Y-103240125D01*
X103423871Y-102687572D01*
X103439755Y-102746853D01*
X103506898Y-102863147D01*
X103601853Y-102958102D01*
X103718147Y-103025245D01*
X103777424Y-103041128D01*
X103224874Y-103593678D01*
X103259860Y-103619097D01*
X103435170Y-103708421D01*
X103435173Y-103708423D01*
X103622285Y-103769220D01*
X103622289Y-103769221D01*
X103816620Y-103800000D01*
X104013380Y-103800000D01*
X104207710Y-103769221D01*
X104207714Y-103769220D01*
X104394826Y-103708423D01*
X104394829Y-103708421D01*
X104570142Y-103619096D01*
X104570148Y-103619092D01*
X104605125Y-103593679D01*
X104052574Y-103041128D01*
X104111853Y-103025245D01*
X104228147Y-102958102D01*
X104323102Y-102863147D01*
X104390245Y-102746853D01*
X104406128Y-102687575D01*
X104958678Y-103240125D01*
X104958679Y-103240125D01*
X104984092Y-103205148D01*
X104984096Y-103205142D01*
X105073421Y-103029829D01*
X105073423Y-103029826D01*
X105134220Y-102842714D01*
X105134221Y-102842710D01*
X105165000Y-102648380D01*
X105165000Y-102451619D01*
X110835000Y-102451619D01*
X110835000Y-102648380D01*
X110865778Y-102842710D01*
X110865779Y-102842714D01*
X110926576Y-103029826D01*
X110926578Y-103029829D01*
X111015907Y-103205148D01*
X111041319Y-103240125D01*
X111593871Y-102687572D01*
X111609755Y-102746853D01*
X111676898Y-102863147D01*
X111771853Y-102958102D01*
X111888147Y-103025245D01*
X111947424Y-103041128D01*
X111394874Y-103593678D01*
X111429860Y-103619097D01*
X111605170Y-103708421D01*
X111605173Y-103708423D01*
X111792285Y-103769220D01*
X111792289Y-103769221D01*
X111986620Y-103800000D01*
X112183380Y-103800000D01*
X112377710Y-103769221D01*
X112377714Y-103769220D01*
X112564826Y-103708423D01*
X112564829Y-103708421D01*
X112687766Y-103645783D01*
X112740142Y-103619096D01*
X112740148Y-103619092D01*
X112775125Y-103593679D01*
X112775125Y-103593678D01*
X112222575Y-103041128D01*
X112281853Y-103025245D01*
X112398147Y-102958102D01*
X112493102Y-102863147D01*
X112560245Y-102746853D01*
X112576128Y-102687575D01*
X113128678Y-103240125D01*
X113128679Y-103240125D01*
X113154092Y-103205148D01*
X113154096Y-103205142D01*
X113243421Y-103029829D01*
X113243423Y-103029826D01*
X113304220Y-102842714D01*
X113304221Y-102842710D01*
X113335000Y-102648380D01*
X113335000Y-102451622D01*
X113334999Y-102451616D01*
X113334194Y-102446532D01*
X113574500Y-102446532D01*
X113574500Y-102653467D01*
X113614869Y-102856418D01*
X113694058Y-103047597D01*
X113809020Y-103219651D01*
X113809023Y-103219655D01*
X113955345Y-103365977D01*
X114127402Y-103480941D01*
X114318580Y-103560130D01*
X114521535Y-103600500D01*
X114521536Y-103600500D01*
X114728464Y-103600500D01*
X114728465Y-103600500D01*
X114931420Y-103560130D01*
X115122598Y-103480941D01*
X115294655Y-103365977D01*
X115440977Y-103219655D01*
X115555941Y-103047598D01*
X115564678Y-103026506D01*
X118805000Y-103026506D01*
X118805000Y-103274999D01*
X118805001Y-103275000D01*
X119505000Y-103275000D01*
X119505000Y-103775000D01*
X118805001Y-103775000D01*
X118805000Y-103775001D01*
X118805000Y-104023493D01*
X118843429Y-104216688D01*
X118843429Y-104216690D01*
X118918808Y-104398673D01*
X118918814Y-104398685D01*
X119028249Y-104562462D01*
X119028252Y-104562466D01*
X119167533Y-104701747D01*
X119167537Y-104701750D01*
X119331314Y-104811185D01*
X119331326Y-104811191D01*
X119513304Y-104886568D01*
X119513315Y-104886571D01*
X119555000Y-104894862D01*
X119555000Y-104091988D01*
X119564940Y-104109205D01*
X119620795Y-104165060D01*
X119689204Y-104204556D01*
X119765504Y-104225000D01*
X119844496Y-104225000D01*
X119920796Y-104204556D01*
X119989205Y-104165060D01*
X120045060Y-104109205D01*
X120055000Y-104091988D01*
X120055000Y-104894861D01*
X120096684Y-104886571D01*
X120096695Y-104886568D01*
X120278673Y-104811191D01*
X120278685Y-104811185D01*
X120442462Y-104701750D01*
X120442466Y-104701747D01*
X120581747Y-104562466D01*
X120581750Y-104562462D01*
X120691185Y-104398685D01*
X120691191Y-104398673D01*
X120766570Y-104216690D01*
X120766570Y-104216688D01*
X120804999Y-104023493D01*
X120805000Y-104023490D01*
X120805000Y-103775001D01*
X120804999Y-103775000D01*
X120105000Y-103775000D01*
X120105000Y-103275000D01*
X120804999Y-103275000D01*
X120805000Y-103274999D01*
X120805000Y-103026509D01*
X120804999Y-103026506D01*
X127445000Y-103026506D01*
X127445000Y-103274999D01*
X127445001Y-103275000D01*
X128145000Y-103275000D01*
X128145000Y-103775000D01*
X127445001Y-103775000D01*
X127445000Y-103775001D01*
X127445000Y-104023493D01*
X127483429Y-104216688D01*
X127483429Y-104216690D01*
X127558808Y-104398673D01*
X127558814Y-104398685D01*
X127668249Y-104562462D01*
X127668252Y-104562466D01*
X127807533Y-104701747D01*
X127807537Y-104701750D01*
X127971314Y-104811185D01*
X127971326Y-104811191D01*
X128153304Y-104886568D01*
X128153315Y-104886571D01*
X128195000Y-104894862D01*
X128195000Y-104091988D01*
X128204940Y-104109205D01*
X128260795Y-104165060D01*
X128329204Y-104204556D01*
X128405504Y-104225000D01*
X128484496Y-104225000D01*
X128560796Y-104204556D01*
X128629205Y-104165060D01*
X128685060Y-104109205D01*
X128695000Y-104091988D01*
X128695000Y-104894861D01*
X128736684Y-104886571D01*
X128736695Y-104886568D01*
X128918673Y-104811191D01*
X128918685Y-104811185D01*
X129082462Y-104701750D01*
X129082466Y-104701747D01*
X129221747Y-104562466D01*
X129221750Y-104562462D01*
X129331185Y-104398685D01*
X129331191Y-104398673D01*
X129406570Y-104216690D01*
X129406570Y-104216688D01*
X129444999Y-104023493D01*
X129445000Y-104023490D01*
X129445000Y-103775001D01*
X129444999Y-103775000D01*
X128745000Y-103775000D01*
X128745000Y-103275000D01*
X129444999Y-103275000D01*
X129445000Y-103274999D01*
X129445000Y-103026509D01*
X129444999Y-103026506D01*
X129406570Y-102833311D01*
X129406570Y-102833309D01*
X129331191Y-102651326D01*
X129331185Y-102651314D01*
X129221750Y-102487537D01*
X129221747Y-102487533D01*
X129082466Y-102348252D01*
X129082462Y-102348249D01*
X128918685Y-102238814D01*
X128918673Y-102238808D01*
X128736691Y-102163429D01*
X128695000Y-102155136D01*
X128695000Y-102958011D01*
X128685060Y-102940795D01*
X128629205Y-102884940D01*
X128560796Y-102845444D01*
X128484496Y-102825000D01*
X128405504Y-102825000D01*
X128329204Y-102845444D01*
X128260795Y-102884940D01*
X128204940Y-102940795D01*
X128195000Y-102958011D01*
X128195000Y-102155136D01*
X128153308Y-102163429D01*
X127971326Y-102238808D01*
X127971314Y-102238814D01*
X127807537Y-102348249D01*
X127807533Y-102348252D01*
X127668252Y-102487533D01*
X127668249Y-102487537D01*
X127558814Y-102651314D01*
X127558808Y-102651326D01*
X127483429Y-102833309D01*
X127483429Y-102833311D01*
X127445000Y-103026506D01*
X120804999Y-103026506D01*
X120766570Y-102833311D01*
X120766570Y-102833309D01*
X120691191Y-102651326D01*
X120691185Y-102651314D01*
X120581750Y-102487537D01*
X120581747Y-102487533D01*
X120442466Y-102348252D01*
X120442462Y-102348249D01*
X120278685Y-102238814D01*
X120278673Y-102238808D01*
X120096691Y-102163429D01*
X120055000Y-102155136D01*
X120055000Y-102958011D01*
X120045060Y-102940795D01*
X119989205Y-102884940D01*
X119920796Y-102845444D01*
X119844496Y-102825000D01*
X119765504Y-102825000D01*
X119689204Y-102845444D01*
X119620795Y-102884940D01*
X119564940Y-102940795D01*
X119555000Y-102958011D01*
X119555000Y-102155136D01*
X119513308Y-102163429D01*
X119331326Y-102238808D01*
X119331314Y-102238814D01*
X119167537Y-102348249D01*
X119167533Y-102348252D01*
X119028252Y-102487533D01*
X119028249Y-102487537D01*
X118918814Y-102651314D01*
X118918808Y-102651326D01*
X118843429Y-102833309D01*
X118843429Y-102833311D01*
X118805000Y-103026506D01*
X115564678Y-103026506D01*
X115635130Y-102856420D01*
X115675500Y-102653465D01*
X115675500Y-102446535D01*
X115635130Y-102243580D01*
X115555941Y-102052402D01*
X115440977Y-101880345D01*
X115294655Y-101734023D01*
X115294651Y-101734020D01*
X115122597Y-101619058D01*
X114931418Y-101539869D01*
X114728467Y-101499500D01*
X114728465Y-101499500D01*
X114521535Y-101499500D01*
X114521532Y-101499500D01*
X114318581Y-101539869D01*
X114127402Y-101619058D01*
X113955348Y-101734020D01*
X113809020Y-101880348D01*
X113694058Y-102052402D01*
X113614869Y-102243581D01*
X113574500Y-102446532D01*
X113334194Y-102446532D01*
X113304221Y-102257289D01*
X113304220Y-102257285D01*
X113243423Y-102070173D01*
X113243421Y-102070170D01*
X113154097Y-101894860D01*
X113128678Y-101859874D01*
X112576128Y-102412424D01*
X112560245Y-102353147D01*
X112493102Y-102236853D01*
X112398147Y-102141898D01*
X112281853Y-102074755D01*
X112222572Y-102058871D01*
X112775125Y-101506319D01*
X112740148Y-101480907D01*
X112564829Y-101391578D01*
X112564826Y-101391576D01*
X112377714Y-101330779D01*
X112377710Y-101330778D01*
X112183380Y-101300000D01*
X111986620Y-101300000D01*
X111792289Y-101330778D01*
X111792285Y-101330779D01*
X111605173Y-101391576D01*
X111605170Y-101391578D01*
X111429856Y-101480904D01*
X111394873Y-101506319D01*
X111947425Y-102058871D01*
X111888147Y-102074755D01*
X111771853Y-102141898D01*
X111676898Y-102236853D01*
X111609755Y-102353147D01*
X111593871Y-102412425D01*
X111041319Y-101859873D01*
X111015904Y-101894856D01*
X110926578Y-102070170D01*
X110926576Y-102070173D01*
X110865779Y-102257285D01*
X110865778Y-102257289D01*
X110835000Y-102451619D01*
X105165000Y-102451619D01*
X105134221Y-102257289D01*
X105134220Y-102257285D01*
X105073423Y-102070173D01*
X105073421Y-102070170D01*
X104984097Y-101894860D01*
X104958678Y-101859874D01*
X104406128Y-102412424D01*
X104390245Y-102353147D01*
X104323102Y-102236853D01*
X104228147Y-102141898D01*
X104111853Y-102074755D01*
X104052572Y-102058871D01*
X104605125Y-101506319D01*
X104570148Y-101480907D01*
X104394829Y-101391578D01*
X104394826Y-101391576D01*
X104207714Y-101330779D01*
X104207710Y-101330778D01*
X104013380Y-101300000D01*
X103816620Y-101300000D01*
X103622289Y-101330778D01*
X103622285Y-101330779D01*
X103435173Y-101391576D01*
X103435170Y-101391578D01*
X103259856Y-101480904D01*
X103224873Y-101506319D01*
X103777425Y-102058871D01*
X103718147Y-102074755D01*
X103601853Y-102141898D01*
X103506898Y-102236853D01*
X103439755Y-102353147D01*
X103423871Y-102412425D01*
X102871319Y-101859873D01*
X102845904Y-101894856D01*
X102756578Y-102070170D01*
X102756576Y-102070173D01*
X102695779Y-102257285D01*
X102695778Y-102257289D01*
X102665000Y-102451619D01*
X102425500Y-102451619D01*
X102425500Y-102446535D01*
X102385130Y-102243580D01*
X102305941Y-102052402D01*
X102190977Y-101880345D01*
X102044655Y-101734023D01*
X101872598Y-101619059D01*
X101681420Y-101539870D01*
X101681418Y-101539869D01*
X101478467Y-101499500D01*
X101478465Y-101499500D01*
X101271535Y-101499500D01*
X101271532Y-101499500D01*
X101068581Y-101539869D01*
X100877402Y-101619058D01*
X100705348Y-101734020D01*
X100559020Y-101880348D01*
X100444058Y-102052402D01*
X100364869Y-102243581D01*
X100324500Y-102446532D01*
X98260500Y-102446532D01*
X98260500Y-94485297D01*
X98505000Y-94485297D01*
X98505000Y-94714702D01*
X98534942Y-94942133D01*
X98534942Y-94942138D01*
X98594315Y-95163718D01*
X98594319Y-95163731D01*
X98682101Y-95375658D01*
X98796805Y-95574332D01*
X98853381Y-95648062D01*
X99527672Y-94973770D01*
X99532757Y-94986047D01*
X99621949Y-95119532D01*
X99735468Y-95233051D01*
X99868953Y-95322243D01*
X99881226Y-95327326D01*
X99206935Y-96001618D01*
X99280667Y-96058194D01*
X99479341Y-96172898D01*
X99691268Y-96260680D01*
X99691281Y-96260684D01*
X99912863Y-96320057D01*
X100140297Y-96349999D01*
X100140300Y-96350000D01*
X100369700Y-96350000D01*
X100369702Y-96349999D01*
X100597133Y-96320057D01*
X100597138Y-96320057D01*
X100748901Y-96279392D01*
X100810002Y-96282594D01*
X100857552Y-96321100D01*
X100873388Y-96380200D01*
X100853066Y-96435286D01*
X100722235Y-96605788D01*
X100599302Y-96818715D01*
X100505222Y-97045845D01*
X100441590Y-97283325D01*
X100441590Y-97283330D01*
X100409500Y-97527072D01*
X100409500Y-97772927D01*
X100441590Y-98016669D01*
X100441590Y-98016674D01*
X100505222Y-98254154D01*
X100599302Y-98481284D01*
X100599304Y-98481288D01*
X100599306Y-98481292D01*
X100722233Y-98694208D01*
X100722235Y-98694211D01*
X100871893Y-98889249D01*
X100871895Y-98889251D01*
X100871899Y-98889256D01*
X101045744Y-99063101D01*
X101045748Y-99063104D01*
X101045750Y-99063106D01*
X101061251Y-99075000D01*
X101240792Y-99212767D01*
X101453708Y-99335694D01*
X101680847Y-99429778D01*
X101918323Y-99493409D01*
X102162073Y-99525500D01*
X102162074Y-99525500D01*
X102407926Y-99525500D01*
X102407927Y-99525500D01*
X102651677Y-99493409D01*
X102889153Y-99429778D01*
X103116292Y-99335694D01*
X103329208Y-99212767D01*
X103524256Y-99063101D01*
X103698101Y-98889256D01*
X103847767Y-98694208D01*
X103970694Y-98481292D01*
X104064778Y-98254153D01*
X104128409Y-98016677D01*
X104160500Y-97772927D01*
X104160500Y-97527073D01*
X104160500Y-97527072D01*
X111839500Y-97527072D01*
X111839500Y-97772927D01*
X111871590Y-98016669D01*
X111871590Y-98016674D01*
X111935222Y-98254154D01*
X112029302Y-98481284D01*
X112029304Y-98481288D01*
X112029306Y-98481292D01*
X112152233Y-98694208D01*
X112152235Y-98694211D01*
X112301893Y-98889249D01*
X112301895Y-98889251D01*
X112301899Y-98889256D01*
X112475744Y-99063101D01*
X112475748Y-99063104D01*
X112475750Y-99063106D01*
X112491251Y-99075000D01*
X112670792Y-99212767D01*
X112883708Y-99335694D01*
X113110847Y-99429778D01*
X113348323Y-99493409D01*
X113592073Y-99525500D01*
X113592074Y-99525500D01*
X113837926Y-99525500D01*
X113837927Y-99525500D01*
X114081677Y-99493409D01*
X114319153Y-99429778D01*
X114546292Y-99335694D01*
X114759208Y-99212767D01*
X114954256Y-99063101D01*
X115128101Y-98889256D01*
X115277767Y-98694208D01*
X115287987Y-98676506D01*
X118805000Y-98676506D01*
X118805000Y-99074999D01*
X118805001Y-99075000D01*
X119505000Y-99075000D01*
X119505000Y-99575000D01*
X118805001Y-99575000D01*
X118805000Y-99575001D01*
X118805000Y-99973493D01*
X118843429Y-100166688D01*
X118843429Y-100166690D01*
X118918808Y-100348673D01*
X118918814Y-100348685D01*
X119028249Y-100512462D01*
X119028252Y-100512466D01*
X119167533Y-100651747D01*
X119167537Y-100651750D01*
X119331314Y-100761185D01*
X119331326Y-100761191D01*
X119513304Y-100836568D01*
X119513315Y-100836571D01*
X119555000Y-100844862D01*
X119555000Y-100041988D01*
X119564940Y-100059205D01*
X119620795Y-100115060D01*
X119689204Y-100154556D01*
X119765504Y-100175000D01*
X119844496Y-100175000D01*
X119920796Y-100154556D01*
X119989205Y-100115060D01*
X120045060Y-100059205D01*
X120055000Y-100041988D01*
X120055000Y-100844861D01*
X120096684Y-100836571D01*
X120096695Y-100836568D01*
X120278673Y-100761191D01*
X120278685Y-100761185D01*
X120442462Y-100651750D01*
X120442466Y-100651747D01*
X120581747Y-100512466D01*
X120581750Y-100512462D01*
X120691185Y-100348685D01*
X120691189Y-100348675D01*
X120702910Y-100320379D01*
X120742645Y-100273852D01*
X120802140Y-100259567D01*
X120858668Y-100282980D01*
X120864365Y-100288245D01*
X120881635Y-100305515D01*
X120881637Y-100305516D01*
X120881639Y-100305518D01*
X121012861Y-100381279D01*
X121012859Y-100381279D01*
X121012863Y-100381280D01*
X121012865Y-100381281D01*
X121159234Y-100420500D01*
X121159236Y-100420500D01*
X121310764Y-100420500D01*
X121310766Y-100420500D01*
X121457135Y-100381281D01*
X121457137Y-100381279D01*
X121457139Y-100381279D01*
X121588360Y-100305518D01*
X121588360Y-100305517D01*
X121588365Y-100305515D01*
X121695515Y-100198365D01*
X121720808Y-100154556D01*
X121771279Y-100067139D01*
X121771279Y-100067137D01*
X121771281Y-100067135D01*
X121810500Y-99920766D01*
X121810500Y-99769234D01*
X126439500Y-99769234D01*
X126439500Y-99920766D01*
X126474086Y-100049847D01*
X126478720Y-100067139D01*
X126554481Y-100198360D01*
X126554483Y-100198362D01*
X126554485Y-100198365D01*
X126661635Y-100305515D01*
X126661637Y-100305516D01*
X126661639Y-100305518D01*
X126792861Y-100381279D01*
X126792859Y-100381279D01*
X126792863Y-100381280D01*
X126792865Y-100381281D01*
X126939234Y-100420500D01*
X126939236Y-100420500D01*
X127090764Y-100420500D01*
X127090766Y-100420500D01*
X127237135Y-100381281D01*
X127237137Y-100381279D01*
X127237139Y-100381279D01*
X127368360Y-100305518D01*
X127368360Y-100305517D01*
X127368365Y-100305515D01*
X127385621Y-100288258D01*
X127440135Y-100260481D01*
X127500567Y-100270051D01*
X127543833Y-100313315D01*
X127547088Y-100320377D01*
X127558809Y-100348675D01*
X127558809Y-100348676D01*
X127668249Y-100512462D01*
X127668252Y-100512466D01*
X127807533Y-100651747D01*
X127807537Y-100651750D01*
X127971314Y-100761185D01*
X127971326Y-100761191D01*
X128153304Y-100836568D01*
X128153315Y-100836571D01*
X128195000Y-100844862D01*
X128195000Y-100041988D01*
X128204940Y-100059205D01*
X128260795Y-100115060D01*
X128329204Y-100154556D01*
X128405504Y-100175000D01*
X128484496Y-100175000D01*
X128560796Y-100154556D01*
X128629205Y-100115060D01*
X128685060Y-100059205D01*
X128695000Y-100041988D01*
X128695000Y-100844861D01*
X128736684Y-100836571D01*
X128736695Y-100836568D01*
X128918673Y-100761191D01*
X128918685Y-100761185D01*
X129082462Y-100651750D01*
X129082466Y-100651747D01*
X129221747Y-100512466D01*
X129221750Y-100512462D01*
X129331185Y-100348685D01*
X129331191Y-100348673D01*
X129406570Y-100166690D01*
X129406570Y-100166688D01*
X129444999Y-99973493D01*
X129445000Y-99973490D01*
X129445000Y-99575001D01*
X129444999Y-99575000D01*
X128745000Y-99575000D01*
X128745000Y-99075000D01*
X129444999Y-99075000D01*
X129445000Y-99074999D01*
X129445000Y-98676509D01*
X129444999Y-98676506D01*
X129406570Y-98483311D01*
X129406570Y-98483309D01*
X129331191Y-98301326D01*
X129331185Y-98301314D01*
X129221750Y-98137537D01*
X129221747Y-98137533D01*
X129082466Y-97998252D01*
X129082462Y-97998249D01*
X128918685Y-97888814D01*
X128918673Y-97888808D01*
X128736691Y-97813429D01*
X128695000Y-97805136D01*
X128695000Y-98608011D01*
X128685060Y-98590795D01*
X128629205Y-98534940D01*
X128560796Y-98495444D01*
X128484496Y-98475000D01*
X128405504Y-98475000D01*
X128329204Y-98495444D01*
X128260795Y-98534940D01*
X128204940Y-98590795D01*
X128195000Y-98608011D01*
X128195000Y-97805136D01*
X128153308Y-97813429D01*
X127971326Y-97888808D01*
X127971314Y-97888814D01*
X127807537Y-97998249D01*
X127807533Y-97998252D01*
X127668252Y-98137533D01*
X127668249Y-98137537D01*
X127558814Y-98301314D01*
X127558808Y-98301326D01*
X127483429Y-98483309D01*
X127483429Y-98483311D01*
X127445000Y-98676506D01*
X127445000Y-99074999D01*
X127445001Y-99075000D01*
X128145000Y-99075000D01*
X128145000Y-99575000D01*
X127580803Y-99575000D01*
X127522612Y-99556093D01*
X127495066Y-99525499D01*
X127475516Y-99491637D01*
X127475515Y-99491635D01*
X127368365Y-99384485D01*
X127368362Y-99384483D01*
X127368360Y-99384481D01*
X127237138Y-99308720D01*
X127237140Y-99308720D01*
X127180347Y-99293503D01*
X127090766Y-99269500D01*
X126939234Y-99269500D01*
X126849652Y-99293503D01*
X126792860Y-99308720D01*
X126661639Y-99384481D01*
X126554481Y-99491639D01*
X126478720Y-99622860D01*
X126478719Y-99622865D01*
X126439500Y-99769234D01*
X121810500Y-99769234D01*
X121771281Y-99622865D01*
X121771279Y-99622862D01*
X121771279Y-99622860D01*
X121695518Y-99491639D01*
X121695516Y-99491637D01*
X121695515Y-99491635D01*
X121588365Y-99384485D01*
X121588362Y-99384483D01*
X121588360Y-99384481D01*
X121457138Y-99308720D01*
X121457140Y-99308720D01*
X121400347Y-99293503D01*
X121310766Y-99269500D01*
X121159234Y-99269500D01*
X121069652Y-99293503D01*
X121012860Y-99308720D01*
X120881639Y-99384481D01*
X120774483Y-99491637D01*
X120754934Y-99525499D01*
X120709465Y-99566440D01*
X120669197Y-99575000D01*
X120105000Y-99575000D01*
X120105000Y-99075000D01*
X120804999Y-99075000D01*
X120805000Y-99074999D01*
X120805000Y-98676509D01*
X120804999Y-98676506D01*
X120766570Y-98483311D01*
X120766570Y-98483309D01*
X120691191Y-98301326D01*
X120691185Y-98301314D01*
X120581750Y-98137537D01*
X120581747Y-98137533D01*
X120442466Y-97998252D01*
X120442462Y-97998249D01*
X120278685Y-97888814D01*
X120278673Y-97888808D01*
X120096691Y-97813429D01*
X120055000Y-97805136D01*
X120055000Y-98608011D01*
X120045060Y-98590795D01*
X119989205Y-98534940D01*
X119920796Y-98495444D01*
X119844496Y-98475000D01*
X119765504Y-98475000D01*
X119689204Y-98495444D01*
X119620795Y-98534940D01*
X119564940Y-98590795D01*
X119555000Y-98608011D01*
X119555000Y-97805136D01*
X119513308Y-97813429D01*
X119331326Y-97888808D01*
X119331314Y-97888814D01*
X119167537Y-97998249D01*
X119167533Y-97998252D01*
X119028252Y-98137533D01*
X119028249Y-98137537D01*
X118918814Y-98301314D01*
X118918808Y-98301326D01*
X118843429Y-98483309D01*
X118843429Y-98483311D01*
X118805000Y-98676506D01*
X115287987Y-98676506D01*
X115400694Y-98481292D01*
X115494778Y-98254153D01*
X115558409Y-98016677D01*
X115590500Y-97772927D01*
X115590500Y-97527073D01*
X115558409Y-97283323D01*
X115494778Y-97045847D01*
X115400694Y-96818708D01*
X115277767Y-96605792D01*
X115146933Y-96435286D01*
X115126509Y-96377611D01*
X115143886Y-96318945D01*
X115192428Y-96281698D01*
X115251098Y-96279392D01*
X115402864Y-96320057D01*
X115630297Y-96349999D01*
X115630300Y-96350000D01*
X115859700Y-96350000D01*
X115859702Y-96349999D01*
X116087133Y-96320057D01*
X116087138Y-96320057D01*
X116308718Y-96260684D01*
X116308731Y-96260680D01*
X116520658Y-96172898D01*
X116719336Y-96058191D01*
X116793064Y-96001618D01*
X116118773Y-95327327D01*
X116131047Y-95322243D01*
X116264532Y-95233051D01*
X116378051Y-95119532D01*
X116467243Y-94986047D01*
X116472327Y-94973773D01*
X117146618Y-95648064D01*
X117203191Y-95574336D01*
X117317898Y-95375658D01*
X117405680Y-95163731D01*
X117405684Y-95163718D01*
X117465057Y-94942138D01*
X117465057Y-94942133D01*
X117494999Y-94714702D01*
X117495000Y-94714700D01*
X117495000Y-94485300D01*
X117494999Y-94485297D01*
X117465057Y-94257866D01*
X117465057Y-94257861D01*
X117405684Y-94036281D01*
X117405680Y-94036268D01*
X117317898Y-93824341D01*
X117203194Y-93625667D01*
X117146617Y-93551935D01*
X116472326Y-94226226D01*
X116467243Y-94213953D01*
X116378051Y-94080468D01*
X116264532Y-93966949D01*
X116131047Y-93877757D01*
X116118770Y-93872672D01*
X116793062Y-93198381D01*
X116719332Y-93141805D01*
X116520658Y-93027101D01*
X116308731Y-92939319D01*
X116308718Y-92939315D01*
X116087136Y-92879942D01*
X115859702Y-92850000D01*
X115630297Y-92850000D01*
X115402866Y-92879942D01*
X115402861Y-92879942D01*
X115181281Y-92939315D01*
X115181268Y-92939319D01*
X114969341Y-93027101D01*
X114770662Y-93141808D01*
X114696935Y-93198380D01*
X115371227Y-93872672D01*
X115358953Y-93877757D01*
X115225468Y-93966949D01*
X115111949Y-94080468D01*
X115022757Y-94213953D01*
X115017672Y-94226227D01*
X114343380Y-93551935D01*
X114286808Y-93625662D01*
X114172101Y-93824341D01*
X114084319Y-94036268D01*
X114084315Y-94036281D01*
X114024942Y-94257861D01*
X114024942Y-94257866D01*
X113995000Y-94485297D01*
X113995000Y-94714702D01*
X114024942Y-94942133D01*
X114024942Y-94942138D01*
X114084315Y-95163718D01*
X114084319Y-95163731D01*
X114172101Y-95375658D01*
X114286808Y-95574337D01*
X114386697Y-95704516D01*
X114407121Y-95762192D01*
X114389743Y-95820858D01*
X114341201Y-95858105D01*
X114282533Y-95860409D01*
X114081677Y-95806591D01*
X114081674Y-95806590D01*
X114081672Y-95806590D01*
X113837927Y-95774500D01*
X113592073Y-95774500D01*
X113592072Y-95774500D01*
X113348330Y-95806590D01*
X113348325Y-95806590D01*
X113110845Y-95870222D01*
X112883715Y-95964302D01*
X112670788Y-96087235D01*
X112475750Y-96236893D01*
X112301893Y-96410750D01*
X112152235Y-96605788D01*
X112029302Y-96818715D01*
X111935222Y-97045845D01*
X111871590Y-97283325D01*
X111871590Y-97283330D01*
X111839500Y-97527072D01*
X104160500Y-97527072D01*
X104128409Y-97283323D01*
X104064778Y-97045847D01*
X103970694Y-96818708D01*
X103847767Y-96605792D01*
X103698101Y-96410744D01*
X103524256Y-96236899D01*
X103524251Y-96236895D01*
X103524249Y-96236893D01*
X103329211Y-96087235D01*
X103329208Y-96087233D01*
X103116292Y-95964306D01*
X103116288Y-95964304D01*
X103116284Y-95964302D01*
X102889154Y-95870222D01*
X102784440Y-95842164D01*
X102651677Y-95806591D01*
X102651674Y-95806590D01*
X102651672Y-95806590D01*
X102407927Y-95774500D01*
X102162073Y-95774500D01*
X102162072Y-95774500D01*
X101918330Y-95806590D01*
X101918325Y-95806590D01*
X101782447Y-95842998D01*
X101717466Y-95860409D01*
X101656365Y-95857207D01*
X101608815Y-95818702D01*
X101592980Y-95759601D01*
X101613302Y-95704516D01*
X101713191Y-95574337D01*
X101827898Y-95375658D01*
X101915680Y-95163731D01*
X101915684Y-95163718D01*
X101975057Y-94942138D01*
X101975057Y-94942133D01*
X102004999Y-94714702D01*
X102005000Y-94714700D01*
X102005000Y-94485300D01*
X102004999Y-94485297D01*
X101975057Y-94257866D01*
X101975057Y-94257861D01*
X101915684Y-94036281D01*
X101915680Y-94036268D01*
X101827898Y-93824341D01*
X101713194Y-93625667D01*
X101656617Y-93551935D01*
X100982326Y-94226225D01*
X100977243Y-94213953D01*
X100888051Y-94080468D01*
X100774532Y-93966949D01*
X100641047Y-93877757D01*
X100628770Y-93872672D01*
X101303062Y-93198381D01*
X101229332Y-93141805D01*
X101030658Y-93027101D01*
X100818731Y-92939319D01*
X100818718Y-92939315D01*
X100597136Y-92879942D01*
X100369702Y-92850000D01*
X100140297Y-92850000D01*
X99912866Y-92879942D01*
X99912861Y-92879942D01*
X99691281Y-92939315D01*
X99691268Y-92939319D01*
X99479341Y-93027101D01*
X99280662Y-93141808D01*
X99206935Y-93198380D01*
X99881227Y-93872672D01*
X99868953Y-93877757D01*
X99735468Y-93966949D01*
X99621949Y-94080468D01*
X99532757Y-94213953D01*
X99527672Y-94226227D01*
X98853380Y-93551935D01*
X98796808Y-93625662D01*
X98682101Y-93824341D01*
X98594319Y-94036268D01*
X98594315Y-94036281D01*
X98534942Y-94257861D01*
X98534942Y-94257866D01*
X98505000Y-94485297D01*
X98260500Y-94485297D01*
X98260500Y-90747361D01*
X102509500Y-90747361D01*
X102509500Y-91832638D01*
X102520133Y-91921182D01*
X102520134Y-91921184D01*
X102575700Y-92062090D01*
X102667221Y-92182779D01*
X102787910Y-92274300D01*
X102928816Y-92329866D01*
X103017366Y-92340500D01*
X103017368Y-92340500D01*
X104102632Y-92340500D01*
X104102634Y-92340500D01*
X104191184Y-92329866D01*
X104332090Y-92274300D01*
X104452779Y-92182779D01*
X104544300Y-92062090D01*
X104599866Y-91921184D01*
X104610500Y-91832634D01*
X104610500Y-91186532D01*
X105049500Y-91186532D01*
X105049500Y-91393467D01*
X105089869Y-91596418D01*
X105169058Y-91787597D01*
X105284020Y-91959651D01*
X105284023Y-91959655D01*
X105430345Y-92105977D01*
X105602402Y-92220941D01*
X105793580Y-92300130D01*
X105996535Y-92340500D01*
X105996536Y-92340500D01*
X106203464Y-92340500D01*
X106203465Y-92340500D01*
X106406420Y-92300130D01*
X106597598Y-92220941D01*
X106769655Y-92105977D01*
X106915977Y-91959655D01*
X107030941Y-91787598D01*
X107110130Y-91596420D01*
X107150500Y-91393465D01*
X107150500Y-91186535D01*
X107110130Y-90983580D01*
X107030941Y-90792402D01*
X106915977Y-90620345D01*
X106769655Y-90474023D01*
X106769651Y-90474020D01*
X106597597Y-90359058D01*
X106406418Y-90279869D01*
X106203467Y-90239500D01*
X106203465Y-90239500D01*
X105996535Y-90239500D01*
X105996532Y-90239500D01*
X105793581Y-90279869D01*
X105602402Y-90359058D01*
X105430348Y-90474020D01*
X105284020Y-90620348D01*
X105169058Y-90792402D01*
X105089869Y-90983581D01*
X105049500Y-91186532D01*
X104610500Y-91186532D01*
X104610500Y-90747366D01*
X104599866Y-90658816D01*
X104544300Y-90517910D01*
X104452779Y-90397221D01*
X104332090Y-90305700D01*
X104212111Y-90258386D01*
X104191182Y-90250133D01*
X104102638Y-90239500D01*
X104102634Y-90239500D01*
X103017366Y-90239500D01*
X103017361Y-90239500D01*
X102928817Y-90250133D01*
X102896608Y-90262835D01*
X102787910Y-90305700D01*
X102787907Y-90305701D01*
X102787907Y-90305702D01*
X102667224Y-90397218D01*
X102667218Y-90397224D01*
X102608980Y-90474023D01*
X102575700Y-90517910D01*
X102543790Y-90598826D01*
X102520133Y-90658817D01*
X102509500Y-90747361D01*
X98260500Y-90747361D01*
X98260500Y-88646532D01*
X103769500Y-88646532D01*
X103769500Y-88853467D01*
X103809869Y-89056418D01*
X103889058Y-89247597D01*
X104004020Y-89419651D01*
X104004023Y-89419655D01*
X104150345Y-89565977D01*
X104322402Y-89680941D01*
X104513580Y-89760130D01*
X104716535Y-89800500D01*
X104716536Y-89800500D01*
X104923464Y-89800500D01*
X104923465Y-89800500D01*
X105126420Y-89760130D01*
X105317598Y-89680941D01*
X105489655Y-89565977D01*
X105635977Y-89419655D01*
X105750941Y-89247598D01*
X105830130Y-89056420D01*
X105870500Y-88853465D01*
X105870500Y-88646535D01*
X105830130Y-88443580D01*
X105750941Y-88252402D01*
X105635977Y-88080345D01*
X105489655Y-87934023D01*
X105489651Y-87934020D01*
X105317597Y-87819058D01*
X105126418Y-87739869D01*
X104923467Y-87699500D01*
X104923465Y-87699500D01*
X104716535Y-87699500D01*
X104716532Y-87699500D01*
X104513581Y-87739869D01*
X104322402Y-87819058D01*
X104150348Y-87934020D01*
X104004020Y-88080348D01*
X103889058Y-88252402D01*
X103809869Y-88443581D01*
X103769500Y-88646532D01*
X98260500Y-88646532D01*
X98260500Y-83620943D01*
X104399500Y-83620943D01*
X104399500Y-83779057D01*
X104440423Y-83931784D01*
X104486237Y-84011136D01*
X104499500Y-84060636D01*
X104499500Y-86324108D01*
X104499500Y-86455892D01*
X104529579Y-86568151D01*
X104533609Y-86583190D01*
X104599496Y-86697309D01*
X104599497Y-86697310D01*
X104599498Y-86697311D01*
X104599500Y-86697314D01*
X105493762Y-87591576D01*
X106311771Y-88409585D01*
X106339548Y-88464102D01*
X106338865Y-88498903D01*
X106309500Y-88646531D01*
X106309500Y-88853467D01*
X106349869Y-89056418D01*
X106429058Y-89247597D01*
X106544020Y-89419651D01*
X106544023Y-89419655D01*
X106690345Y-89565977D01*
X106862402Y-89680941D01*
X107053580Y-89760130D01*
X107256535Y-89800500D01*
X107256536Y-89800500D01*
X107463464Y-89800500D01*
X107463465Y-89800500D01*
X107611097Y-89771133D01*
X107671855Y-89778324D01*
X107700413Y-89798227D01*
X108110504Y-90208318D01*
X108114130Y-90215435D01*
X108120593Y-90220131D01*
X108127756Y-90242179D01*
X108138281Y-90262835D01*
X108139500Y-90278322D01*
X108139500Y-90308080D01*
X108120593Y-90366271D01*
X108095502Y-90390395D01*
X107970349Y-90474019D01*
X107824020Y-90620348D01*
X107709058Y-90792402D01*
X107629869Y-90983581D01*
X107589500Y-91186532D01*
X107589500Y-91393467D01*
X107629869Y-91596418D01*
X107709058Y-91787597D01*
X107824020Y-91959651D01*
X107824023Y-91959655D01*
X107970345Y-92105977D01*
X108142402Y-92220941D01*
X108333580Y-92300130D01*
X108536535Y-92340500D01*
X108536536Y-92340500D01*
X108743464Y-92340500D01*
X108743465Y-92340500D01*
X108946420Y-92300130D01*
X109137598Y-92220941D01*
X109309655Y-92105977D01*
X109455977Y-91959655D01*
X109570941Y-91787598D01*
X109650130Y-91596420D01*
X109690500Y-91393465D01*
X109690500Y-91186535D01*
X109690499Y-91186532D01*
X110129500Y-91186532D01*
X110129500Y-91393467D01*
X110169869Y-91596418D01*
X110249058Y-91787597D01*
X110364020Y-91959651D01*
X110364023Y-91959655D01*
X110510345Y-92105977D01*
X110682402Y-92220941D01*
X110873580Y-92300130D01*
X111076535Y-92340500D01*
X111076536Y-92340500D01*
X111283464Y-92340500D01*
X111283465Y-92340500D01*
X111486420Y-92300130D01*
X111677598Y-92220941D01*
X111849655Y-92105977D01*
X111995977Y-91959655D01*
X112110941Y-91787598D01*
X112190130Y-91596420D01*
X112230500Y-91393465D01*
X112230500Y-91186535D01*
X112190130Y-90983580D01*
X112110941Y-90792402D01*
X111995977Y-90620345D01*
X111849655Y-90474023D01*
X111849651Y-90474020D01*
X111677597Y-90359058D01*
X111486418Y-90279869D01*
X111283467Y-90239500D01*
X111283465Y-90239500D01*
X111076535Y-90239500D01*
X111076532Y-90239500D01*
X110873581Y-90279869D01*
X110682402Y-90359058D01*
X110510348Y-90474020D01*
X110364020Y-90620348D01*
X110249058Y-90792402D01*
X110169869Y-90983581D01*
X110129500Y-91186532D01*
X109690499Y-91186532D01*
X109650130Y-90983580D01*
X109570941Y-90792402D01*
X109455977Y-90620345D01*
X109309655Y-90474023D01*
X109309651Y-90474020D01*
X109309650Y-90474019D01*
X109184498Y-90390395D01*
X109146619Y-90342345D01*
X109140500Y-90308080D01*
X109140500Y-89964109D01*
X109125579Y-89908423D01*
X109106392Y-89836814D01*
X109106390Y-89836811D01*
X109106390Y-89836809D01*
X109040503Y-89722690D01*
X109040499Y-89722685D01*
X108947314Y-89629499D01*
X108947314Y-89629500D01*
X108408227Y-89090413D01*
X108380450Y-89035896D01*
X108381132Y-89001100D01*
X108410500Y-88853465D01*
X108410500Y-88646535D01*
X108410499Y-88646532D01*
X108849500Y-88646532D01*
X108849500Y-88853467D01*
X108889869Y-89056418D01*
X108969058Y-89247597D01*
X109084020Y-89419651D01*
X109084023Y-89419655D01*
X109230345Y-89565977D01*
X109402402Y-89680941D01*
X109593580Y-89760130D01*
X109796535Y-89800500D01*
X109796536Y-89800500D01*
X110003464Y-89800500D01*
X110003465Y-89800500D01*
X110206420Y-89760130D01*
X110397598Y-89680941D01*
X110397598Y-89680940D01*
X110397600Y-89680940D01*
X110408513Y-89673648D01*
X110408537Y-89673632D01*
X110474587Y-89629499D01*
X110569655Y-89565977D01*
X110715977Y-89419655D01*
X110830941Y-89247598D01*
X110910130Y-89056420D01*
X110950500Y-88853465D01*
X110950500Y-88651619D01*
X111190000Y-88651619D01*
X111190000Y-88848380D01*
X111220778Y-89042710D01*
X111220779Y-89042714D01*
X111281576Y-89229826D01*
X111281578Y-89229829D01*
X111370907Y-89405148D01*
X111396319Y-89440125D01*
X112001943Y-88834500D01*
X112025326Y-88921764D01*
X112083911Y-89023236D01*
X112166764Y-89106089D01*
X112268236Y-89164674D01*
X112355497Y-89188055D01*
X111749874Y-89793678D01*
X111784860Y-89819097D01*
X111960170Y-89908421D01*
X111960173Y-89908423D01*
X112147285Y-89969220D01*
X112147289Y-89969221D01*
X112341620Y-90000000D01*
X112538380Y-90000000D01*
X112732710Y-89969221D01*
X112732714Y-89969220D01*
X112919826Y-89908423D01*
X112919829Y-89908421D01*
X113095142Y-89819096D01*
X113095148Y-89819092D01*
X113130125Y-89793679D01*
X113130125Y-89793678D01*
X112524502Y-89188055D01*
X112611764Y-89164674D01*
X112713236Y-89106089D01*
X112796089Y-89023236D01*
X112854674Y-88921764D01*
X112878055Y-88834502D01*
X113483678Y-89440125D01*
X113483679Y-89440125D01*
X113509092Y-89405148D01*
X113509096Y-89405142D01*
X113598421Y-89229829D01*
X113598423Y-89229826D01*
X113659220Y-89042714D01*
X113659221Y-89042710D01*
X113690000Y-88848380D01*
X113690000Y-88651619D01*
X113659221Y-88457289D01*
X113659220Y-88457285D01*
X113598423Y-88270173D01*
X113598421Y-88270170D01*
X113509097Y-88094860D01*
X113483678Y-88059874D01*
X112878055Y-88665497D01*
X112854674Y-88578236D01*
X112796089Y-88476764D01*
X112713236Y-88393911D01*
X112611764Y-88335326D01*
X112524500Y-88311943D01*
X113130125Y-87706319D01*
X113095148Y-87680907D01*
X112919829Y-87591578D01*
X112919826Y-87591576D01*
X112732714Y-87530779D01*
X112732710Y-87530778D01*
X112538380Y-87500000D01*
X112341620Y-87500000D01*
X112147289Y-87530778D01*
X112147285Y-87530779D01*
X111960173Y-87591576D01*
X111960170Y-87591578D01*
X111784856Y-87680904D01*
X111749873Y-87706319D01*
X112355498Y-88311944D01*
X112268236Y-88335326D01*
X112166764Y-88393911D01*
X112083911Y-88476764D01*
X112025326Y-88578236D01*
X112001944Y-88665498D01*
X111396319Y-88059873D01*
X111370904Y-88094856D01*
X111281578Y-88270170D01*
X111281576Y-88270173D01*
X111220779Y-88457285D01*
X111220778Y-88457289D01*
X111190000Y-88651619D01*
X110950500Y-88651619D01*
X110950500Y-88646535D01*
X110910130Y-88443580D01*
X110830941Y-88252402D01*
X110715977Y-88080345D01*
X110569655Y-87934023D01*
X110397598Y-87819059D01*
X110206420Y-87739870D01*
X110206418Y-87739869D01*
X110003467Y-87699500D01*
X110003465Y-87699500D01*
X109796535Y-87699500D01*
X109796532Y-87699500D01*
X109593581Y-87739869D01*
X109402402Y-87819058D01*
X109230348Y-87934020D01*
X109084020Y-88080348D01*
X108969058Y-88252402D01*
X108889869Y-88443581D01*
X108849500Y-88646532D01*
X108410499Y-88646532D01*
X108370130Y-88443580D01*
X108305848Y-88288392D01*
X108301048Y-88227396D01*
X108327307Y-88180505D01*
X112636869Y-83870943D01*
X123324500Y-83870943D01*
X123324500Y-84029057D01*
X123365423Y-84181784D01*
X123444480Y-84318716D01*
X123556284Y-84430520D01*
X123693216Y-84509577D01*
X123845943Y-84550500D01*
X123845945Y-84550500D01*
X124004055Y-84550500D01*
X124004057Y-84550500D01*
X124156784Y-84509577D01*
X124293716Y-84430520D01*
X124405520Y-84318716D01*
X124484577Y-84181784D01*
X124525500Y-84029057D01*
X124525500Y-83870943D01*
X124484577Y-83718216D01*
X124405520Y-83581284D01*
X124293716Y-83469480D01*
X124156784Y-83390423D01*
X124004057Y-83349500D01*
X123845943Y-83349500D01*
X123693216Y-83390423D01*
X123556284Y-83469480D01*
X123444480Y-83581284D01*
X123365423Y-83718216D01*
X123324500Y-83870943D01*
X112636869Y-83870943D01*
X112898900Y-83608912D01*
X112943277Y-83583291D01*
X113031784Y-83559577D01*
X113168716Y-83480520D01*
X113280520Y-83368716D01*
X113359577Y-83231784D01*
X113400500Y-83079057D01*
X113400500Y-82920943D01*
X113359577Y-82768216D01*
X113280520Y-82631284D01*
X113168716Y-82519480D01*
X113031784Y-82440423D01*
X112879057Y-82399500D01*
X112720943Y-82399500D01*
X112568216Y-82440423D01*
X112431284Y-82519480D01*
X112319480Y-82631284D01*
X112240421Y-82768218D01*
X112240421Y-82768219D01*
X112216708Y-82856718D01*
X112191086Y-82901098D01*
X107421682Y-87670504D01*
X107367165Y-87698281D01*
X107351678Y-87699500D01*
X107256531Y-87699500D01*
X107108903Y-87728865D01*
X107048141Y-87721673D01*
X107019585Y-87701771D01*
X105529496Y-86211682D01*
X105501719Y-86157165D01*
X105500500Y-86141678D01*
X105500500Y-84060636D01*
X105513763Y-84011136D01*
X105559577Y-83931784D01*
X105600500Y-83779057D01*
X105600500Y-83620943D01*
X105559577Y-83468216D01*
X105480520Y-83331284D01*
X105368716Y-83219480D01*
X105231784Y-83140423D01*
X105079057Y-83099500D01*
X104920943Y-83099500D01*
X104768216Y-83140423D01*
X104631284Y-83219480D01*
X104519480Y-83331284D01*
X104440423Y-83468216D01*
X104399500Y-83620943D01*
X98260500Y-83620943D01*
X98260500Y-79520943D01*
X105099500Y-79520943D01*
X105099500Y-79679057D01*
X105140423Y-79831784D01*
X105219480Y-79968716D01*
X105331284Y-80080520D01*
X105468216Y-80159577D01*
X105620943Y-80200500D01*
X105620945Y-80200500D01*
X105779055Y-80200500D01*
X105779057Y-80200500D01*
X105931784Y-80159577D01*
X106068716Y-80080520D01*
X106180520Y-79968716D01*
X106259577Y-79831784D01*
X106300500Y-79679057D01*
X106300500Y-79520943D01*
X106259577Y-79368216D01*
X106180520Y-79231284D01*
X106068716Y-79119480D01*
X105931784Y-79040423D01*
X105779057Y-78999500D01*
X105620943Y-78999500D01*
X105468216Y-79040423D01*
X105331284Y-79119480D01*
X105219480Y-79231284D01*
X105140423Y-79368216D01*
X105099500Y-79520943D01*
X98260500Y-79520943D01*
X98260500Y-67247273D01*
X102499500Y-67247273D01*
X102499500Y-78247273D01*
X102499500Y-78352727D01*
X102506555Y-78379057D01*
X102526794Y-78454592D01*
X102579516Y-78545908D01*
X102579518Y-78545910D01*
X102579520Y-78545913D01*
X102670505Y-78636898D01*
X102698281Y-78691413D01*
X102699500Y-78706900D01*
X102699500Y-78779057D01*
X102740423Y-78931784D01*
X102819480Y-79068716D01*
X102931284Y-79180520D01*
X103068216Y-79259577D01*
X103220943Y-79300500D01*
X103220945Y-79300500D01*
X103379055Y-79300500D01*
X103379057Y-79300500D01*
X103531784Y-79259577D01*
X103668716Y-79180520D01*
X103780520Y-79068716D01*
X103859577Y-78931784D01*
X103900500Y-78779057D01*
X103900500Y-78620943D01*
X103859577Y-78468216D01*
X103780520Y-78331284D01*
X103668716Y-78219480D01*
X103531784Y-78140423D01*
X103379057Y-78099500D01*
X103373877Y-78098112D01*
X103322562Y-78064788D01*
X103300636Y-78007666D01*
X103300500Y-78002485D01*
X103300500Y-76705900D01*
X103319407Y-76647709D01*
X103368907Y-76611745D01*
X103430093Y-76611745D01*
X103469501Y-76635894D01*
X104254087Y-77420480D01*
X104254089Y-77420481D01*
X104254091Y-77420483D01*
X104345408Y-77473205D01*
X104345406Y-77473205D01*
X104345410Y-77473206D01*
X104345412Y-77473207D01*
X104447273Y-77500500D01*
X113910256Y-77500500D01*
X113968447Y-77519407D01*
X113980259Y-77529496D01*
X114031281Y-77580517D01*
X114031284Y-77580520D01*
X114168216Y-77659577D01*
X114320943Y-77700500D01*
X114320945Y-77700500D01*
X114479055Y-77700500D01*
X114479057Y-77700500D01*
X114631784Y-77659577D01*
X114768716Y-77580520D01*
X114880520Y-77468716D01*
X114959577Y-77331784D01*
X115000500Y-77179057D01*
X115000500Y-77020943D01*
X114959577Y-76868216D01*
X114932465Y-76821257D01*
X114919745Y-76761410D01*
X114944632Y-76705515D01*
X114997620Y-76674922D01*
X114998788Y-76674681D01*
X115004328Y-76673580D01*
X115131811Y-76620775D01*
X115246542Y-76544114D01*
X115344114Y-76446542D01*
X115420775Y-76331811D01*
X115473580Y-76204328D01*
X115500500Y-76068993D01*
X115500500Y-75931007D01*
X115473580Y-75795672D01*
X115420775Y-75668189D01*
X115420774Y-75668187D01*
X115420771Y-75668182D01*
X115344114Y-75553458D01*
X115344106Y-75553449D01*
X115246543Y-75455887D01*
X115246542Y-75455886D01*
X115244496Y-75454519D01*
X115243798Y-75453634D01*
X115242781Y-75452799D01*
X115242964Y-75452575D01*
X115206619Y-75406469D01*
X115200500Y-75372205D01*
X115200500Y-72124762D01*
X115200500Y-72124761D01*
X115173207Y-72022901D01*
X115173207Y-72022900D01*
X115173207Y-72022899D01*
X115120483Y-71931579D01*
X115120482Y-71931578D01*
X115120481Y-71931577D01*
X115120480Y-71931575D01*
X113841330Y-70652425D01*
X113813553Y-70597908D01*
X113814236Y-70563107D01*
X113823012Y-70518993D01*
X113823012Y-70381007D01*
X113796092Y-70245672D01*
X113743287Y-70118189D01*
X113743286Y-70118187D01*
X113743283Y-70118182D01*
X113666626Y-70003458D01*
X113569053Y-69905885D01*
X113454329Y-69829228D01*
X113454318Y-69829222D01*
X113326840Y-69776420D01*
X113191507Y-69749500D01*
X113191505Y-69749500D01*
X113053519Y-69749500D01*
X113053516Y-69749500D01*
X112918184Y-69776420D01*
X112918182Y-69776420D01*
X112790705Y-69829222D01*
X112790694Y-69829228D01*
X112675970Y-69905885D01*
X112578397Y-70003458D01*
X112501740Y-70118182D01*
X112501734Y-70118193D01*
X112448932Y-70245670D01*
X112448932Y-70245672D01*
X112422012Y-70381004D01*
X112422012Y-70381007D01*
X112422012Y-70518993D01*
X112448553Y-70652425D01*
X112448932Y-70654327D01*
X112448932Y-70654329D01*
X112501734Y-70781806D01*
X112501740Y-70781817D01*
X112578397Y-70896541D01*
X112675970Y-70994114D01*
X112790694Y-71070771D01*
X112790705Y-71070777D01*
X112837795Y-71090282D01*
X112918184Y-71123580D01*
X113053519Y-71150500D01*
X113053520Y-71150500D01*
X113165611Y-71150500D01*
X113223802Y-71169407D01*
X113235615Y-71179496D01*
X114370504Y-72314385D01*
X114398281Y-72368902D01*
X114399500Y-72384389D01*
X114399500Y-75372205D01*
X114380593Y-75430396D01*
X114355504Y-75454518D01*
X114354323Y-75455307D01*
X114353456Y-75455887D01*
X114255893Y-75553449D01*
X114255885Y-75553458D01*
X114179228Y-75668182D01*
X114179222Y-75668193D01*
X114126420Y-75795670D01*
X114126420Y-75795672D01*
X114099500Y-75931004D01*
X114099500Y-76068995D01*
X114126420Y-76204327D01*
X114126420Y-76204329D01*
X114179222Y-76331806D01*
X114179228Y-76331817D01*
X114219022Y-76391371D01*
X114235631Y-76450258D01*
X114214454Y-76507662D01*
X114173112Y-76535287D01*
X114174211Y-76537940D01*
X114168218Y-76540421D01*
X114031281Y-76619482D01*
X113980259Y-76670504D01*
X113925742Y-76698281D01*
X113910256Y-76699500D01*
X104706901Y-76699500D01*
X104648710Y-76680593D01*
X104636897Y-76670504D01*
X103729496Y-75763103D01*
X103701719Y-75708586D01*
X103700500Y-75693099D01*
X103700500Y-75520943D01*
X104099500Y-75520943D01*
X104099500Y-75679057D01*
X104140423Y-75831784D01*
X104219480Y-75968716D01*
X104331284Y-76080520D01*
X104468216Y-76159577D01*
X104620943Y-76200500D01*
X104620945Y-76200500D01*
X104779055Y-76200500D01*
X104779057Y-76200500D01*
X104931784Y-76159577D01*
X105068716Y-76080520D01*
X105180520Y-75968716D01*
X105259577Y-75831784D01*
X105300500Y-75679057D01*
X105300500Y-75520943D01*
X105259577Y-75368216D01*
X105180520Y-75231284D01*
X105068716Y-75119480D01*
X104931784Y-75040423D01*
X104779057Y-74999500D01*
X104620943Y-74999500D01*
X104468216Y-75040423D01*
X104331284Y-75119480D01*
X104219480Y-75231284D01*
X104140423Y-75368216D01*
X104099500Y-75520943D01*
X103700500Y-75520943D01*
X103700500Y-74920943D01*
X112899500Y-74920943D01*
X112899500Y-75079057D01*
X112940423Y-75231784D01*
X113019480Y-75368716D01*
X113131284Y-75480520D01*
X113268216Y-75559577D01*
X113420943Y-75600500D01*
X113420945Y-75600500D01*
X113579055Y-75600500D01*
X113579057Y-75600500D01*
X113731784Y-75559577D01*
X113868716Y-75480520D01*
X113980520Y-75368716D01*
X114059577Y-75231784D01*
X114100500Y-75079057D01*
X114100500Y-74920943D01*
X114059577Y-74768216D01*
X113980520Y-74631284D01*
X113868716Y-74519480D01*
X113731784Y-74440423D01*
X113579057Y-74399500D01*
X113420943Y-74399500D01*
X113268216Y-74440423D01*
X113131284Y-74519480D01*
X113019480Y-74631284D01*
X112940423Y-74768216D01*
X112899500Y-74920943D01*
X103700500Y-74920943D01*
X103700500Y-70320943D01*
X104999500Y-70320943D01*
X104999500Y-70479057D01*
X105040423Y-70631784D01*
X105119480Y-70768716D01*
X105231284Y-70880520D01*
X105368216Y-70959577D01*
X105520943Y-71000500D01*
X105520945Y-71000500D01*
X105679055Y-71000500D01*
X105679057Y-71000500D01*
X105831784Y-70959577D01*
X105968716Y-70880520D01*
X106080520Y-70768716D01*
X106159577Y-70631784D01*
X106200500Y-70479057D01*
X106200500Y-70320943D01*
X106159577Y-70168216D01*
X106080520Y-70031284D01*
X105968716Y-69919480D01*
X105831784Y-69840423D01*
X105679057Y-69799500D01*
X105520943Y-69799500D01*
X105368216Y-69840423D01*
X105231284Y-69919480D01*
X105119480Y-70031284D01*
X105040423Y-70168216D01*
X104999500Y-70320943D01*
X103700500Y-70320943D01*
X103700500Y-70106900D01*
X103719407Y-70048709D01*
X103729490Y-70036902D01*
X104135388Y-69631004D01*
X114099500Y-69631004D01*
X114099500Y-69768995D01*
X114126420Y-69904327D01*
X114126420Y-69904329D01*
X114179222Y-70031806D01*
X114179228Y-70031817D01*
X114255885Y-70146541D01*
X114353458Y-70244114D01*
X114468182Y-70320771D01*
X114468193Y-70320777D01*
X114515283Y-70340282D01*
X114595672Y-70373580D01*
X114731007Y-70400500D01*
X114731008Y-70400500D01*
X114868992Y-70400500D01*
X114868993Y-70400500D01*
X115004328Y-70373580D01*
X115131811Y-70320775D01*
X115246542Y-70244114D01*
X115344114Y-70146542D01*
X115420775Y-70031811D01*
X115473580Y-69904328D01*
X115500500Y-69768993D01*
X115500500Y-69631007D01*
X115473580Y-69495672D01*
X115420775Y-69368189D01*
X115420774Y-69368187D01*
X115420771Y-69368182D01*
X115344114Y-69253458D01*
X115246541Y-69155885D01*
X115131817Y-69079228D01*
X115131806Y-69079222D01*
X115004328Y-69026420D01*
X114868995Y-68999500D01*
X114868993Y-68999500D01*
X114731007Y-68999500D01*
X114731004Y-68999500D01*
X114595672Y-69026420D01*
X114595670Y-69026420D01*
X114468193Y-69079222D01*
X114468182Y-69079228D01*
X114353458Y-69155885D01*
X114255885Y-69253458D01*
X114179228Y-69368182D01*
X114179222Y-69368193D01*
X114126420Y-69495670D01*
X114126420Y-69495672D01*
X114099500Y-69631004D01*
X104135388Y-69631004D01*
X106441892Y-67324499D01*
X106446365Y-67320298D01*
X106453795Y-67313739D01*
X106498413Y-67287980D01*
X106572980Y-67213413D01*
X106578722Y-67203466D01*
X106590852Y-67192760D01*
X106604791Y-67186717D01*
X106616080Y-67176549D01*
X106632157Y-67174855D01*
X106646991Y-67168426D01*
X106661820Y-67171731D01*
X106676928Y-67170140D01*
X106692429Y-67178553D01*
X106706710Y-67181737D01*
X106714451Y-67190507D01*
X106726371Y-67196977D01*
X106740347Y-67210953D01*
X106855071Y-67287610D01*
X106855082Y-67287616D01*
X106902172Y-67307121D01*
X106982561Y-67340419D01*
X107117896Y-67367339D01*
X107117897Y-67367339D01*
X107255881Y-67367339D01*
X107255882Y-67367339D01*
X107391217Y-67340419D01*
X107518700Y-67287614D01*
X107633431Y-67210953D01*
X107731003Y-67113381D01*
X107807664Y-66998650D01*
X107860469Y-66871167D01*
X107887389Y-66735832D01*
X107887389Y-66597846D01*
X107860469Y-66462511D01*
X107836369Y-66404328D01*
X107807666Y-66335032D01*
X107807660Y-66335021D01*
X107731003Y-66220297D01*
X107681996Y-66171290D01*
X107654219Y-66116773D01*
X107653000Y-66101286D01*
X107653000Y-65899772D01*
X107644509Y-65868086D01*
X107644508Y-65868083D01*
X107639806Y-65850534D01*
X107625707Y-65797912D01*
X107625705Y-65797909D01*
X107625705Y-65797907D01*
X107572983Y-65706591D01*
X107572981Y-65706589D01*
X107572980Y-65706587D01*
X106945913Y-65079520D01*
X106945910Y-65079518D01*
X106945908Y-65079516D01*
X106854591Y-65026794D01*
X106854593Y-65026794D01*
X106815070Y-65016204D01*
X106752727Y-64999500D01*
X104852727Y-64999500D01*
X104747273Y-64999500D01*
X104677296Y-65018250D01*
X104645408Y-65026794D01*
X104599750Y-65053156D01*
X104570800Y-65069870D01*
X104554086Y-65079520D01*
X104479519Y-65154086D01*
X104479520Y-65154087D01*
X102579516Y-67054091D01*
X102526793Y-67145411D01*
X102526792Y-67145411D01*
X102526793Y-67145412D01*
X102512033Y-67200499D01*
X102499500Y-67247273D01*
X98260500Y-67247273D01*
X98260500Y-59273749D01*
X98550000Y-59273749D01*
X98550000Y-59486250D01*
X98583240Y-59696121D01*
X98648904Y-59898215D01*
X98745376Y-60087553D01*
X98745380Y-60087559D01*
X98784728Y-60141716D01*
X98784729Y-60141716D01*
X99417037Y-59509407D01*
X99434075Y-59572993D01*
X99499901Y-59687007D01*
X99592993Y-59780099D01*
X99707007Y-59845925D01*
X99770589Y-59862962D01*
X99138282Y-60495269D01*
X99138282Y-60495270D01*
X99192440Y-60534619D01*
X99192446Y-60534623D01*
X99285999Y-60582290D01*
X99329263Y-60625554D01*
X99338835Y-60685986D01*
X99311058Y-60740503D01*
X99256542Y-60768281D01*
X99241054Y-60769500D01*
X99005139Y-60769500D01*
X99005136Y-60769501D01*
X98980009Y-60772414D01*
X98877235Y-60817794D01*
X98797794Y-60897235D01*
X98752414Y-61000011D01*
X98749500Y-61025130D01*
X98749500Y-62814860D01*
X98749501Y-62814863D01*
X98752414Y-62839990D01*
X98768664Y-62876792D01*
X98797794Y-62942765D01*
X98877235Y-63022206D01*
X98980009Y-63067585D01*
X99005135Y-63070500D01*
X100794864Y-63070499D01*
X100819991Y-63067585D01*
X100922765Y-63022206D01*
X101002206Y-62942765D01*
X101047585Y-62839991D01*
X101050500Y-62814865D01*
X101050499Y-61025136D01*
X101047585Y-61000009D01*
X101002206Y-60897235D01*
X100922765Y-60817794D01*
X100819991Y-60772415D01*
X100819990Y-60772414D01*
X100819988Y-60772414D01*
X100794869Y-60769500D01*
X100558945Y-60769500D01*
X100500754Y-60750593D01*
X100464790Y-60701093D01*
X100464790Y-60639907D01*
X100500754Y-60590407D01*
X100514000Y-60582290D01*
X100607556Y-60534620D01*
X100661716Y-60495270D01*
X100029408Y-59862962D01*
X100092993Y-59845925D01*
X100207007Y-59780099D01*
X100300099Y-59687007D01*
X100365925Y-59572993D01*
X100382962Y-59509408D01*
X101015270Y-60141716D01*
X101054620Y-60087556D01*
X101151095Y-59898215D01*
X101216759Y-59696121D01*
X101250000Y-59486250D01*
X101250000Y-59273749D01*
X101216759Y-59063878D01*
X101214227Y-59056085D01*
X101214227Y-58994899D01*
X101250191Y-58945399D01*
X101308382Y-58926492D01*
X101366573Y-58945399D01*
X101378379Y-58955482D01*
X101783386Y-59360489D01*
X101842696Y-59394731D01*
X101886114Y-59419799D01*
X102000691Y-59450500D01*
X108060257Y-59450500D01*
X108118448Y-59469407D01*
X108130254Y-59479490D01*
X108131284Y-59480520D01*
X108268216Y-59559577D01*
X108420943Y-59600500D01*
X108420945Y-59600500D01*
X108579055Y-59600500D01*
X108579057Y-59600500D01*
X108731784Y-59559577D01*
X108868716Y-59480520D01*
X108980520Y-59368716D01*
X109059577Y-59231784D01*
X109100500Y-59079057D01*
X109100500Y-58920943D01*
X109059577Y-58768216D01*
X108980520Y-58631284D01*
X108868716Y-58519480D01*
X108731784Y-58440423D01*
X108579057Y-58399500D01*
X108420943Y-58399500D01*
X108268216Y-58440423D01*
X108131284Y-58519480D01*
X108130258Y-58520505D01*
X108129331Y-58520977D01*
X108126134Y-58523431D01*
X108125679Y-58522838D01*
X108075744Y-58548281D01*
X108060257Y-58549500D01*
X102287611Y-58549500D01*
X102229420Y-58530593D01*
X102217607Y-58520504D01*
X101012181Y-57315078D01*
X100984404Y-57260561D01*
X100988031Y-57214482D01*
X101009812Y-57147444D01*
X101022171Y-57109410D01*
X101050500Y-56930549D01*
X101050500Y-56749450D01*
X101022171Y-56570593D01*
X101022171Y-56570591D01*
X100966211Y-56398361D01*
X100883996Y-56237006D01*
X100784056Y-56099450D01*
X100765149Y-56041261D01*
X100784056Y-55983071D01*
X100833556Y-55947107D01*
X100894741Y-55947106D01*
X100934153Y-55971257D01*
X102623386Y-57660490D01*
X102726113Y-57719799D01*
X102750320Y-57726284D01*
X102750325Y-57726287D01*
X102750326Y-57726286D01*
X102840688Y-57750499D01*
X102840690Y-57750500D01*
X102840691Y-57750500D01*
X107860257Y-57750500D01*
X107918448Y-57769407D01*
X107930254Y-57779490D01*
X107931284Y-57780520D01*
X108068216Y-57859577D01*
X108220943Y-57900500D01*
X108220945Y-57900500D01*
X108379055Y-57900500D01*
X108379057Y-57900500D01*
X108531784Y-57859577D01*
X108668716Y-57780520D01*
X108780520Y-57668716D01*
X108859577Y-57531784D01*
X108900500Y-57379057D01*
X108900500Y-57220943D01*
X108859577Y-57068216D01*
X108780520Y-56931284D01*
X108668716Y-56819480D01*
X108531784Y-56740423D01*
X108379057Y-56699500D01*
X108220943Y-56699500D01*
X108068216Y-56740423D01*
X107931284Y-56819480D01*
X107930258Y-56820505D01*
X107929331Y-56820977D01*
X107926134Y-56823431D01*
X107925679Y-56822838D01*
X107875744Y-56848281D01*
X107860257Y-56849500D01*
X103127612Y-56849500D01*
X103069421Y-56830593D01*
X103057608Y-56820504D01*
X101012182Y-54775078D01*
X100984405Y-54720561D01*
X100988031Y-54674481D01*
X101022171Y-54569409D01*
X101038075Y-54468995D01*
X101050500Y-54390549D01*
X101050500Y-54209450D01*
X101028598Y-54071168D01*
X101022171Y-54030591D01*
X100966211Y-53858361D01*
X100883996Y-53697006D01*
X100777553Y-53550499D01*
X100649501Y-53422447D01*
X100502994Y-53316004D01*
X100502993Y-53316003D01*
X100502991Y-53316002D01*
X100341637Y-53233788D01*
X100169406Y-53177828D01*
X99990549Y-53149500D01*
X99990546Y-53149500D01*
X99809454Y-53149500D01*
X99809451Y-53149500D01*
X99630593Y-53177828D01*
X99458362Y-53233788D01*
X99297008Y-53316002D01*
X99223752Y-53369225D01*
X99150499Y-53422447D01*
X99022447Y-53550499D01*
X98969225Y-53623752D01*
X98916002Y-53697008D01*
X98833788Y-53858362D01*
X98777828Y-54030593D01*
X98749500Y-54209450D01*
X98749500Y-54390549D01*
X98777828Y-54569406D01*
X98833788Y-54741637D01*
X98887239Y-54846541D01*
X98916004Y-54902994D01*
X99022447Y-55049501D01*
X99150499Y-55177553D01*
X99297006Y-55283996D01*
X99458361Y-55366211D01*
X99630591Y-55422171D01*
X99702136Y-55433502D01*
X99809451Y-55450500D01*
X99809454Y-55450500D01*
X99990549Y-55450500D01*
X100169404Y-55422172D01*
X100169405Y-55422171D01*
X100169409Y-55422171D01*
X100274482Y-55388031D01*
X100335667Y-55388031D01*
X100375077Y-55412182D01*
X100768741Y-55805845D01*
X100796519Y-55860362D01*
X100786948Y-55920794D01*
X100743683Y-55964059D01*
X100683251Y-55973630D01*
X100640548Y-55955942D01*
X100502994Y-55856004D01*
X100502993Y-55856003D01*
X100502991Y-55856002D01*
X100341637Y-55773788D01*
X100169406Y-55717828D01*
X99990549Y-55689500D01*
X99990546Y-55689500D01*
X99809454Y-55689500D01*
X99809451Y-55689500D01*
X99630593Y-55717828D01*
X99458362Y-55773788D01*
X99297008Y-55856002D01*
X99227578Y-55906446D01*
X99150499Y-55962447D01*
X99022447Y-56090499D01*
X98969225Y-56163752D01*
X98916002Y-56237008D01*
X98833788Y-56398362D01*
X98777828Y-56570593D01*
X98749500Y-56749450D01*
X98749500Y-56930549D01*
X98777828Y-57109406D01*
X98777829Y-57109409D01*
X98833789Y-57281639D01*
X98916004Y-57442994D01*
X99022447Y-57589501D01*
X99150499Y-57717553D01*
X99297006Y-57823996D01*
X99458361Y-57906211D01*
X99467819Y-57909284D01*
X99472983Y-57910962D01*
X99522483Y-57946926D01*
X99541391Y-58005116D01*
X99522484Y-58063307D01*
X99472985Y-58099271D01*
X99472984Y-58099272D01*
X99381784Y-58128904D01*
X99192446Y-58225376D01*
X99192442Y-58225378D01*
X99138282Y-58264728D01*
X99770591Y-58897037D01*
X99707007Y-58914075D01*
X99592993Y-58979901D01*
X99499901Y-59072993D01*
X99434075Y-59187007D01*
X99417037Y-59250591D01*
X98784728Y-58618282D01*
X98745378Y-58672442D01*
X98745376Y-58672446D01*
X98648904Y-58861784D01*
X98583240Y-59063878D01*
X98550000Y-59273749D01*
X98260500Y-59273749D01*
X98260500Y-44049450D01*
X98749500Y-44049450D01*
X98749500Y-44230549D01*
X98777828Y-44409406D01*
X98833788Y-44581637D01*
X98907749Y-44726794D01*
X98916004Y-44742994D01*
X99022447Y-44889501D01*
X99150499Y-45017553D01*
X99297006Y-45123996D01*
X99458361Y-45206211D01*
X99630591Y-45262171D01*
X99702136Y-45273502D01*
X99809451Y-45290500D01*
X99809454Y-45290500D01*
X99990549Y-45290500D01*
X100169410Y-45262171D01*
X100207444Y-45249812D01*
X100274482Y-45228030D01*
X100335666Y-45228030D01*
X100375078Y-45252181D01*
X100768745Y-45645848D01*
X100796522Y-45700365D01*
X100786951Y-45760797D01*
X100743686Y-45804062D01*
X100683254Y-45813633D01*
X100640553Y-45795946D01*
X100502994Y-45696004D01*
X100502993Y-45696003D01*
X100502991Y-45696002D01*
X100341637Y-45613788D01*
X100169406Y-45557828D01*
X99990549Y-45529500D01*
X99990546Y-45529500D01*
X99809454Y-45529500D01*
X99809451Y-45529500D01*
X99630593Y-45557828D01*
X99458362Y-45613788D01*
X99297008Y-45696002D01*
X99233936Y-45741827D01*
X99150499Y-45802447D01*
X99022447Y-45930499D01*
X98983547Y-45984041D01*
X98916002Y-46077008D01*
X98833788Y-46238362D01*
X98777828Y-46410593D01*
X98749500Y-46589450D01*
X98749500Y-46770549D01*
X98777828Y-46949406D01*
X98777829Y-46949409D01*
X98833789Y-47121639D01*
X98916004Y-47282994D01*
X99022447Y-47429501D01*
X99150499Y-47557553D01*
X99297006Y-47663996D01*
X99458361Y-47746211D01*
X99630591Y-47802171D01*
X99702136Y-47813502D01*
X99809451Y-47830500D01*
X99809454Y-47830500D01*
X99990549Y-47830500D01*
X100169410Y-47802171D01*
X100207444Y-47789812D01*
X100274482Y-47768030D01*
X100335666Y-47768030D01*
X100375078Y-47792181D01*
X100768745Y-48185848D01*
X100796522Y-48240365D01*
X100786951Y-48300797D01*
X100743686Y-48344062D01*
X100683254Y-48353633D01*
X100640553Y-48335946D01*
X100502994Y-48236004D01*
X100502993Y-48236003D01*
X100502991Y-48236002D01*
X100341637Y-48153788D01*
X100169406Y-48097828D01*
X99990549Y-48069500D01*
X99990546Y-48069500D01*
X99809454Y-48069500D01*
X99809451Y-48069500D01*
X99630593Y-48097828D01*
X99458362Y-48153788D01*
X99297008Y-48236002D01*
X99269636Y-48255889D01*
X99150499Y-48342447D01*
X99022447Y-48470499D01*
X98984387Y-48522885D01*
X98916002Y-48617008D01*
X98833788Y-48778362D01*
X98777828Y-48950593D01*
X98749500Y-49129450D01*
X98749500Y-49310549D01*
X98777828Y-49489406D01*
X98833788Y-49661637D01*
X98901288Y-49794114D01*
X98916004Y-49822994D01*
X99022447Y-49969501D01*
X99150499Y-50097553D01*
X99297006Y-50203996D01*
X99458361Y-50286211D01*
X99630591Y-50342171D01*
X99702136Y-50353502D01*
X99809451Y-50370500D01*
X99809454Y-50370500D01*
X99990549Y-50370500D01*
X100169410Y-50342171D01*
X100207444Y-50329812D01*
X100274482Y-50308030D01*
X100335666Y-50308030D01*
X100375078Y-50332181D01*
X100768745Y-50725848D01*
X100796522Y-50780365D01*
X100786951Y-50840797D01*
X100743686Y-50884062D01*
X100683254Y-50893633D01*
X100640553Y-50875946D01*
X100502994Y-50776004D01*
X100502993Y-50776003D01*
X100502991Y-50776002D01*
X100341637Y-50693788D01*
X100169406Y-50637828D01*
X99990549Y-50609500D01*
X99990546Y-50609500D01*
X99809454Y-50609500D01*
X99809451Y-50609500D01*
X99630593Y-50637828D01*
X99458362Y-50693788D01*
X99297008Y-50776002D01*
X99255564Y-50806113D01*
X99150499Y-50882447D01*
X99022447Y-51010499D01*
X98993385Y-51050500D01*
X98916002Y-51157008D01*
X98833788Y-51318362D01*
X98777828Y-51490593D01*
X98749500Y-51669450D01*
X98749500Y-51850549D01*
X98777828Y-52029406D01*
X98810839Y-52131007D01*
X98833789Y-52201639D01*
X98916004Y-52362994D01*
X99022447Y-52509501D01*
X99150499Y-52637553D01*
X99297006Y-52743996D01*
X99458361Y-52826211D01*
X99630591Y-52882171D01*
X99702136Y-52893502D01*
X99809451Y-52910500D01*
X99809454Y-52910500D01*
X99990549Y-52910500D01*
X100079977Y-52896335D01*
X100169409Y-52882171D01*
X100341639Y-52826211D01*
X100502994Y-52743996D01*
X100649501Y-52637553D01*
X100777553Y-52509501D01*
X100883996Y-52362994D01*
X100966211Y-52201639D01*
X101022171Y-52029409D01*
X101050500Y-51850546D01*
X101050500Y-51669454D01*
X101050500Y-51669450D01*
X101022171Y-51490593D01*
X101022171Y-51490591D01*
X100966211Y-51318361D01*
X100883996Y-51157006D01*
X100784052Y-51019445D01*
X100765147Y-50961258D01*
X100784054Y-50903067D01*
X100833554Y-50867103D01*
X100894739Y-50867103D01*
X100934151Y-50891254D01*
X102603386Y-52560489D01*
X102653756Y-52589570D01*
X102706114Y-52619799D01*
X102820691Y-52650500D01*
X107518836Y-52650500D01*
X107577027Y-52669407D01*
X107588840Y-52679496D01*
X107653458Y-52744114D01*
X107768182Y-52820771D01*
X107768193Y-52820777D01*
X107815283Y-52840282D01*
X107895672Y-52873580D01*
X108031007Y-52900500D01*
X108031008Y-52900500D01*
X108168992Y-52900500D01*
X108168993Y-52900500D01*
X108304328Y-52873580D01*
X108431811Y-52820775D01*
X108546542Y-52744114D01*
X108644114Y-52646542D01*
X108720775Y-52531811D01*
X108773580Y-52404328D01*
X108800500Y-52268993D01*
X108800500Y-52131007D01*
X108773580Y-51995672D01*
X108720775Y-51868189D01*
X108720774Y-51868187D01*
X108720771Y-51868182D01*
X108644114Y-51753458D01*
X108546541Y-51655885D01*
X108431817Y-51579228D01*
X108431806Y-51579222D01*
X108304328Y-51526420D01*
X108168995Y-51499500D01*
X108168993Y-51499500D01*
X108031007Y-51499500D01*
X108031004Y-51499500D01*
X107895672Y-51526420D01*
X107895670Y-51526420D01*
X107768193Y-51579222D01*
X107768182Y-51579228D01*
X107653458Y-51655885D01*
X107653454Y-51655889D01*
X107588840Y-51720504D01*
X107534323Y-51748281D01*
X107518836Y-51749500D01*
X103107611Y-51749500D01*
X103049420Y-51730593D01*
X103037607Y-51720504D01*
X101012181Y-49695078D01*
X100984404Y-49640561D01*
X100988031Y-49594482D01*
X101009812Y-49527444D01*
X101022171Y-49489410D01*
X101050500Y-49310549D01*
X101050500Y-49129450D01*
X101022171Y-48950593D01*
X101022171Y-48950591D01*
X100966211Y-48778361D01*
X100883996Y-48617006D01*
X100784052Y-48479445D01*
X100765147Y-48421258D01*
X100784054Y-48363067D01*
X100833554Y-48327103D01*
X100894739Y-48327103D01*
X100934151Y-48351254D01*
X103543386Y-50960489D01*
X103543388Y-50960490D01*
X103543389Y-50960491D01*
X103543390Y-50960492D01*
X103646107Y-51019796D01*
X103646109Y-51019797D01*
X103646113Y-51019799D01*
X103670322Y-51026284D01*
X103670325Y-51026287D01*
X103670326Y-51026286D01*
X103760688Y-51050499D01*
X103760690Y-51050500D01*
X103760691Y-51050500D01*
X107418836Y-51050500D01*
X107477027Y-51069407D01*
X107488840Y-51079496D01*
X107553458Y-51144114D01*
X107668182Y-51220771D01*
X107668193Y-51220777D01*
X107715283Y-51240282D01*
X107795672Y-51273580D01*
X107931007Y-51300500D01*
X107931008Y-51300500D01*
X108068992Y-51300500D01*
X108068993Y-51300500D01*
X108204328Y-51273580D01*
X108331811Y-51220775D01*
X108446542Y-51144114D01*
X108544114Y-51046542D01*
X108620775Y-50931811D01*
X108673580Y-50804328D01*
X108700500Y-50668993D01*
X108700500Y-50531007D01*
X108673580Y-50395672D01*
X108620775Y-50268189D01*
X108620774Y-50268187D01*
X108620771Y-50268182D01*
X108544114Y-50153458D01*
X108446541Y-50055885D01*
X108331817Y-49979228D01*
X108331806Y-49979222D01*
X108204328Y-49926420D01*
X108068995Y-49899500D01*
X108068993Y-49899500D01*
X107931007Y-49899500D01*
X107931004Y-49899500D01*
X107795672Y-49926420D01*
X107795670Y-49926420D01*
X107668193Y-49979222D01*
X107668182Y-49979228D01*
X107553458Y-50055885D01*
X107553454Y-50055889D01*
X107488840Y-50120504D01*
X107434323Y-50148281D01*
X107418836Y-50149500D01*
X104047611Y-50149500D01*
X103989420Y-50130593D01*
X103977607Y-50120504D01*
X101012181Y-47155078D01*
X100984404Y-47100561D01*
X100988031Y-47054482D01*
X101022171Y-46949409D01*
X101050500Y-46770549D01*
X101050500Y-46589450D01*
X101022171Y-46410593D01*
X101022171Y-46410591D01*
X100966211Y-46238361D01*
X100883996Y-46077006D01*
X100784052Y-45939445D01*
X100765147Y-45881258D01*
X100784054Y-45823067D01*
X100833554Y-45787103D01*
X100894739Y-45787103D01*
X100934151Y-45811254D01*
X104283386Y-49160489D01*
X104283388Y-49160490D01*
X104283389Y-49160491D01*
X104283390Y-49160492D01*
X104386107Y-49219796D01*
X104386109Y-49219797D01*
X104386113Y-49219799D01*
X104410322Y-49226284D01*
X104410325Y-49226287D01*
X104410326Y-49226286D01*
X104500688Y-49250499D01*
X104500690Y-49250500D01*
X104500691Y-49250500D01*
X107718836Y-49250500D01*
X107777027Y-49269407D01*
X107788840Y-49279496D01*
X107853458Y-49344114D01*
X107968182Y-49420771D01*
X107968193Y-49420777D01*
X108015283Y-49440282D01*
X108095672Y-49473580D01*
X108231007Y-49500500D01*
X108231008Y-49500500D01*
X108368992Y-49500500D01*
X108368993Y-49500500D01*
X108504328Y-49473580D01*
X108631811Y-49420775D01*
X108746542Y-49344114D01*
X108844114Y-49246542D01*
X108920775Y-49131811D01*
X108973580Y-49004328D01*
X109000500Y-48868993D01*
X109000500Y-48731007D01*
X108973580Y-48595672D01*
X108920775Y-48468189D01*
X108920774Y-48468187D01*
X108920771Y-48468182D01*
X108844114Y-48353458D01*
X108746541Y-48255885D01*
X108631817Y-48179228D01*
X108631806Y-48179222D01*
X108504328Y-48126420D01*
X108368995Y-48099500D01*
X108368993Y-48099500D01*
X108231007Y-48099500D01*
X108231004Y-48099500D01*
X108095672Y-48126420D01*
X108095670Y-48126420D01*
X107968193Y-48179222D01*
X107968182Y-48179228D01*
X107853458Y-48255885D01*
X107853454Y-48255889D01*
X107788840Y-48320504D01*
X107734323Y-48348281D01*
X107718836Y-48349500D01*
X104787611Y-48349500D01*
X104729420Y-48330593D01*
X104717607Y-48320504D01*
X102777915Y-46380812D01*
X102750138Y-46326295D01*
X102759709Y-46265863D01*
X102802974Y-46222598D01*
X102828603Y-46213710D01*
X102841828Y-46211080D01*
X102969311Y-46158275D01*
X103084042Y-46081614D01*
X103181614Y-45984042D01*
X103258275Y-45869311D01*
X103311080Y-45741828D01*
X103338000Y-45606493D01*
X103338000Y-45468507D01*
X103311080Y-45333172D01*
X103270350Y-45234841D01*
X103258277Y-45205693D01*
X103258271Y-45205682D01*
X103181614Y-45090958D01*
X103084041Y-44993385D01*
X102969317Y-44916728D01*
X102969306Y-44916722D01*
X102841828Y-44863920D01*
X102706495Y-44837000D01*
X102706493Y-44837000D01*
X102568507Y-44837000D01*
X102568504Y-44837000D01*
X102433172Y-44863920D01*
X102433170Y-44863920D01*
X102305693Y-44916722D01*
X102305682Y-44916728D01*
X102190958Y-44993385D01*
X102093385Y-45090958D01*
X102016728Y-45205682D01*
X102016722Y-45205693D01*
X101963920Y-45333170D01*
X101963919Y-45333173D01*
X101961288Y-45346400D01*
X101931388Y-45399782D01*
X101875821Y-45425395D01*
X101815812Y-45413454D01*
X101794187Y-45397084D01*
X101012181Y-44615078D01*
X100984404Y-44560561D01*
X100988030Y-44514483D01*
X101022171Y-44409409D01*
X101050500Y-44230549D01*
X101050500Y-44049450D01*
X101022171Y-43870593D01*
X101022171Y-43870591D01*
X100966211Y-43698361D01*
X100883996Y-43537006D01*
X100777553Y-43390499D01*
X100649501Y-43262447D01*
X100502994Y-43156004D01*
X100502993Y-43156003D01*
X100502991Y-43156002D01*
X100341637Y-43073788D01*
X100169406Y-43017828D01*
X99990549Y-42989500D01*
X99990546Y-42989500D01*
X99809454Y-42989500D01*
X99809451Y-42989500D01*
X99630593Y-43017828D01*
X99458362Y-43073788D01*
X99297008Y-43156002D01*
X99223752Y-43209225D01*
X99150499Y-43262447D01*
X99022447Y-43390499D01*
X98969225Y-43463752D01*
X98916002Y-43537008D01*
X98833788Y-43698362D01*
X98777828Y-43870593D01*
X98749500Y-44049450D01*
X98260500Y-44049450D01*
X98260500Y-41499000D01*
X98279407Y-41440809D01*
X98328907Y-41404845D01*
X98359500Y-41400000D01*
X98651016Y-41400000D01*
X98709207Y-41418907D01*
G37*
%TD.AperFunction*%
%TA.AperFunction,Conductor*%
G36*
X128343262Y-55947100D02*
G01*
X128366446Y-55947100D01*
X128372908Y-55951795D01*
X128380799Y-55953045D01*
X128397191Y-55969437D01*
X128415947Y-55983064D01*
X128418415Y-55990661D01*
X128424064Y-55996310D01*
X128427690Y-56019207D01*
X128434854Y-56041255D01*
X128432385Y-56048852D01*
X128433635Y-56056742D01*
X128415947Y-56099444D01*
X128377534Y-56152316D01*
X128316002Y-56237008D01*
X128233788Y-56398362D01*
X128177828Y-56570593D01*
X128149500Y-56749450D01*
X128149500Y-56930549D01*
X128177828Y-57109406D01*
X128211968Y-57214482D01*
X128211967Y-57275668D01*
X128187817Y-57315078D01*
X126182393Y-59320504D01*
X126127876Y-59348281D01*
X126112389Y-59349500D01*
X125126611Y-59349500D01*
X125068420Y-59330593D01*
X125032456Y-59281093D01*
X125032456Y-59219907D01*
X125056607Y-59180496D01*
X125857881Y-58379222D01*
X128265852Y-55971249D01*
X128286505Y-55960726D01*
X128305261Y-55947100D01*
X128313250Y-55947100D01*
X128320367Y-55943474D01*
X128343262Y-55947100D01*
G37*
%TD.AperFunction*%
%TA.AperFunction,Conductor*%
G36*
X128380798Y-50873046D02*
G01*
X128424063Y-50916311D01*
X128433634Y-50976743D01*
X128415946Y-51019446D01*
X128316005Y-51157002D01*
X128316003Y-51157006D01*
X128233788Y-51318362D01*
X128177828Y-51490593D01*
X128149500Y-51669450D01*
X128149500Y-51850549D01*
X128177828Y-52029406D01*
X128233788Y-52201637D01*
X128316003Y-52362993D01*
X128316005Y-52362997D01*
X128343689Y-52401100D01*
X128362596Y-52459291D01*
X128343688Y-52517481D01*
X128333600Y-52529294D01*
X126819504Y-54043391D01*
X126764987Y-54071168D01*
X126704555Y-54061597D01*
X126661290Y-54018332D01*
X126650500Y-53973387D01*
X126650500Y-52547610D01*
X126669407Y-52489419D01*
X126679490Y-52477612D01*
X128265851Y-50891250D01*
X128320366Y-50863475D01*
X128380798Y-50873046D01*
G37*
%TD.AperFunction*%
%TA.AperFunction,Conductor*%
G36*
X128380799Y-48333046D02*
G01*
X128424064Y-48376311D01*
X128433635Y-48436743D01*
X128415948Y-48479443D01*
X128357201Y-48560303D01*
X128316002Y-48617008D01*
X128233788Y-48778362D01*
X128177828Y-48950593D01*
X128149500Y-49129450D01*
X128149500Y-49310549D01*
X128177828Y-49489406D01*
X128211968Y-49594482D01*
X128211967Y-49655668D01*
X128187817Y-49695078D01*
X125839508Y-52043389D01*
X125839507Y-52043390D01*
X125780200Y-52146112D01*
X125780200Y-52146113D01*
X125780201Y-52146114D01*
X125749500Y-52260692D01*
X125749500Y-53834480D01*
X125741350Y-53859560D01*
X125735478Y-53885272D01*
X125732014Y-53888297D01*
X125730593Y-53892671D01*
X125709255Y-53908173D01*
X125689394Y-53925520D01*
X125684814Y-53925931D01*
X125681093Y-53928635D01*
X125654716Y-53928635D01*
X125628454Y-53930994D01*
X125625029Y-53928635D01*
X125619907Y-53928635D01*
X125575935Y-53899603D01*
X125571730Y-53894788D01*
X125544114Y-53853458D01*
X125477142Y-53786486D01*
X125474935Y-53783959D01*
X125464167Y-53758754D01*
X125451719Y-53734323D01*
X125451264Y-53728554D01*
X125450897Y-53727693D01*
X125451120Y-53726715D01*
X125450500Y-53718836D01*
X125450500Y-51207610D01*
X125469407Y-51149419D01*
X125479490Y-51137612D01*
X128265850Y-48351251D01*
X128320367Y-48323475D01*
X128380799Y-48333046D01*
G37*
%TD.AperFunction*%
%TD*%
M02*
