M48
; DRILL file {KiCad 9.0.8-1.fc43} date 2026-04-27T11:30:58+0200
; FORMAT={-:-/ absolute / inch / decimal}
; #@! TF.CreationDate,2026-04-27T11:30:58+02:00
; #@! TF.GenerationSoftware,Kicad,Pcbnew,9.0.8-1.fc43
; #@! TF.FileFunction,Plated,1,4,PTH
FMAT,2
INCH
; #@! TA.AperFunction,Plated,PTH,ViaDrill
T1C0.0118
; #@! TA.AperFunction,Plated,PTH,ComponentDrill
T2C0.0118
; #@! TA.AperFunction,Plated,PTH,ComponentDrill
T3C0.0236
; #@! TA.AperFunction,Plated,PTH,ComponentDrill
T4C0.0350
; #@! TA.AperFunction,Plated,PTH,ComponentDrill
T5C0.0394
; #@! TA.AperFunction,Plated,PTH,ComponentDrill
T6C0.0402
; #@! TA.AperFunction,Plated,PTH,ComponentDrill
T7C0.0642
%
G90
G05
T1
X3.9882Y-2.7953
X4.0079Y-2.5039
X4.0408Y-1.7928
X4.0669Y-3.0984
X4.1181Y-1.6969
X4.122Y-2.9764
X4.126Y-2.622
X4.1339Y-3.2953
X4.1575Y-2.7717
X4.1614Y-3.1339
X4.1654Y-2.8228
X4.185Y-2.6063
X4.2008Y-3.1024
X4.22Y-2.6247
X4.2362Y-1.7756
X4.252Y-1.9921
X4.2559Y-2.0551
X4.2579Y-2.4941
X4.2585Y-2.5315
X4.2638Y-1.9213
X4.2638Y-2.2559
X4.2717Y-2.3228
X4.2717Y-3.2165
X4.315Y-2.2913
X4.3189Y-1.6563
X4.3445Y-2.5354
X4.374Y-1.6563
X4.4094Y-2.1417
X4.4252Y-2.4843
X4.4291Y-2.1917
X4.437Y-1.6563
X4.4409Y-3.2677
X4.4536Y-2.7736
X4.4567Y-2.563
X4.4685Y-2.3228
X4.4685Y-2.9528
X4.4764Y-2.6102
X4.479Y-2.5245
X4.5039Y-1.6563
X4.5039Y-3.0354
X4.5157Y-2.5866
X4.5197Y-2.7441
X4.5197Y-2.9921
X4.5512Y-2.1969
X4.5512Y-3.3622
X4.5544Y-2.5834
X4.5591Y-1.6563
X4.5591Y-2.3071
X4.5984Y-2.6181
X4.5984Y-3.1693
X4.6142Y-1.6563
X4.6339Y-3.1693
X4.6614Y-1.6575
X4.6732Y-2.0906
X4.685Y-2.2165
X4.685Y-2.3071
X4.6929Y-1.9252
X4.6969Y-2.4528
X4.7126Y-1.6575
X4.7165Y-2.2598
X4.7638Y-1.6563
X4.7677Y-2.9213
X4.7894Y-1.939
X4.7913Y-2.2913
X4.7953Y-2.2244
X4.8031Y-2.1535
X4.8071Y-3.2559
X4.8159Y-3.1427
X4.8228Y-2.9213
X4.8278Y-3.1909
X4.8504Y-2.4252
X4.8583Y-2.3858
X4.8789Y-3.3051
X4.8858Y-2.9213
X4.9213Y-2.1378
X4.923Y-2.4624
X4.937Y-1.8906
X4.937Y-2.8189
X4.9567Y-2.9134
X4.9803Y-3.0827
X5.0079Y-1.9685
X5.0079Y-2.2677
X5.0079Y-2.3898
X5.0079Y-3.7244
X5.0118Y-2.0787
X5.0276Y-2.7717
X5.0354Y-2.5118
X5.0758Y-3.0138
X5.1024Y-3.8189
X5.1339Y-2.5551
T2
X4.4055Y-1.9681
X4.4055Y-2.0232
X4.4331Y-1.9406
X4.4331Y-1.9957
X4.4331Y-2.0508
X4.4606Y-1.9681
X4.4606Y-2.0232
X4.4882Y-1.9406
X4.4882Y-1.9957
X4.4882Y-2.0508
X4.5157Y-1.9681
X4.5157Y-2.0232
T4
X4.0772Y-3.5941
X4.1268Y-3.4941
X4.1772Y-3.5941
X4.2268Y-3.4941
X4.2772Y-3.5941
X4.3268Y-3.4941
X4.3772Y-3.5941
X4.4268Y-3.4941
T5
X3.9331Y-1.5378
X3.9331Y-1.6378
X3.9331Y-1.7378
X3.9331Y-1.8378
X3.9331Y-1.9378
X3.9331Y-2.0378
X3.9331Y-2.1378
X3.9331Y-2.2378
X3.9331Y-2.3378
X3.9331Y-2.4378
X5.0906Y-1.5378
X5.0906Y-1.6378
X5.0906Y-1.7378
X5.0906Y-1.8378
X5.0906Y-1.9378
X5.0906Y-2.0378
X5.0906Y-2.1378
X5.0906Y-2.2378
X5.0906Y-2.3378
X5.0906Y-2.4378
T6
X3.9911Y-4.0374
X4.0911Y-4.0374
X4.4128Y-4.0374
X4.5128Y-4.0374
T7
X3.947Y-3.7244
X4.5569Y-3.7244
T3
G00X4.7167Y-3.8888
M15
G01X4.7167Y-3.9321
M16
G05
G00X4.7167Y-4.06
M15
G01X4.7167Y-4.0915
M16
G05
G00X5.0569Y-3.8888
M15
G01X5.0569Y-3.9321
M16
G05
G00X5.0569Y-4.06
M15
G01X5.0569Y-4.0915
M16
G05
M30
