%TF.GenerationSoftware,KiCad,Pcbnew,9.0.8-1.fc43*%
%TF.CreationDate,2026-04-27T11:30:58+02:00*%
%TF.ProjectId,ESP32-RTL8201F-devboard,45535033-322d-4525-944c-38323031462d,rev?*%
%TF.SameCoordinates,Original*%
%TF.FileFunction,Copper,L2,Inr*%
%TF.FilePolarity,Positive*%
%FSLAX46Y46*%
G04 Gerber Fmt 4.6, Leading zero omitted, Abs format (unit mm)*
G04 Created by KiCad (PCBNEW 9.0.8-1.fc43) date 2026-04-27 11:30:58*
%MOMM*%
%LPD*%
G01*
G04 APERTURE LIST*
G04 Aperture macros list*
%AMRoundRect*
0 Rectangle with rounded corners*
0 $1 Rounding radius*
0 $2 $3 $4 $5 $6 $7 $8 $9 X,Y pos of 4 corners*
0 Add a 4 corners polygon primitive as box body*
4,1,4,$2,$3,$4,$5,$6,$7,$8,$9,$2,$3,0*
0 Add four circle primitives for the rounded corners*
1,1,$1+$1,$2,$3*
1,1,$1+$1,$4,$5*
1,1,$1+$1,$6,$7*
1,1,$1+$1,$8,$9*
0 Add four rect primitives between the rounded corners*
20,1,$1+$1,$2,$3,$4,$5,0*
20,1,$1+$1,$4,$5,$6,$7,0*
20,1,$1+$1,$6,$7,$8,$9,0*
20,1,$1+$1,$8,$9,$2,$3,0*%
G04 Aperture macros list end*
%TA.AperFunction,HeatsinkPad*%
%ADD10C,0.600000*%
%TD*%
%TA.AperFunction,ComponentPad*%
%ADD11R,1.700000X1.700000*%
%TD*%
%TA.AperFunction,ComponentPad*%
%ADD12C,1.700000*%
%TD*%
%TA.AperFunction,ComponentPad*%
%ADD13RoundRect,0.250500X-0.499500X-0.499500X0.499500X-0.499500X0.499500X0.499500X-0.499500X0.499500X0*%
%TD*%
%TA.AperFunction,ComponentPad*%
%ADD14C,1.500000*%
%TD*%
%TA.AperFunction,ComponentPad*%
%ADD15C,2.500000*%
%TD*%
%TA.AperFunction,HeatsinkPad*%
%ADD16O,1.000000X2.100000*%
%TD*%
%TA.AperFunction,HeatsinkPad*%
%ADD17O,1.000000X1.800000*%
%TD*%
%TA.AperFunction,ViaPad*%
%ADD18C,0.600000*%
%TD*%
%TA.AperFunction,ViaPad*%
%ADD19C,0.800000*%
%TD*%
G04 APERTURE END LIST*
D10*
%TO.N,GND*%
%TO.C,U6*%
X111900000Y-49990000D03*
X111900000Y-51390000D03*
X112600000Y-49290000D03*
X112600000Y-50690000D03*
X112600000Y-52090000D03*
X113300000Y-49990000D03*
X113300000Y-51390000D03*
X114000000Y-49290000D03*
X114000000Y-50690000D03*
X114000000Y-52090000D03*
X114700000Y-49990000D03*
X114700000Y-51390000D03*
%TD*%
D11*
%TO.N,+3V3*%
%TO.C,J3*%
X99900000Y-61920000D03*
D12*
%TO.N,GND*%
X99900000Y-59380000D03*
%TO.N,/IO12*%
X99900000Y-56840000D03*
%TO.N,/IO14*%
X99900000Y-54300000D03*
%TO.N,/IO33*%
X99900000Y-51760000D03*
%TO.N,/IO32*%
X99900000Y-49220000D03*
%TO.N,/IO35*%
X99900000Y-46680000D03*
%TO.N,/IO34*%
X99900000Y-44140000D03*
%TO.N,/VP*%
X99900000Y-41600000D03*
%TO.N,/VN*%
X99900000Y-39060000D03*
%TD*%
D13*
%TO.N,/MDI0_P*%
%TO.C,J1*%
X103560000Y-91290000D03*
D14*
%TO.N,/MDI0_N*%
X104820000Y-88750000D03*
%TO.N,/MDI1_P*%
X106100000Y-91290000D03*
%TO.N,/MDI0_CT*%
X107360000Y-88750000D03*
X108640000Y-91290000D03*
%TO.N,/MDI1_N*%
X109900000Y-88750000D03*
%TO.N,N/C*%
X111180000Y-91290000D03*
%TO.N,GND*%
X112440000Y-88750000D03*
%TO.N,/ETH_LED0*%
X101375000Y-102550000D03*
%TO.N,GND*%
X103915000Y-102550000D03*
X112085000Y-102550000D03*
%TO.N,/ETH_LED1*%
X114625000Y-102550000D03*
D15*
%TO.N,GND*%
X100255000Y-94600000D03*
X115745000Y-94600000D03*
%TD*%
D11*
%TO.N,VBUS*%
%TO.C,J2*%
X129300000Y-61920000D03*
D12*
%TO.N,GND*%
X129300000Y-59380000D03*
%TO.N,/IO15*%
X129300000Y-56840000D03*
%TO.N,/IO2*%
X129300000Y-54300000D03*
%TO.N,/IO4*%
X129300000Y-51760000D03*
%TO.N,/IO16*%
X129300000Y-49220000D03*
%TO.N,/IO5*%
X129300000Y-46680000D03*
%TO.N,/RXD*%
X129300000Y-44140000D03*
%TO.N,/TXD*%
X129300000Y-41600000D03*
%TO.N,/IO13*%
X129300000Y-39060000D03*
%TD*%
D16*
%TO.N,GND*%
%TO.C,J4*%
X119805000Y-99325000D03*
D17*
X119805000Y-103525000D03*
D16*
X128445000Y-99325000D03*
D17*
X128445000Y-103525000D03*
%TD*%
D18*
%TO.N,/MDI0_CT*%
X105000000Y-83700000D03*
X112800000Y-83000000D03*
D19*
%TO.N,GND*%
X117200000Y-42070000D03*
X115600000Y-85400000D03*
X115800000Y-42070000D03*
X114400000Y-42070000D03*
X119200000Y-48900000D03*
X127200000Y-50000000D03*
X119000000Y-56300000D03*
X122100000Y-82700000D03*
X125900000Y-74000000D03*
X106700000Y-78800000D03*
X115600000Y-55800000D03*
X111100000Y-42070000D03*
D18*
X108500000Y-81700000D03*
X105800000Y-71700000D03*
D19*
X101800000Y-63600000D03*
X127700000Y-70400000D03*
X112700000Y-42070000D03*
X119700000Y-42100000D03*
X127300000Y-52800000D03*
X122000000Y-54700000D03*
X130400000Y-64900000D03*
X109600000Y-58200000D03*
D18*
X115800000Y-58600000D03*
D19*
X127200000Y-57600000D03*
X109700000Y-42070000D03*
X121000000Y-42070000D03*
X127200000Y-60700000D03*
X104800000Y-66600000D03*
X101300000Y-71000000D03*
X113700000Y-66300000D03*
X104600000Y-43100000D03*
X118400000Y-42100000D03*
X129600000Y-97000000D03*
X127200000Y-94600000D03*
X118700000Y-53100000D03*
D18*
%TO.N,VBUS*%
X126500000Y-78300000D03*
D19*
%TO.N,/EN*%
X116800000Y-66500000D03*
X107600000Y-45100000D03*
%TO.N,/ETH_MDC*%
X113200000Y-65100000D03*
D18*
X108165000Y-64300000D03*
D19*
%TO.N,/IO34*%
X108300000Y-48800000D03*
%TO.N,/ETH_TXD1*%
X112400000Y-63100000D03*
X113500000Y-59000000D03*
%TO.N,/IO35*%
X108000000Y-50600000D03*
%TO.N,/IO32*%
X108100000Y-52200000D03*
%TO.N,/ETH_RXD1*%
X112500000Y-55670000D03*
D18*
X114700000Y-65700000D03*
%TO.N,/ETH_RXD0*%
X115681250Y-65618750D03*
D19*
X112000000Y-54400000D03*
%TO.N,+3V3*%
X122325000Y-79825000D03*
X124100000Y-74200000D03*
D18*
X110350000Y-64400000D03*
D19*
X125400000Y-71600000D03*
D18*
X123925000Y-83950000D03*
D19*
X127900000Y-63800000D03*
X102637500Y-45537500D03*
X122500000Y-74200000D03*
D18*
X105700000Y-79600000D03*
X122625000Y-81050000D03*
X128925000Y-76550000D03*
D19*
X121100000Y-74200000D03*
%TO.N,/ETH_MDIO*%
X113767586Y-64122364D03*
D18*
X108150000Y-63350000D03*
D19*
%TO.N,/BOOT*%
X125044975Y-62544975D03*
X123400000Y-60600000D03*
%TO.N,/ETH_CLK*%
X123200000Y-61600000D03*
X119300000Y-62300000D03*
D18*
%TO.N,/IO14*%
X108300000Y-57300000D03*
%TO.N,/IO12*%
X108500000Y-59000000D03*
%TO.N,/RTL_LED1*%
X114400000Y-77100000D03*
D19*
X106300000Y-66200000D03*
%TO.N,/RTL_LED0*%
X107186889Y-66666839D03*
D18*
X103300000Y-78700000D03*
D19*
%TO.N,/IO2*%
X119800000Y-57400000D03*
%TO.N,/IO4*%
X121700000Y-58200000D03*
%TO.N,/IO16*%
X121800000Y-56500000D03*
%TO.N,/IO5*%
X125000000Y-54300000D03*
%TO.N,Net-(U4-RXD3_CLK_CTL)*%
X114800000Y-76000000D03*
X113122512Y-70450000D03*
%TO.N,/LAN_3P3V*%
X114800000Y-69700000D03*
D18*
X104700000Y-75600000D03*
X105600000Y-70400000D03*
X113500000Y-75000000D03*
D19*
%TO.N,/RXD*%
X125400000Y-48020000D03*
D18*
X117700000Y-80500000D03*
D19*
%TO.N,/TXD*%
X121650000Y-49250000D03*
D18*
X116800000Y-80500000D03*
D19*
%TO.N,/IO15*%
X119000000Y-58600000D03*
%TD*%
%TA.AperFunction,Conductor*%
%TO.N,GND*%
G36*
X105743039Y-41119685D02*
G01*
X105788794Y-41172489D01*
X105800000Y-41224000D01*
X105800000Y-41670000D01*
X123800000Y-41670000D01*
X123800000Y-41224000D01*
X123819685Y-41156961D01*
X123872489Y-41111206D01*
X123924000Y-41100000D01*
X127871789Y-41100000D01*
X127938828Y-41119685D01*
X127984583Y-41172489D01*
X127994527Y-41241647D01*
X127989720Y-41262317D01*
X127982754Y-41283755D01*
X127982753Y-41283759D01*
X127949500Y-41493713D01*
X127949500Y-41706286D01*
X127976323Y-41875644D01*
X127982754Y-41916243D01*
X128011003Y-42003185D01*
X128048444Y-42118414D01*
X128144951Y-42307820D01*
X128269890Y-42479786D01*
X128420213Y-42630109D01*
X128592182Y-42755050D01*
X128600946Y-42759516D01*
X128651742Y-42807491D01*
X128668536Y-42875312D01*
X128645998Y-42941447D01*
X128600946Y-42980484D01*
X128592182Y-42984949D01*
X128420213Y-43109890D01*
X128269890Y-43260213D01*
X128144951Y-43432179D01*
X128048444Y-43621585D01*
X127982753Y-43823760D01*
X127949500Y-44033713D01*
X127949500Y-44246286D01*
X127982753Y-44456239D01*
X128048444Y-44658414D01*
X128144951Y-44847820D01*
X128269890Y-45019786D01*
X128420213Y-45170109D01*
X128592182Y-45295050D01*
X128600946Y-45299516D01*
X128651742Y-45347491D01*
X128668536Y-45415312D01*
X128645998Y-45481447D01*
X128600946Y-45520484D01*
X128592182Y-45524949D01*
X128420213Y-45649890D01*
X128269890Y-45800213D01*
X128144951Y-45972179D01*
X128048444Y-46161585D01*
X127982753Y-46363760D01*
X127949500Y-46573713D01*
X127949500Y-46786286D01*
X127982753Y-46996239D01*
X128048444Y-47198414D01*
X128144951Y-47387820D01*
X128269890Y-47559786D01*
X128420213Y-47710109D01*
X128592182Y-47835050D01*
X128600946Y-47839516D01*
X128651742Y-47887491D01*
X128668536Y-47955312D01*
X128645998Y-48021447D01*
X128600946Y-48060484D01*
X128592182Y-48064949D01*
X128420213Y-48189890D01*
X128269890Y-48340213D01*
X128144951Y-48512179D01*
X128048444Y-48701585D01*
X127982753Y-48903760D01*
X127949500Y-49113713D01*
X127949500Y-49326286D01*
X127979019Y-49512666D01*
X127982754Y-49536243D01*
X128047658Y-49735997D01*
X128048444Y-49738414D01*
X128144951Y-49927820D01*
X128269890Y-50099786D01*
X128420213Y-50250109D01*
X128592182Y-50375050D01*
X128600946Y-50379516D01*
X128651742Y-50427491D01*
X128668536Y-50495312D01*
X128645998Y-50561447D01*
X128600946Y-50600484D01*
X128592182Y-50604949D01*
X128420213Y-50729890D01*
X128269890Y-50880213D01*
X128144951Y-51052179D01*
X128048444Y-51241585D01*
X127982753Y-51443760D01*
X127949500Y-51653713D01*
X127949500Y-51866286D01*
X127982753Y-52076239D01*
X128048444Y-52278414D01*
X128144951Y-52467820D01*
X128269890Y-52639786D01*
X128420213Y-52790109D01*
X128592182Y-52915050D01*
X128600946Y-52919516D01*
X128651742Y-52967491D01*
X128668536Y-53035312D01*
X128645998Y-53101447D01*
X128600946Y-53140484D01*
X128592182Y-53144949D01*
X128420213Y-53269890D01*
X128269890Y-53420213D01*
X128144951Y-53592179D01*
X128048444Y-53781585D01*
X127982753Y-53983760D01*
X127949500Y-54193713D01*
X127949500Y-54406287D01*
X127982754Y-54616243D01*
X128011699Y-54705327D01*
X128048444Y-54818414D01*
X128144951Y-55007820D01*
X128269890Y-55179786D01*
X128420213Y-55330109D01*
X128592182Y-55455050D01*
X128600946Y-55459516D01*
X128651742Y-55507491D01*
X128668536Y-55575312D01*
X128645998Y-55641447D01*
X128600946Y-55680484D01*
X128592182Y-55684949D01*
X128420213Y-55809890D01*
X128269890Y-55960213D01*
X128144951Y-56132179D01*
X128048444Y-56321585D01*
X127982753Y-56523760D01*
X127949500Y-56733713D01*
X127949500Y-56946286D01*
X127979758Y-57137332D01*
X127982754Y-57156243D01*
X128040545Y-57334106D01*
X128048444Y-57358414D01*
X128144951Y-57547820D01*
X128269890Y-57719786D01*
X128420213Y-57870109D01*
X128592179Y-57995048D01*
X128592181Y-57995049D01*
X128592184Y-57995051D01*
X128601493Y-57999794D01*
X128652290Y-58047766D01*
X128669087Y-58115587D01*
X128646552Y-58181722D01*
X128601505Y-58220760D01*
X128592446Y-58225376D01*
X128592440Y-58225380D01*
X128538282Y-58264727D01*
X128538282Y-58264728D01*
X129170591Y-58897037D01*
X129107007Y-58914075D01*
X128992993Y-58979901D01*
X128899901Y-59072993D01*
X128834075Y-59187007D01*
X128817037Y-59250591D01*
X128184728Y-58618282D01*
X128184727Y-58618282D01*
X128145380Y-58672439D01*
X128048904Y-58861782D01*
X127983242Y-59063869D01*
X127983242Y-59063872D01*
X127950000Y-59273753D01*
X127950000Y-59486246D01*
X127983242Y-59696127D01*
X127983242Y-59696130D01*
X128048904Y-59898217D01*
X128145375Y-60087550D01*
X128184728Y-60141716D01*
X128817037Y-59509408D01*
X128834075Y-59572993D01*
X128899901Y-59687007D01*
X128992993Y-59780099D01*
X129107007Y-59845925D01*
X129170590Y-59862962D01*
X128500370Y-60533181D01*
X128439047Y-60566666D01*
X128412698Y-60569500D01*
X128402134Y-60569500D01*
X128402123Y-60569501D01*
X128342516Y-60575908D01*
X128207671Y-60626202D01*
X128207664Y-60626206D01*
X128092455Y-60712452D01*
X128092452Y-60712455D01*
X128006206Y-60827664D01*
X128006202Y-60827671D01*
X127955908Y-60962517D01*
X127950825Y-61009799D01*
X127949501Y-61022123D01*
X127949500Y-61022135D01*
X127949501Y-62775500D01*
X127929816Y-62842539D01*
X127877013Y-62888294D01*
X127825501Y-62899500D01*
X127811306Y-62899500D01*
X127637341Y-62934103D01*
X127637332Y-62934106D01*
X127473459Y-63001983D01*
X127473446Y-63001990D01*
X127325965Y-63100535D01*
X127325961Y-63100538D01*
X127200538Y-63225961D01*
X127200535Y-63225965D01*
X127101990Y-63373446D01*
X127101983Y-63373459D01*
X127034106Y-63537332D01*
X127034103Y-63537341D01*
X126999500Y-63711304D01*
X126999500Y-63888695D01*
X127034103Y-64062658D01*
X127034106Y-64062667D01*
X127101983Y-64226540D01*
X127101990Y-64226553D01*
X127200535Y-64374034D01*
X127200538Y-64374038D01*
X127325961Y-64499461D01*
X127325965Y-64499464D01*
X127473446Y-64598009D01*
X127473459Y-64598016D01*
X127596363Y-64648923D01*
X127637334Y-64665894D01*
X127637336Y-64665894D01*
X127637341Y-64665896D01*
X127811304Y-64700499D01*
X127811307Y-64700500D01*
X127811309Y-64700500D01*
X127988693Y-64700500D01*
X127988694Y-64700499D01*
X128046682Y-64688964D01*
X128162658Y-64665896D01*
X128162661Y-64665894D01*
X128162666Y-64665894D01*
X128326547Y-64598013D01*
X128474035Y-64499464D01*
X128599464Y-64374035D01*
X128698013Y-64226547D01*
X128765894Y-64062666D01*
X128771419Y-64034893D01*
X128789486Y-63944061D01*
X128800500Y-63888691D01*
X128800500Y-63711309D01*
X128800500Y-63711306D01*
X128800499Y-63711304D01*
X128765896Y-63537341D01*
X128765894Y-63537338D01*
X128765894Y-63537334D01*
X128726384Y-63441949D01*
X128718917Y-63372481D01*
X128750193Y-63310002D01*
X128810282Y-63274350D01*
X128840947Y-63270499D01*
X130197871Y-63270499D01*
X130197872Y-63270499D01*
X130257483Y-63264091D01*
X130392331Y-63213796D01*
X130507546Y-63127546D01*
X130593796Y-63012331D01*
X130644091Y-62877483D01*
X130650500Y-62817873D01*
X130650499Y-61022128D01*
X130644091Y-60962517D01*
X130612512Y-60877850D01*
X130593797Y-60827671D01*
X130593793Y-60827664D01*
X130507547Y-60712455D01*
X130507544Y-60712452D01*
X130392335Y-60626206D01*
X130392328Y-60626202D01*
X130257482Y-60575908D01*
X130257483Y-60575908D01*
X130197883Y-60569501D01*
X130197881Y-60569500D01*
X130197873Y-60569500D01*
X130197865Y-60569500D01*
X130187309Y-60569500D01*
X130120270Y-60549815D01*
X130099628Y-60533181D01*
X129429408Y-59862962D01*
X129492993Y-59845925D01*
X129607007Y-59780099D01*
X129700099Y-59687007D01*
X129765925Y-59572993D01*
X129782962Y-59509408D01*
X130415270Y-60141717D01*
X130415270Y-60141716D01*
X130454622Y-60087554D01*
X130551095Y-59898217D01*
X130616757Y-59696130D01*
X130616757Y-59696127D01*
X130650000Y-59486246D01*
X130650000Y-59273753D01*
X130616757Y-59063872D01*
X130616757Y-59063869D01*
X130551095Y-58861782D01*
X130454624Y-58672449D01*
X130415270Y-58618282D01*
X130415269Y-58618282D01*
X129782962Y-59250590D01*
X129765925Y-59187007D01*
X129700099Y-59072993D01*
X129607007Y-58979901D01*
X129492993Y-58914075D01*
X129429409Y-58897037D01*
X130061716Y-58264728D01*
X130007547Y-58225373D01*
X130007547Y-58225372D01*
X129998500Y-58220763D01*
X129947706Y-58172788D01*
X129930912Y-58104966D01*
X129953451Y-58038832D01*
X129998508Y-57999793D01*
X130007816Y-57995051D01*
X130108656Y-57921787D01*
X130179786Y-57870109D01*
X130179788Y-57870106D01*
X130179792Y-57870104D01*
X130330104Y-57719792D01*
X130330106Y-57719788D01*
X130330109Y-57719786D01*
X130455048Y-57547820D01*
X130455047Y-57547820D01*
X130455051Y-57547816D01*
X130551557Y-57358412D01*
X130617246Y-57156243D01*
X130650500Y-56946287D01*
X130650500Y-56733713D01*
X130617246Y-56523757D01*
X130551557Y-56321588D01*
X130455051Y-56132184D01*
X130455049Y-56132181D01*
X130455048Y-56132179D01*
X130330109Y-55960213D01*
X130179786Y-55809890D01*
X130007820Y-55684951D01*
X130007115Y-55684591D01*
X129999054Y-55680485D01*
X129948259Y-55632512D01*
X129931463Y-55564692D01*
X129953999Y-55498556D01*
X129999054Y-55459515D01*
X130007816Y-55455051D01*
X130073489Y-55407337D01*
X130179786Y-55330109D01*
X130179788Y-55330106D01*
X130179792Y-55330104D01*
X130330104Y-55179792D01*
X130330106Y-55179788D01*
X130330109Y-55179786D01*
X130455048Y-55007820D01*
X130455047Y-55007820D01*
X130455051Y-55007816D01*
X130551557Y-54818412D01*
X130617246Y-54616243D01*
X130650500Y-54406287D01*
X130650500Y-54193713D01*
X130617246Y-53983757D01*
X130551557Y-53781588D01*
X130455051Y-53592184D01*
X130455049Y-53592181D01*
X130455048Y-53592179D01*
X130330109Y-53420213D01*
X130179786Y-53269890D01*
X130007820Y-53144951D01*
X130007115Y-53144591D01*
X129999054Y-53140485D01*
X129948259Y-53092512D01*
X129931463Y-53024692D01*
X129953999Y-52958556D01*
X129999054Y-52919515D01*
X130007816Y-52915051D01*
X130029789Y-52899086D01*
X130179786Y-52790109D01*
X130179788Y-52790106D01*
X130179792Y-52790104D01*
X130330104Y-52639792D01*
X130330106Y-52639788D01*
X130330109Y-52639786D01*
X130455048Y-52467820D01*
X130455047Y-52467820D01*
X130455051Y-52467816D01*
X130551557Y-52278412D01*
X130617246Y-52076243D01*
X130650500Y-51866287D01*
X130650500Y-51653713D01*
X130617246Y-51443757D01*
X130551557Y-51241588D01*
X130455051Y-51052184D01*
X130455049Y-51052181D01*
X130455048Y-51052179D01*
X130330109Y-50880213D01*
X130179786Y-50729890D01*
X130007820Y-50604951D01*
X130007115Y-50604591D01*
X129999054Y-50600485D01*
X129948259Y-50552512D01*
X129931463Y-50484692D01*
X129953999Y-50418556D01*
X129999054Y-50379515D01*
X130007816Y-50375051D01*
X130059720Y-50337341D01*
X130179786Y-50250109D01*
X130179788Y-50250106D01*
X130179792Y-50250104D01*
X130330104Y-50099792D01*
X130330106Y-50099788D01*
X130330109Y-50099786D01*
X130455048Y-49927820D01*
X130455047Y-49927820D01*
X130455051Y-49927816D01*
X130551557Y-49738412D01*
X130617246Y-49536243D01*
X130650500Y-49326287D01*
X130650500Y-49113713D01*
X130617246Y-48903757D01*
X130551557Y-48701588D01*
X130455051Y-48512184D01*
X130455049Y-48512181D01*
X130455048Y-48512179D01*
X130330109Y-48340213D01*
X130179786Y-48189890D01*
X130007820Y-48064951D01*
X130007115Y-48064591D01*
X129999054Y-48060485D01*
X129948259Y-48012512D01*
X129931463Y-47944692D01*
X129953999Y-47878556D01*
X129999054Y-47839515D01*
X130007816Y-47835051D01*
X130029789Y-47819086D01*
X130179786Y-47710109D01*
X130179788Y-47710106D01*
X130179792Y-47710104D01*
X130330104Y-47559792D01*
X130330106Y-47559788D01*
X130330109Y-47559786D01*
X130455048Y-47387820D01*
X130455047Y-47387820D01*
X130455051Y-47387816D01*
X130551557Y-47198412D01*
X130617246Y-46996243D01*
X130650500Y-46786287D01*
X130650500Y-46573713D01*
X130617246Y-46363757D01*
X130551557Y-46161588D01*
X130455051Y-45972184D01*
X130455049Y-45972181D01*
X130455048Y-45972179D01*
X130330109Y-45800213D01*
X130179786Y-45649890D01*
X130007820Y-45524951D01*
X130007115Y-45524591D01*
X129999054Y-45520485D01*
X129948259Y-45472512D01*
X129931463Y-45404692D01*
X129953999Y-45338556D01*
X129999054Y-45299515D01*
X130007816Y-45295051D01*
X130154204Y-45188695D01*
X130179786Y-45170109D01*
X130179788Y-45170106D01*
X130179792Y-45170104D01*
X130330104Y-45019792D01*
X130330106Y-45019788D01*
X130330109Y-45019786D01*
X130455048Y-44847820D01*
X130455047Y-44847820D01*
X130455051Y-44847816D01*
X130551557Y-44658412D01*
X130617246Y-44456243D01*
X130650500Y-44246287D01*
X130650500Y-44033713D01*
X130617246Y-43823757D01*
X130551557Y-43621588D01*
X130455051Y-43432184D01*
X130455049Y-43432181D01*
X130455048Y-43432179D01*
X130330109Y-43260213D01*
X130179786Y-43109890D01*
X130007820Y-42984951D01*
X130007115Y-42984591D01*
X129999054Y-42980485D01*
X129948259Y-42932512D01*
X129931463Y-42864692D01*
X129953999Y-42798556D01*
X129999054Y-42759515D01*
X130007816Y-42755051D01*
X130029789Y-42739086D01*
X130179786Y-42630109D01*
X130179788Y-42630106D01*
X130179792Y-42630104D01*
X130330104Y-42479792D01*
X130330106Y-42479788D01*
X130330109Y-42479786D01*
X130455048Y-42307820D01*
X130455047Y-42307820D01*
X130455051Y-42307816D01*
X130551557Y-42118412D01*
X130617246Y-41916243D01*
X130650500Y-41706287D01*
X130650500Y-41493713D01*
X130617246Y-41283757D01*
X130610280Y-41262317D01*
X130608285Y-41192476D01*
X130644366Y-41132643D01*
X130707068Y-41101816D01*
X130728211Y-41100000D01*
X131115500Y-41100000D01*
X131182539Y-41119685D01*
X131228294Y-41172489D01*
X131239500Y-41224000D01*
X131239500Y-105243907D01*
X131238903Y-105256060D01*
X131238903Y-105256061D01*
X131226488Y-105382113D01*
X131221745Y-105405955D01*
X131186752Y-105521310D01*
X131177450Y-105543767D01*
X131120629Y-105650071D01*
X131107124Y-105670283D01*
X131030652Y-105763464D01*
X131013464Y-105780652D01*
X130920283Y-105857124D01*
X130900071Y-105870629D01*
X130793767Y-105927450D01*
X130771310Y-105936752D01*
X130655955Y-105971745D01*
X130632113Y-105976488D01*
X130506062Y-105988903D01*
X130493908Y-105989500D01*
X99006092Y-105989500D01*
X98993938Y-105988903D01*
X98867886Y-105976488D01*
X98844044Y-105971745D01*
X98728689Y-105936752D01*
X98706232Y-105927450D01*
X98599928Y-105870629D01*
X98579716Y-105857124D01*
X98486535Y-105780652D01*
X98469347Y-105763464D01*
X98392875Y-105670283D01*
X98379370Y-105650071D01*
X98322549Y-105543767D01*
X98313247Y-105521310D01*
X98278254Y-105405955D01*
X98273512Y-105382118D01*
X98261097Y-105256060D01*
X98260500Y-105243907D01*
X98260500Y-102451577D01*
X100124500Y-102451577D01*
X100124500Y-102648422D01*
X100155290Y-102842826D01*
X100216117Y-103030029D01*
X100305341Y-103205141D01*
X100305476Y-103205405D01*
X100421172Y-103364646D01*
X100560354Y-103503828D01*
X100719595Y-103619524D01*
X100802455Y-103661743D01*
X100894970Y-103708882D01*
X100894972Y-103708882D01*
X100894975Y-103708884D01*
X100995317Y-103741487D01*
X101082173Y-103769709D01*
X101276578Y-103800500D01*
X101276583Y-103800500D01*
X101473422Y-103800500D01*
X101667826Y-103769709D01*
X101669328Y-103769221D01*
X101855025Y-103708884D01*
X102030405Y-103619524D01*
X102189646Y-103503828D01*
X102328828Y-103364646D01*
X102444524Y-103205405D01*
X102533884Y-103030025D01*
X102533884Y-103030022D01*
X102534795Y-103028236D01*
X102582769Y-102977440D01*
X102650590Y-102960644D01*
X102716725Y-102983181D01*
X102755765Y-103028235D01*
X102845905Y-103205145D01*
X102871319Y-103240125D01*
X102871320Y-103240125D01*
X103423871Y-102687574D01*
X103439755Y-102746853D01*
X103506898Y-102863147D01*
X103601853Y-102958102D01*
X103718147Y-103025245D01*
X103777424Y-103041128D01*
X103224873Y-103593677D01*
X103224873Y-103593678D01*
X103259858Y-103619096D01*
X103435164Y-103708418D01*
X103622294Y-103769221D01*
X103816618Y-103800000D01*
X104013382Y-103800000D01*
X104207705Y-103769221D01*
X104394835Y-103708418D01*
X104570143Y-103619095D01*
X104605125Y-103593678D01*
X104605126Y-103593678D01*
X104052575Y-103041127D01*
X104111853Y-103025245D01*
X104228147Y-102958102D01*
X104323102Y-102863147D01*
X104390245Y-102746853D01*
X104406127Y-102687575D01*
X104958678Y-103240126D01*
X104958678Y-103240125D01*
X104984095Y-103205143D01*
X105073418Y-103029835D01*
X105134221Y-102842705D01*
X105165000Y-102648382D01*
X105165000Y-102451617D01*
X110835000Y-102451617D01*
X110835000Y-102648382D01*
X110865778Y-102842705D01*
X110926581Y-103029835D01*
X111015905Y-103205145D01*
X111041319Y-103240125D01*
X111041320Y-103240125D01*
X111593871Y-102687574D01*
X111609755Y-102746853D01*
X111676898Y-102863147D01*
X111771853Y-102958102D01*
X111888147Y-103025245D01*
X111947424Y-103041128D01*
X111394873Y-103593677D01*
X111394873Y-103593678D01*
X111429858Y-103619096D01*
X111605164Y-103708418D01*
X111792294Y-103769221D01*
X111986618Y-103800000D01*
X112183382Y-103800000D01*
X112377705Y-103769221D01*
X112564835Y-103708418D01*
X112740143Y-103619095D01*
X112775125Y-103593678D01*
X112775126Y-103593678D01*
X112222575Y-103041127D01*
X112281853Y-103025245D01*
X112398147Y-102958102D01*
X112493102Y-102863147D01*
X112560245Y-102746853D01*
X112576127Y-102687575D01*
X113128678Y-103240126D01*
X113128678Y-103240125D01*
X113154097Y-103205141D01*
X113244234Y-103028236D01*
X113292208Y-102977439D01*
X113360029Y-102960644D01*
X113426164Y-102983181D01*
X113465204Y-103028235D01*
X113466115Y-103030024D01*
X113466116Y-103030025D01*
X113555476Y-103205405D01*
X113671172Y-103364646D01*
X113810354Y-103503828D01*
X113969595Y-103619524D01*
X114052455Y-103661743D01*
X114144970Y-103708882D01*
X114144972Y-103708882D01*
X114144975Y-103708884D01*
X114245317Y-103741487D01*
X114332173Y-103769709D01*
X114526578Y-103800500D01*
X114526583Y-103800500D01*
X114723422Y-103800500D01*
X114917826Y-103769709D01*
X114919328Y-103769221D01*
X115105025Y-103708884D01*
X115280405Y-103619524D01*
X115439646Y-103503828D01*
X115578828Y-103364646D01*
X115694524Y-103205405D01*
X115783884Y-103030025D01*
X115785028Y-103026504D01*
X118805000Y-103026504D01*
X118805000Y-103275000D01*
X119505000Y-103275000D01*
X119505000Y-103775000D01*
X118805000Y-103775000D01*
X118805000Y-104023495D01*
X118843427Y-104216681D01*
X118843430Y-104216693D01*
X118918807Y-104398671D01*
X118918814Y-104398684D01*
X119028248Y-104562462D01*
X119028251Y-104562466D01*
X119167533Y-104701748D01*
X119167537Y-104701751D01*
X119331315Y-104811185D01*
X119331328Y-104811192D01*
X119513308Y-104886569D01*
X119555000Y-104894862D01*
X119555000Y-104091988D01*
X119564940Y-104109205D01*
X119620795Y-104165060D01*
X119689204Y-104204556D01*
X119765504Y-104225000D01*
X119844496Y-104225000D01*
X119920796Y-104204556D01*
X119989205Y-104165060D01*
X120045060Y-104109205D01*
X120055000Y-104091988D01*
X120055000Y-104894862D01*
X120096690Y-104886569D01*
X120096692Y-104886569D01*
X120278671Y-104811192D01*
X120278684Y-104811185D01*
X120442462Y-104701751D01*
X120442466Y-104701748D01*
X120581748Y-104562466D01*
X120581751Y-104562462D01*
X120691185Y-104398684D01*
X120691192Y-104398671D01*
X120766569Y-104216693D01*
X120766572Y-104216681D01*
X120804999Y-104023495D01*
X120805000Y-104023492D01*
X120805000Y-103775000D01*
X120105000Y-103775000D01*
X120105000Y-103275000D01*
X120805000Y-103275000D01*
X120805000Y-103026508D01*
X120804999Y-103026504D01*
X127445000Y-103026504D01*
X127445000Y-103275000D01*
X128145000Y-103275000D01*
X128145000Y-103775000D01*
X127445000Y-103775000D01*
X127445000Y-104023495D01*
X127483427Y-104216681D01*
X127483430Y-104216693D01*
X127558807Y-104398671D01*
X127558814Y-104398684D01*
X127668248Y-104562462D01*
X127668251Y-104562466D01*
X127807533Y-104701748D01*
X127807537Y-104701751D01*
X127971315Y-104811185D01*
X127971328Y-104811192D01*
X128153308Y-104886569D01*
X128195000Y-104894862D01*
X128195000Y-104091988D01*
X128204940Y-104109205D01*
X128260795Y-104165060D01*
X128329204Y-104204556D01*
X128405504Y-104225000D01*
X128484496Y-104225000D01*
X128560796Y-104204556D01*
X128629205Y-104165060D01*
X128685060Y-104109205D01*
X128695000Y-104091988D01*
X128695000Y-104894862D01*
X128736690Y-104886569D01*
X128736692Y-104886569D01*
X128918671Y-104811192D01*
X128918684Y-104811185D01*
X129082462Y-104701751D01*
X129082466Y-104701748D01*
X129221748Y-104562466D01*
X129221751Y-104562462D01*
X129331185Y-104398684D01*
X129331192Y-104398671D01*
X129406569Y-104216693D01*
X129406572Y-104216681D01*
X129444999Y-104023495D01*
X129445000Y-104023492D01*
X129445000Y-103775000D01*
X128745000Y-103775000D01*
X128745000Y-103275000D01*
X129445000Y-103275000D01*
X129445000Y-103026508D01*
X129444999Y-103026504D01*
X129406572Y-102833318D01*
X129406569Y-102833306D01*
X129331192Y-102651328D01*
X129331185Y-102651315D01*
X129221751Y-102487537D01*
X129221748Y-102487533D01*
X129082466Y-102348251D01*
X129082462Y-102348248D01*
X128918684Y-102238814D01*
X128918671Y-102238807D01*
X128736691Y-102163429D01*
X128736683Y-102163427D01*
X128695000Y-102155135D01*
X128695000Y-102958011D01*
X128685060Y-102940795D01*
X128629205Y-102884940D01*
X128560796Y-102845444D01*
X128484496Y-102825000D01*
X128405504Y-102825000D01*
X128329204Y-102845444D01*
X128260795Y-102884940D01*
X128204940Y-102940795D01*
X128195000Y-102958011D01*
X128195000Y-102155136D01*
X128194999Y-102155135D01*
X128153316Y-102163427D01*
X128153308Y-102163429D01*
X127971328Y-102238807D01*
X127971315Y-102238814D01*
X127807537Y-102348248D01*
X127807533Y-102348251D01*
X127668251Y-102487533D01*
X127668248Y-102487537D01*
X127558814Y-102651315D01*
X127558807Y-102651328D01*
X127483430Y-102833306D01*
X127483427Y-102833318D01*
X127445000Y-103026504D01*
X120804999Y-103026504D01*
X120766572Y-102833318D01*
X120766569Y-102833306D01*
X120691192Y-102651328D01*
X120691185Y-102651315D01*
X120581751Y-102487537D01*
X120581748Y-102487533D01*
X120442466Y-102348251D01*
X120442462Y-102348248D01*
X120278684Y-102238814D01*
X120278671Y-102238807D01*
X120096691Y-102163429D01*
X120096683Y-102163427D01*
X120055000Y-102155135D01*
X120055000Y-102958011D01*
X120045060Y-102940795D01*
X119989205Y-102884940D01*
X119920796Y-102845444D01*
X119844496Y-102825000D01*
X119765504Y-102825000D01*
X119689204Y-102845444D01*
X119620795Y-102884940D01*
X119564940Y-102940795D01*
X119555000Y-102958011D01*
X119555000Y-102155136D01*
X119554999Y-102155135D01*
X119513316Y-102163427D01*
X119513308Y-102163429D01*
X119331328Y-102238807D01*
X119331315Y-102238814D01*
X119167537Y-102348248D01*
X119167533Y-102348251D01*
X119028251Y-102487533D01*
X119028248Y-102487537D01*
X118918814Y-102651315D01*
X118918807Y-102651328D01*
X118843430Y-102833306D01*
X118843427Y-102833318D01*
X118805000Y-103026504D01*
X115785028Y-103026504D01*
X115844709Y-102842826D01*
X115847532Y-102825000D01*
X115875500Y-102648422D01*
X115875500Y-102451577D01*
X115844709Y-102257173D01*
X115783882Y-102069970D01*
X115736743Y-101977455D01*
X115694524Y-101894595D01*
X115578828Y-101735354D01*
X115439646Y-101596172D01*
X115280405Y-101480476D01*
X115105029Y-101391117D01*
X114917826Y-101330290D01*
X114723422Y-101299500D01*
X114723417Y-101299500D01*
X114526583Y-101299500D01*
X114526578Y-101299500D01*
X114332173Y-101330290D01*
X114144970Y-101391117D01*
X113969594Y-101480476D01*
X113878741Y-101546485D01*
X113810354Y-101596172D01*
X113810352Y-101596174D01*
X113810351Y-101596174D01*
X113671174Y-101735351D01*
X113671174Y-101735352D01*
X113671172Y-101735354D01*
X113621485Y-101803741D01*
X113555476Y-101894594D01*
X113465204Y-102071764D01*
X113417229Y-102122560D01*
X113349408Y-102139355D01*
X113283274Y-102116818D01*
X113244234Y-102071764D01*
X113154096Y-101894858D01*
X113128678Y-101859873D01*
X113128677Y-101859873D01*
X112576127Y-102412423D01*
X112560245Y-102353147D01*
X112493102Y-102236853D01*
X112398147Y-102141898D01*
X112281853Y-102074755D01*
X112222574Y-102058871D01*
X112775125Y-101506320D01*
X112775125Y-101506319D01*
X112740145Y-101480905D01*
X112564835Y-101391581D01*
X112377705Y-101330778D01*
X112183382Y-101300000D01*
X111986618Y-101300000D01*
X111792294Y-101330778D01*
X111605161Y-101391582D01*
X111429863Y-101480899D01*
X111429859Y-101480902D01*
X111394873Y-101506320D01*
X111394872Y-101506320D01*
X111947425Y-102058871D01*
X111888147Y-102074755D01*
X111771853Y-102141898D01*
X111676898Y-102236853D01*
X111609755Y-102353147D01*
X111593871Y-102412424D01*
X111041320Y-101859872D01*
X111041320Y-101859873D01*
X111015902Y-101894859D01*
X111015899Y-101894863D01*
X110926582Y-102070161D01*
X110865778Y-102257294D01*
X110835000Y-102451617D01*
X105165000Y-102451617D01*
X105134221Y-102257294D01*
X105073418Y-102070164D01*
X104984096Y-101894858D01*
X104958678Y-101859873D01*
X104958677Y-101859873D01*
X104406127Y-102412423D01*
X104390245Y-102353147D01*
X104323102Y-102236853D01*
X104228147Y-102141898D01*
X104111853Y-102074755D01*
X104052574Y-102058871D01*
X104605125Y-101506320D01*
X104605125Y-101506319D01*
X104570145Y-101480905D01*
X104394835Y-101391581D01*
X104207705Y-101330778D01*
X104013382Y-101300000D01*
X103816618Y-101300000D01*
X103622294Y-101330778D01*
X103435161Y-101391582D01*
X103259863Y-101480899D01*
X103259859Y-101480902D01*
X103224873Y-101506320D01*
X103224872Y-101506320D01*
X103777425Y-102058871D01*
X103718147Y-102074755D01*
X103601853Y-102141898D01*
X103506898Y-102236853D01*
X103439755Y-102353147D01*
X103423871Y-102412424D01*
X102871320Y-101859872D01*
X102871320Y-101859873D01*
X102845902Y-101894859D01*
X102755765Y-102071764D01*
X102707790Y-102122560D01*
X102639969Y-102139355D01*
X102573835Y-102116818D01*
X102534795Y-102071763D01*
X102444525Y-101894596D01*
X102419296Y-101859872D01*
X102328828Y-101735354D01*
X102189646Y-101596172D01*
X102030405Y-101480476D01*
X101855029Y-101391117D01*
X101667826Y-101330290D01*
X101473422Y-101299500D01*
X101473417Y-101299500D01*
X101276583Y-101299500D01*
X101276578Y-101299500D01*
X101082173Y-101330290D01*
X100894970Y-101391117D01*
X100719594Y-101480476D01*
X100628741Y-101546485D01*
X100560354Y-101596172D01*
X100560352Y-101596174D01*
X100560351Y-101596174D01*
X100421174Y-101735351D01*
X100421174Y-101735352D01*
X100421172Y-101735354D01*
X100371485Y-101803741D01*
X100305476Y-101894594D01*
X100216117Y-102069970D01*
X100155290Y-102257173D01*
X100124500Y-102451577D01*
X98260500Y-102451577D01*
X98260500Y-94749413D01*
X98280185Y-94682374D01*
X98332989Y-94636619D01*
X98402147Y-94626675D01*
X98465703Y-94655700D01*
X98503477Y-94714478D01*
X98507439Y-94733228D01*
X98534942Y-94942137D01*
X98594318Y-95163730D01*
X98682102Y-95375659D01*
X98682106Y-95375669D01*
X98796799Y-95574324D01*
X98796805Y-95574331D01*
X98853381Y-95648064D01*
X99527672Y-94973772D01*
X99532757Y-94986047D01*
X99621949Y-95119532D01*
X99735468Y-95233051D01*
X99868953Y-95322243D01*
X99881225Y-95327326D01*
X99206934Y-96001617D01*
X99206934Y-96001618D01*
X99280666Y-96058194D01*
X99479330Y-96172893D01*
X99479340Y-96172897D01*
X99691269Y-96260681D01*
X99912862Y-96320057D01*
X100140289Y-96349998D01*
X100140306Y-96350000D01*
X100369694Y-96350000D01*
X100369710Y-96349998D01*
X100597140Y-96320056D01*
X100597143Y-96320056D01*
X100677761Y-96298454D01*
X100747611Y-96300116D01*
X100805474Y-96339277D01*
X100832979Y-96403505D01*
X100821393Y-96472408D01*
X100808232Y-96493714D01*
X100722236Y-96605787D01*
X100599307Y-96818705D01*
X100599303Y-96818714D01*
X100505225Y-97045837D01*
X100505222Y-97045847D01*
X100441592Y-97283320D01*
X100441590Y-97283331D01*
X100409500Y-97527065D01*
X100409500Y-97772934D01*
X100414832Y-97813429D01*
X100441591Y-98016677D01*
X100441592Y-98016679D01*
X100505222Y-98254152D01*
X100505225Y-98254162D01*
X100596700Y-98475000D01*
X100599306Y-98481292D01*
X100722233Y-98694208D01*
X100722235Y-98694211D01*
X100722236Y-98694212D01*
X100871897Y-98889254D01*
X100871903Y-98889261D01*
X101045738Y-99063096D01*
X101045744Y-99063101D01*
X101240792Y-99212767D01*
X101453708Y-99335694D01*
X101680847Y-99429778D01*
X101918323Y-99493409D01*
X102162073Y-99525500D01*
X102162080Y-99525500D01*
X102407920Y-99525500D01*
X102407927Y-99525500D01*
X102651677Y-99493409D01*
X102889153Y-99429778D01*
X103116292Y-99335694D01*
X103329208Y-99212767D01*
X103524256Y-99063101D01*
X103698101Y-98889256D01*
X103847767Y-98694208D01*
X103970694Y-98481292D01*
X104064778Y-98254153D01*
X104128409Y-98016677D01*
X104160500Y-97772927D01*
X104160500Y-97527073D01*
X104160499Y-97527065D01*
X111839500Y-97527065D01*
X111839500Y-97772934D01*
X111844832Y-97813429D01*
X111871591Y-98016677D01*
X111871592Y-98016679D01*
X111935222Y-98254152D01*
X111935225Y-98254162D01*
X112026700Y-98475000D01*
X112029306Y-98481292D01*
X112152233Y-98694208D01*
X112152235Y-98694211D01*
X112152236Y-98694212D01*
X112301897Y-98889254D01*
X112301903Y-98889261D01*
X112475738Y-99063096D01*
X112475744Y-99063101D01*
X112670792Y-99212767D01*
X112883708Y-99335694D01*
X113110847Y-99429778D01*
X113348323Y-99493409D01*
X113592073Y-99525500D01*
X113592080Y-99525500D01*
X113837920Y-99525500D01*
X113837927Y-99525500D01*
X114081677Y-99493409D01*
X114319153Y-99429778D01*
X114546292Y-99335694D01*
X114759208Y-99212767D01*
X114954256Y-99063101D01*
X115128101Y-98889256D01*
X115277767Y-98694208D01*
X115287988Y-98676504D01*
X118805000Y-98676504D01*
X118805000Y-99075000D01*
X119505000Y-99075000D01*
X119505000Y-99575000D01*
X118805000Y-99575000D01*
X118805000Y-99973495D01*
X118843427Y-100166681D01*
X118843430Y-100166693D01*
X118918807Y-100348671D01*
X118918814Y-100348684D01*
X119028248Y-100512462D01*
X119028251Y-100512466D01*
X119167533Y-100651748D01*
X119167537Y-100651751D01*
X119331315Y-100761185D01*
X119331328Y-100761192D01*
X119513308Y-100836569D01*
X119555000Y-100844862D01*
X119555000Y-100041988D01*
X119564940Y-100059205D01*
X119620795Y-100115060D01*
X119689204Y-100154556D01*
X119765504Y-100175000D01*
X119844496Y-100175000D01*
X119920796Y-100154556D01*
X119989205Y-100115060D01*
X120045060Y-100059205D01*
X120055000Y-100041988D01*
X120055000Y-100844862D01*
X120096690Y-100836569D01*
X120096692Y-100836569D01*
X120278671Y-100761192D01*
X120278684Y-100761185D01*
X120442462Y-100651751D01*
X120442466Y-100651748D01*
X120581748Y-100512466D01*
X120581751Y-100512462D01*
X120691181Y-100348690D01*
X120694037Y-100343346D01*
X120742993Y-100293495D01*
X120811128Y-100278025D01*
X120876811Y-100301847D01*
X120878895Y-100303412D01*
X120881632Y-100305512D01*
X120881635Y-100305515D01*
X121012865Y-100381281D01*
X121159234Y-100420500D01*
X121159236Y-100420500D01*
X121310764Y-100420500D01*
X121310766Y-100420500D01*
X121457135Y-100381281D01*
X121588365Y-100305515D01*
X121695515Y-100198365D01*
X121771281Y-100067135D01*
X121810500Y-99920766D01*
X121810500Y-99769234D01*
X126439500Y-99769234D01*
X126439500Y-99920765D01*
X126478719Y-100067136D01*
X126516602Y-100132750D01*
X126554485Y-100198365D01*
X126661635Y-100305515D01*
X126792865Y-100381281D01*
X126939234Y-100420500D01*
X126939236Y-100420500D01*
X127090764Y-100420500D01*
X127090766Y-100420500D01*
X127237135Y-100381281D01*
X127368365Y-100305515D01*
X127368373Y-100305506D01*
X127371105Y-100303412D01*
X127373834Y-100302356D01*
X127375403Y-100301451D01*
X127375544Y-100301695D01*
X127436274Y-100278215D01*
X127504719Y-100292251D01*
X127554710Y-100341064D01*
X127555955Y-100343335D01*
X127558812Y-100348680D01*
X127668248Y-100512462D01*
X127668251Y-100512466D01*
X127807533Y-100651748D01*
X127807537Y-100651751D01*
X127971315Y-100761185D01*
X127971328Y-100761192D01*
X128153308Y-100836569D01*
X128195000Y-100844862D01*
X128195000Y-100041988D01*
X128204940Y-100059205D01*
X128260795Y-100115060D01*
X128329204Y-100154556D01*
X128405504Y-100175000D01*
X128484496Y-100175000D01*
X128560796Y-100154556D01*
X128629205Y-100115060D01*
X128685060Y-100059205D01*
X128695000Y-100041988D01*
X128695000Y-100844862D01*
X128736690Y-100836569D01*
X128736692Y-100836569D01*
X128918671Y-100761192D01*
X128918684Y-100761185D01*
X129082462Y-100651751D01*
X129082466Y-100651748D01*
X129221748Y-100512466D01*
X129221751Y-100512462D01*
X129331185Y-100348684D01*
X129331192Y-100348671D01*
X129406569Y-100166693D01*
X129406572Y-100166681D01*
X129444999Y-99973495D01*
X129445000Y-99973492D01*
X129445000Y-99575000D01*
X128745000Y-99575000D01*
X128745000Y-99075000D01*
X129445000Y-99075000D01*
X129445000Y-98676508D01*
X129444999Y-98676504D01*
X129406572Y-98483318D01*
X129406569Y-98483306D01*
X129331192Y-98301328D01*
X129331185Y-98301315D01*
X129221751Y-98137537D01*
X129221748Y-98137533D01*
X129082466Y-97998251D01*
X129082462Y-97998248D01*
X128918684Y-97888814D01*
X128918671Y-97888807D01*
X128736691Y-97813429D01*
X128736683Y-97813427D01*
X128695000Y-97805135D01*
X128695000Y-98608011D01*
X128685060Y-98590795D01*
X128629205Y-98534940D01*
X128560796Y-98495444D01*
X128484496Y-98475000D01*
X128405504Y-98475000D01*
X128329204Y-98495444D01*
X128260795Y-98534940D01*
X128204940Y-98590795D01*
X128195000Y-98608011D01*
X128195000Y-97805136D01*
X128194999Y-97805135D01*
X128153316Y-97813427D01*
X128153308Y-97813429D01*
X127971328Y-97888807D01*
X127971315Y-97888814D01*
X127807537Y-97998248D01*
X127807533Y-97998251D01*
X127668251Y-98137533D01*
X127668248Y-98137537D01*
X127558814Y-98301315D01*
X127558807Y-98301328D01*
X127483430Y-98483306D01*
X127483427Y-98483318D01*
X127445000Y-98676504D01*
X127445000Y-99075000D01*
X128145000Y-99075000D01*
X128145000Y-99575000D01*
X127595237Y-99575000D01*
X127528198Y-99555315D01*
X127487850Y-99513000D01*
X127476539Y-99493409D01*
X127475515Y-99491635D01*
X127368365Y-99384485D01*
X127302750Y-99346602D01*
X127237136Y-99308719D01*
X127163950Y-99289109D01*
X127090766Y-99269500D01*
X126939234Y-99269500D01*
X126792863Y-99308719D01*
X126661635Y-99384485D01*
X126661632Y-99384487D01*
X126554487Y-99491632D01*
X126554485Y-99491635D01*
X126478719Y-99622863D01*
X126439500Y-99769234D01*
X121810500Y-99769234D01*
X121771281Y-99622865D01*
X121695515Y-99491635D01*
X121588365Y-99384485D01*
X121522750Y-99346602D01*
X121457136Y-99308719D01*
X121383950Y-99289109D01*
X121310766Y-99269500D01*
X121159234Y-99269500D01*
X121012863Y-99308719D01*
X120881635Y-99384485D01*
X120881632Y-99384487D01*
X120774487Y-99491632D01*
X120774483Y-99491638D01*
X120762150Y-99513000D01*
X120711583Y-99561216D01*
X120654763Y-99575000D01*
X120105000Y-99575000D01*
X120105000Y-99075000D01*
X120805000Y-99075000D01*
X120805000Y-98676508D01*
X120804999Y-98676504D01*
X120766572Y-98483318D01*
X120766569Y-98483306D01*
X120691192Y-98301328D01*
X120691185Y-98301315D01*
X120581751Y-98137537D01*
X120581748Y-98137533D01*
X120442466Y-97998251D01*
X120442462Y-97998248D01*
X120278684Y-97888814D01*
X120278671Y-97888807D01*
X120096691Y-97813429D01*
X120096683Y-97813427D01*
X120055000Y-97805135D01*
X120055000Y-98608011D01*
X120045060Y-98590795D01*
X119989205Y-98534940D01*
X119920796Y-98495444D01*
X119844496Y-98475000D01*
X119765504Y-98475000D01*
X119689204Y-98495444D01*
X119620795Y-98534940D01*
X119564940Y-98590795D01*
X119555000Y-98608011D01*
X119555000Y-97805136D01*
X119554999Y-97805135D01*
X119513316Y-97813427D01*
X119513308Y-97813429D01*
X119331328Y-97888807D01*
X119331315Y-97888814D01*
X119167537Y-97998248D01*
X119167533Y-97998251D01*
X119028251Y-98137533D01*
X119028248Y-98137537D01*
X118918814Y-98301315D01*
X118918807Y-98301328D01*
X118843430Y-98483306D01*
X118843427Y-98483318D01*
X118805000Y-98676504D01*
X115287988Y-98676504D01*
X115400694Y-98481292D01*
X115494778Y-98254153D01*
X115558409Y-98016677D01*
X115590500Y-97772927D01*
X115590500Y-97527073D01*
X115558409Y-97283323D01*
X115494778Y-97045847D01*
X115400694Y-96818708D01*
X115277767Y-96605792D01*
X115261627Y-96584758D01*
X115191767Y-96493714D01*
X115166573Y-96428545D01*
X115180611Y-96360100D01*
X115229425Y-96310111D01*
X115297517Y-96294447D01*
X115322238Y-96298453D01*
X115402865Y-96320057D01*
X115630289Y-96349998D01*
X115630306Y-96350000D01*
X115859694Y-96350000D01*
X115859710Y-96349998D01*
X116087137Y-96320057D01*
X116308730Y-96260681D01*
X116520659Y-96172897D01*
X116520668Y-96172893D01*
X116719327Y-96058197D01*
X116719334Y-96058192D01*
X116793064Y-96001617D01*
X116118773Y-95327326D01*
X116131047Y-95322243D01*
X116264532Y-95233051D01*
X116378051Y-95119532D01*
X116467243Y-94986047D01*
X116472326Y-94973773D01*
X117146617Y-95648064D01*
X117203192Y-95574334D01*
X117203197Y-95574327D01*
X117317893Y-95375668D01*
X117317897Y-95375659D01*
X117405681Y-95163730D01*
X117465057Y-94942137D01*
X117494998Y-94714710D01*
X117495000Y-94714694D01*
X117495000Y-94485305D01*
X117494998Y-94485289D01*
X117465057Y-94257862D01*
X117405681Y-94036269D01*
X117317897Y-93824340D01*
X117317893Y-93824330D01*
X117203194Y-93625666D01*
X117146618Y-93551934D01*
X117146617Y-93551934D01*
X116472326Y-94226225D01*
X116467243Y-94213953D01*
X116378051Y-94080468D01*
X116264532Y-93966949D01*
X116131047Y-93877757D01*
X116118772Y-93872672D01*
X116793064Y-93198381D01*
X116793064Y-93198380D01*
X116719331Y-93141805D01*
X116719324Y-93141799D01*
X116520669Y-93027106D01*
X116520659Y-93027102D01*
X116308730Y-92939318D01*
X116087137Y-92879942D01*
X115859710Y-92850001D01*
X115859694Y-92850000D01*
X115630306Y-92850000D01*
X115630289Y-92850001D01*
X115402862Y-92879942D01*
X115181269Y-92939318D01*
X114969340Y-93027102D01*
X114969330Y-93027106D01*
X114770673Y-93141801D01*
X114770659Y-93141810D01*
X114696934Y-93198380D01*
X115371226Y-93872673D01*
X115358953Y-93877757D01*
X115225468Y-93966949D01*
X115111949Y-94080468D01*
X115022757Y-94213953D01*
X115017672Y-94226226D01*
X114343380Y-93551934D01*
X114286810Y-93625659D01*
X114286801Y-93625673D01*
X114172106Y-93824330D01*
X114172102Y-93824340D01*
X114084318Y-94036269D01*
X114024942Y-94257862D01*
X113995001Y-94485289D01*
X113995000Y-94485305D01*
X113995000Y-94714694D01*
X113995001Y-94714710D01*
X114024942Y-94942137D01*
X114084318Y-95163730D01*
X114172102Y-95375659D01*
X114172106Y-95375668D01*
X114286809Y-95574338D01*
X114341864Y-95646088D01*
X114367058Y-95711257D01*
X114353019Y-95779702D01*
X114304205Y-95829692D01*
X114236114Y-95845355D01*
X114211399Y-95841349D01*
X114081677Y-95806591D01*
X114035587Y-95800523D01*
X113837934Y-95774500D01*
X113837927Y-95774500D01*
X113592073Y-95774500D01*
X113592065Y-95774500D01*
X113360059Y-95805045D01*
X113348323Y-95806591D01*
X113203653Y-95845355D01*
X113110847Y-95870222D01*
X113110837Y-95870225D01*
X112883714Y-95964303D01*
X112883705Y-95964307D01*
X112670787Y-96087236D01*
X112475745Y-96236897D01*
X112475738Y-96236903D01*
X112301903Y-96410738D01*
X112301897Y-96410745D01*
X112152236Y-96605787D01*
X112029307Y-96818705D01*
X112029303Y-96818714D01*
X111935225Y-97045837D01*
X111935222Y-97045847D01*
X111871592Y-97283320D01*
X111871590Y-97283331D01*
X111839500Y-97527065D01*
X104160499Y-97527065D01*
X104128409Y-97283323D01*
X104064778Y-97045847D01*
X103970694Y-96818708D01*
X103847767Y-96605792D01*
X103698101Y-96410744D01*
X103698096Y-96410738D01*
X103524261Y-96236903D01*
X103524254Y-96236897D01*
X103329212Y-96087236D01*
X103329211Y-96087235D01*
X103329208Y-96087233D01*
X103116292Y-95964306D01*
X103116285Y-95964303D01*
X102889162Y-95870225D01*
X102889155Y-95870223D01*
X102889153Y-95870222D01*
X102651677Y-95806591D01*
X102605587Y-95800523D01*
X102407934Y-95774500D01*
X102407927Y-95774500D01*
X102162073Y-95774500D01*
X102162065Y-95774500D01*
X101930059Y-95805045D01*
X101918323Y-95806591D01*
X101788603Y-95841348D01*
X101718754Y-95839686D01*
X101660892Y-95800523D01*
X101633388Y-95736295D01*
X101644975Y-95667392D01*
X101658135Y-95646087D01*
X101713193Y-95574334D01*
X101827893Y-95375668D01*
X101827897Y-95375659D01*
X101915681Y-95163730D01*
X101975057Y-94942137D01*
X102004998Y-94714710D01*
X102005000Y-94714694D01*
X102005000Y-94485305D01*
X102004998Y-94485289D01*
X101975057Y-94257862D01*
X101915681Y-94036269D01*
X101827897Y-93824340D01*
X101827893Y-93824330D01*
X101713194Y-93625666D01*
X101656618Y-93551934D01*
X101656617Y-93551934D01*
X100982326Y-94226225D01*
X100977243Y-94213953D01*
X100888051Y-94080468D01*
X100774532Y-93966949D01*
X100641047Y-93877757D01*
X100628772Y-93872672D01*
X101303064Y-93198381D01*
X101303064Y-93198380D01*
X101229331Y-93141805D01*
X101229324Y-93141799D01*
X101030669Y-93027106D01*
X101030659Y-93027102D01*
X100818730Y-92939318D01*
X100597137Y-92879942D01*
X100369710Y-92850001D01*
X100369694Y-92850000D01*
X100140306Y-92850000D01*
X100140289Y-92850001D01*
X99912862Y-92879942D01*
X99691269Y-92939318D01*
X99479340Y-93027102D01*
X99479330Y-93027106D01*
X99280673Y-93141801D01*
X99280659Y-93141810D01*
X99206934Y-93198380D01*
X99881226Y-93872673D01*
X99868953Y-93877757D01*
X99735468Y-93966949D01*
X99621949Y-94080468D01*
X99532757Y-94213953D01*
X99527673Y-94226226D01*
X98853380Y-93551934D01*
X98796810Y-93625659D01*
X98796801Y-93625673D01*
X98682106Y-93824330D01*
X98682102Y-93824340D01*
X98594318Y-94036269D01*
X98534942Y-94257862D01*
X98507439Y-94466771D01*
X98479172Y-94530668D01*
X98420848Y-94569139D01*
X98350983Y-94569970D01*
X98291760Y-94532898D01*
X98261981Y-94469692D01*
X98260500Y-94450586D01*
X98260500Y-90740446D01*
X102309500Y-90740446D01*
X102309500Y-91839553D01*
X102315117Y-91894525D01*
X102320008Y-91942399D01*
X102375229Y-92109047D01*
X102467393Y-92258468D01*
X102591532Y-92382607D01*
X102740953Y-92474771D01*
X102907601Y-92529992D01*
X103010454Y-92540500D01*
X103010459Y-92540500D01*
X104109541Y-92540500D01*
X104109546Y-92540500D01*
X104212399Y-92529992D01*
X104379047Y-92474771D01*
X104528468Y-92382607D01*
X104652607Y-92258468D01*
X104744771Y-92109047D01*
X104796820Y-91951970D01*
X104836592Y-91894525D01*
X104901108Y-91867702D01*
X104969884Y-91880017D01*
X105021084Y-91927559D01*
X105025009Y-91934675D01*
X105030476Y-91945405D01*
X105146172Y-92104646D01*
X105285354Y-92243828D01*
X105444595Y-92359524D01*
X105527455Y-92401743D01*
X105619970Y-92448882D01*
X105619972Y-92448882D01*
X105619975Y-92448884D01*
X105699647Y-92474771D01*
X105807173Y-92509709D01*
X106001578Y-92540500D01*
X106001583Y-92540500D01*
X106198422Y-92540500D01*
X106392826Y-92509709D01*
X106580025Y-92448884D01*
X106755405Y-92359524D01*
X106914646Y-92243828D01*
X107053828Y-92104646D01*
X107169524Y-91945405D01*
X107178617Y-91927559D01*
X107259515Y-91768787D01*
X107307489Y-91717990D01*
X107375310Y-91701195D01*
X107441445Y-91723732D01*
X107480485Y-91768787D01*
X107570474Y-91945403D01*
X107605234Y-91993246D01*
X107686172Y-92104646D01*
X107825354Y-92243828D01*
X107984595Y-92359524D01*
X108067455Y-92401743D01*
X108159970Y-92448882D01*
X108159972Y-92448882D01*
X108159975Y-92448884D01*
X108239647Y-92474771D01*
X108347173Y-92509709D01*
X108541578Y-92540500D01*
X108541583Y-92540500D01*
X108738422Y-92540500D01*
X108932826Y-92509709D01*
X109120025Y-92448884D01*
X109295405Y-92359524D01*
X109454646Y-92243828D01*
X109593828Y-92104646D01*
X109709524Y-91945405D01*
X109718617Y-91927559D01*
X109799515Y-91768787D01*
X109847489Y-91717990D01*
X109915310Y-91701195D01*
X109981445Y-91723732D01*
X110020485Y-91768787D01*
X110110474Y-91945403D01*
X110145234Y-91993246D01*
X110226172Y-92104646D01*
X110365354Y-92243828D01*
X110524595Y-92359524D01*
X110607455Y-92401743D01*
X110699970Y-92448882D01*
X110699972Y-92448882D01*
X110699975Y-92448884D01*
X110779647Y-92474771D01*
X110887173Y-92509709D01*
X111081578Y-92540500D01*
X111081583Y-92540500D01*
X111278422Y-92540500D01*
X111472826Y-92509709D01*
X111660025Y-92448884D01*
X111835405Y-92359524D01*
X111994646Y-92243828D01*
X112133828Y-92104646D01*
X112249524Y-91945405D01*
X112338884Y-91770025D01*
X112399709Y-91582826D01*
X112430500Y-91388422D01*
X112430500Y-91191577D01*
X112399709Y-90997173D01*
X112338882Y-90809970D01*
X112280871Y-90696117D01*
X112249524Y-90634595D01*
X112133828Y-90475354D01*
X111994646Y-90336172D01*
X111835405Y-90220476D01*
X111790102Y-90197393D01*
X111660029Y-90131117D01*
X111472826Y-90070290D01*
X111278422Y-90039500D01*
X111278417Y-90039500D01*
X111081583Y-90039500D01*
X111081578Y-90039500D01*
X110887173Y-90070290D01*
X110699970Y-90131117D01*
X110524594Y-90220476D01*
X110433741Y-90286485D01*
X110365354Y-90336172D01*
X110365352Y-90336174D01*
X110365351Y-90336174D01*
X110226174Y-90475351D01*
X110226174Y-90475352D01*
X110226172Y-90475354D01*
X110176485Y-90543741D01*
X110110476Y-90634594D01*
X110020485Y-90811213D01*
X109972511Y-90862009D01*
X109904690Y-90878804D01*
X109838555Y-90856267D01*
X109799515Y-90811213D01*
X109772397Y-90757992D01*
X109709524Y-90634595D01*
X109593828Y-90475354D01*
X109454646Y-90336172D01*
X109295405Y-90220476D01*
X109250102Y-90197393D01*
X109120029Y-90131117D01*
X108932826Y-90070290D01*
X108738422Y-90039500D01*
X108738417Y-90039500D01*
X108541583Y-90039500D01*
X108541578Y-90039500D01*
X108347173Y-90070290D01*
X108159970Y-90131117D01*
X107984594Y-90220476D01*
X107893741Y-90286485D01*
X107825354Y-90336172D01*
X107825352Y-90336174D01*
X107825351Y-90336174D01*
X107686174Y-90475351D01*
X107686174Y-90475352D01*
X107686172Y-90475354D01*
X107636485Y-90543741D01*
X107570476Y-90634594D01*
X107480485Y-90811213D01*
X107432511Y-90862009D01*
X107364690Y-90878804D01*
X107298555Y-90856267D01*
X107259515Y-90811213D01*
X107232397Y-90757992D01*
X107169524Y-90634595D01*
X107053828Y-90475354D01*
X106914646Y-90336172D01*
X106755405Y-90220476D01*
X106710102Y-90197393D01*
X106580029Y-90131117D01*
X106392826Y-90070290D01*
X106198422Y-90039500D01*
X106198417Y-90039500D01*
X106001583Y-90039500D01*
X106001578Y-90039500D01*
X105807173Y-90070290D01*
X105619970Y-90131117D01*
X105444594Y-90220476D01*
X105353741Y-90286485D01*
X105285354Y-90336172D01*
X105285352Y-90336174D01*
X105285351Y-90336174D01*
X105146174Y-90475351D01*
X105146174Y-90475352D01*
X105146172Y-90475354D01*
X105088324Y-90554974D01*
X105030474Y-90634597D01*
X105025009Y-90645323D01*
X104977034Y-90696117D01*
X104909212Y-90712911D01*
X104843078Y-90690372D01*
X104799628Y-90635656D01*
X104796820Y-90628029D01*
X104746229Y-90475354D01*
X104744771Y-90470953D01*
X104652607Y-90321532D01*
X104528468Y-90197393D01*
X104528034Y-90196959D01*
X104494549Y-90135636D01*
X104499533Y-90065944D01*
X104541405Y-90010011D01*
X104606869Y-89985594D01*
X104635113Y-89986805D01*
X104721578Y-90000500D01*
X104721583Y-90000500D01*
X104918422Y-90000500D01*
X105112826Y-89969709D01*
X105114328Y-89969221D01*
X105300025Y-89908884D01*
X105475405Y-89819524D01*
X105634646Y-89703828D01*
X105773828Y-89564646D01*
X105889524Y-89405405D01*
X105978884Y-89230025D01*
X105979515Y-89228787D01*
X106027489Y-89177990D01*
X106095310Y-89161195D01*
X106161445Y-89183732D01*
X106200485Y-89228787D01*
X106290474Y-89405403D01*
X106315702Y-89440125D01*
X106406172Y-89564646D01*
X106545354Y-89703828D01*
X106704595Y-89819524D01*
X106787455Y-89861743D01*
X106879970Y-89908882D01*
X106879972Y-89908882D01*
X106879975Y-89908884D01*
X106976127Y-89940126D01*
X107067173Y-89969709D01*
X107261578Y-90000500D01*
X107261583Y-90000500D01*
X107458422Y-90000500D01*
X107652826Y-89969709D01*
X107654328Y-89969221D01*
X107840025Y-89908884D01*
X108015405Y-89819524D01*
X108174646Y-89703828D01*
X108313828Y-89564646D01*
X108429524Y-89405405D01*
X108518884Y-89230025D01*
X108519515Y-89228787D01*
X108567489Y-89177990D01*
X108635310Y-89161195D01*
X108701445Y-89183732D01*
X108740485Y-89228787D01*
X108830474Y-89405403D01*
X108855702Y-89440125D01*
X108946172Y-89564646D01*
X109085354Y-89703828D01*
X109244595Y-89819524D01*
X109327455Y-89861743D01*
X109419970Y-89908882D01*
X109419972Y-89908882D01*
X109419975Y-89908884D01*
X109516127Y-89940126D01*
X109607173Y-89969709D01*
X109801578Y-90000500D01*
X109801583Y-90000500D01*
X109998422Y-90000500D01*
X110192826Y-89969709D01*
X110194328Y-89969221D01*
X110380025Y-89908884D01*
X110555405Y-89819524D01*
X110714646Y-89703828D01*
X110853828Y-89564646D01*
X110969524Y-89405405D01*
X111058884Y-89230025D01*
X111058884Y-89230022D01*
X111059795Y-89228236D01*
X111107769Y-89177440D01*
X111175590Y-89160644D01*
X111241725Y-89183181D01*
X111280765Y-89228235D01*
X111370905Y-89405145D01*
X111396319Y-89440125D01*
X111396320Y-89440125D01*
X112001944Y-88834501D01*
X112025326Y-88921764D01*
X112083911Y-89023236D01*
X112166764Y-89106089D01*
X112268236Y-89164674D01*
X112355497Y-89188055D01*
X111749873Y-89793677D01*
X111749873Y-89793678D01*
X111784858Y-89819096D01*
X111960164Y-89908418D01*
X112147294Y-89969221D01*
X112341618Y-90000000D01*
X112538382Y-90000000D01*
X112732705Y-89969221D01*
X112919835Y-89908418D01*
X113095143Y-89819095D01*
X113130125Y-89793678D01*
X113130126Y-89793678D01*
X112524503Y-89188055D01*
X112611764Y-89164674D01*
X112713236Y-89106089D01*
X112796089Y-89023236D01*
X112854674Y-88921764D01*
X112878055Y-88834503D01*
X113483678Y-89440126D01*
X113483678Y-89440125D01*
X113509095Y-89405143D01*
X113598418Y-89229835D01*
X113659221Y-89042705D01*
X113690000Y-88848382D01*
X113690000Y-88651617D01*
X113659221Y-88457294D01*
X113598418Y-88270164D01*
X113509096Y-88094858D01*
X113483678Y-88059873D01*
X113483677Y-88059873D01*
X112878055Y-88665496D01*
X112854674Y-88578236D01*
X112796089Y-88476764D01*
X112713236Y-88393911D01*
X112611764Y-88335326D01*
X112524502Y-88311944D01*
X113130125Y-87706320D01*
X113130125Y-87706319D01*
X113095145Y-87680905D01*
X112919835Y-87591581D01*
X112732705Y-87530778D01*
X112538382Y-87500000D01*
X112341618Y-87500000D01*
X112147294Y-87530778D01*
X111960161Y-87591582D01*
X111784863Y-87680899D01*
X111784859Y-87680902D01*
X111749873Y-87706320D01*
X111749872Y-87706320D01*
X112355498Y-88311944D01*
X112268236Y-88335326D01*
X112166764Y-88393911D01*
X112083911Y-88476764D01*
X112025326Y-88578236D01*
X112001944Y-88665497D01*
X111396320Y-88059872D01*
X111396320Y-88059873D01*
X111370902Y-88094859D01*
X111280765Y-88271764D01*
X111232790Y-88322560D01*
X111164969Y-88339355D01*
X111098835Y-88316818D01*
X111059795Y-88271763D01*
X110969525Y-88094596D01*
X110944296Y-88059872D01*
X110853828Y-87935354D01*
X110714646Y-87796172D01*
X110555405Y-87680476D01*
X110380029Y-87591117D01*
X110192826Y-87530290D01*
X109998422Y-87499500D01*
X109998417Y-87499500D01*
X109801583Y-87499500D01*
X109801578Y-87499500D01*
X109607173Y-87530290D01*
X109419970Y-87591117D01*
X109244594Y-87680476D01*
X109153741Y-87746485D01*
X109085354Y-87796172D01*
X109085352Y-87796174D01*
X109085351Y-87796174D01*
X108946174Y-87935351D01*
X108946174Y-87935352D01*
X108946172Y-87935354D01*
X108896485Y-88003741D01*
X108830476Y-88094594D01*
X108740485Y-88271213D01*
X108692511Y-88322009D01*
X108624690Y-88338804D01*
X108558555Y-88316267D01*
X108519515Y-88271213D01*
X108492397Y-88217992D01*
X108429524Y-88094595D01*
X108313828Y-87935354D01*
X108174646Y-87796172D01*
X108015405Y-87680476D01*
X107840029Y-87591117D01*
X107652826Y-87530290D01*
X107458422Y-87499500D01*
X107458417Y-87499500D01*
X107261583Y-87499500D01*
X107261578Y-87499500D01*
X107067173Y-87530290D01*
X106879970Y-87591117D01*
X106704594Y-87680476D01*
X106613741Y-87746485D01*
X106545354Y-87796172D01*
X106545352Y-87796174D01*
X106545351Y-87796174D01*
X106406174Y-87935351D01*
X106406174Y-87935352D01*
X106406172Y-87935354D01*
X106356485Y-88003741D01*
X106290476Y-88094594D01*
X106200485Y-88271213D01*
X106152511Y-88322009D01*
X106084690Y-88338804D01*
X106018555Y-88316267D01*
X105979515Y-88271213D01*
X105952397Y-88217992D01*
X105889524Y-88094595D01*
X105773828Y-87935354D01*
X105634646Y-87796172D01*
X105475405Y-87680476D01*
X105300029Y-87591117D01*
X105112826Y-87530290D01*
X104918422Y-87499500D01*
X104918417Y-87499500D01*
X104721583Y-87499500D01*
X104721578Y-87499500D01*
X104527173Y-87530290D01*
X104339970Y-87591117D01*
X104164594Y-87680476D01*
X104073741Y-87746485D01*
X104005354Y-87796172D01*
X104005352Y-87796174D01*
X104005351Y-87796174D01*
X103866174Y-87935351D01*
X103866174Y-87935352D01*
X103866172Y-87935354D01*
X103816485Y-88003741D01*
X103750476Y-88094594D01*
X103661117Y-88269970D01*
X103600290Y-88457173D01*
X103569500Y-88651577D01*
X103569500Y-88848422D01*
X103600290Y-89042826D01*
X103661117Y-89230029D01*
X103750343Y-89405143D01*
X103750476Y-89405405D01*
X103866172Y-89564646D01*
X104005354Y-89703828D01*
X104158619Y-89815182D01*
X104201284Y-89870512D01*
X104207263Y-89940126D01*
X104174657Y-90001921D01*
X104113818Y-90036278D01*
X104085733Y-90039500D01*
X103010446Y-90039500D01*
X102907600Y-90050008D01*
X102740955Y-90105228D01*
X102740950Y-90105230D01*
X102591530Y-90197394D01*
X102467394Y-90321530D01*
X102375230Y-90470950D01*
X102375228Y-90470955D01*
X102320008Y-90637600D01*
X102309500Y-90740446D01*
X98260500Y-90740446D01*
X98260500Y-83621153D01*
X104199500Y-83621153D01*
X104199500Y-83778846D01*
X104230261Y-83933489D01*
X104230264Y-83933501D01*
X104290602Y-84079172D01*
X104290609Y-84079185D01*
X104378210Y-84210288D01*
X104378213Y-84210292D01*
X104489707Y-84321786D01*
X104489711Y-84321789D01*
X104620814Y-84409390D01*
X104620827Y-84409397D01*
X104766498Y-84469735D01*
X104766503Y-84469737D01*
X104921153Y-84500499D01*
X104921156Y-84500500D01*
X104921158Y-84500500D01*
X105078844Y-84500500D01*
X105078845Y-84500499D01*
X105233497Y-84469737D01*
X105379179Y-84409394D01*
X105510289Y-84321789D01*
X105621789Y-84210289D01*
X105709394Y-84079179D01*
X105769737Y-83933497D01*
X105782138Y-83871153D01*
X123124500Y-83871153D01*
X123124500Y-84028846D01*
X123155261Y-84183489D01*
X123155264Y-84183501D01*
X123215602Y-84329172D01*
X123215609Y-84329185D01*
X123303210Y-84460288D01*
X123303213Y-84460292D01*
X123414707Y-84571786D01*
X123414711Y-84571789D01*
X123545814Y-84659390D01*
X123545827Y-84659397D01*
X123691498Y-84719735D01*
X123691503Y-84719737D01*
X123846153Y-84750499D01*
X123846156Y-84750500D01*
X123846158Y-84750500D01*
X124003844Y-84750500D01*
X124003845Y-84750499D01*
X124158497Y-84719737D01*
X124304179Y-84659394D01*
X124435289Y-84571789D01*
X124546789Y-84460289D01*
X124634394Y-84329179D01*
X124694737Y-84183497D01*
X124725500Y-84028842D01*
X124725500Y-83871158D01*
X124725500Y-83871155D01*
X124725499Y-83871153D01*
X124705326Y-83769736D01*
X124694737Y-83716503D01*
X124691791Y-83709390D01*
X124634397Y-83570827D01*
X124634390Y-83570814D01*
X124546789Y-83439711D01*
X124546786Y-83439707D01*
X124435292Y-83328213D01*
X124435288Y-83328210D01*
X124304185Y-83240609D01*
X124304172Y-83240602D01*
X124158501Y-83180264D01*
X124158489Y-83180261D01*
X124003845Y-83149500D01*
X124003842Y-83149500D01*
X123846158Y-83149500D01*
X123846155Y-83149500D01*
X123691510Y-83180261D01*
X123691498Y-83180264D01*
X123545827Y-83240602D01*
X123545814Y-83240609D01*
X123414711Y-83328210D01*
X123414707Y-83328213D01*
X123303213Y-83439707D01*
X123303210Y-83439711D01*
X123215609Y-83570814D01*
X123215602Y-83570827D01*
X123155264Y-83716498D01*
X123155261Y-83716510D01*
X123124500Y-83871153D01*
X105782138Y-83871153D01*
X105800500Y-83778842D01*
X105800500Y-83621158D01*
X105800500Y-83621155D01*
X105800499Y-83621153D01*
X105778447Y-83510292D01*
X105769737Y-83466503D01*
X105769735Y-83466498D01*
X105709397Y-83320827D01*
X105709390Y-83320814D01*
X105621789Y-83189711D01*
X105621786Y-83189707D01*
X105510292Y-83078213D01*
X105510288Y-83078210D01*
X105420429Y-83018168D01*
X105379185Y-82990609D01*
X105379172Y-82990602D01*
X105233501Y-82930264D01*
X105233489Y-82930261D01*
X105187701Y-82921153D01*
X111999500Y-82921153D01*
X111999500Y-83078846D01*
X112030261Y-83233489D01*
X112030264Y-83233501D01*
X112090602Y-83379172D01*
X112090609Y-83379185D01*
X112178210Y-83510288D01*
X112178213Y-83510292D01*
X112289707Y-83621786D01*
X112289711Y-83621789D01*
X112420814Y-83709390D01*
X112420827Y-83709397D01*
X112520070Y-83750504D01*
X112566503Y-83769737D01*
X112721153Y-83800499D01*
X112721156Y-83800500D01*
X112721158Y-83800500D01*
X112878844Y-83800500D01*
X112878845Y-83800499D01*
X113033497Y-83769737D01*
X113179179Y-83709394D01*
X113310289Y-83621789D01*
X113421789Y-83510289D01*
X113509394Y-83379179D01*
X113569737Y-83233497D01*
X113600500Y-83078842D01*
X113600500Y-82921158D01*
X113600500Y-82921155D01*
X113600499Y-82921153D01*
X113569738Y-82766510D01*
X113569737Y-82766503D01*
X113569735Y-82766498D01*
X113509397Y-82620827D01*
X113509390Y-82620814D01*
X113421789Y-82489711D01*
X113421786Y-82489707D01*
X113310292Y-82378213D01*
X113310288Y-82378210D01*
X113179185Y-82290609D01*
X113179172Y-82290602D01*
X113033501Y-82230264D01*
X113033489Y-82230261D01*
X112878845Y-82199500D01*
X112878842Y-82199500D01*
X112721158Y-82199500D01*
X112721155Y-82199500D01*
X112566510Y-82230261D01*
X112566498Y-82230264D01*
X112420827Y-82290602D01*
X112420814Y-82290609D01*
X112289711Y-82378210D01*
X112289707Y-82378213D01*
X112178213Y-82489707D01*
X112178210Y-82489711D01*
X112090609Y-82620814D01*
X112090602Y-82620827D01*
X112030264Y-82766498D01*
X112030261Y-82766510D01*
X111999500Y-82921153D01*
X105187701Y-82921153D01*
X105078845Y-82899500D01*
X105078842Y-82899500D01*
X104921158Y-82899500D01*
X104921155Y-82899500D01*
X104766510Y-82930261D01*
X104766498Y-82930264D01*
X104620827Y-82990602D01*
X104620814Y-82990609D01*
X104489711Y-83078210D01*
X104489707Y-83078213D01*
X104378213Y-83189707D01*
X104378210Y-83189711D01*
X104290609Y-83320814D01*
X104290602Y-83320827D01*
X104230264Y-83466498D01*
X104230261Y-83466510D01*
X104199500Y-83621153D01*
X98260500Y-83621153D01*
X98260500Y-80421153D01*
X115999500Y-80421153D01*
X115999500Y-80578846D01*
X116030261Y-80733489D01*
X116030264Y-80733501D01*
X116090602Y-80879172D01*
X116090609Y-80879185D01*
X116178210Y-81010288D01*
X116178213Y-81010292D01*
X116289707Y-81121786D01*
X116289711Y-81121789D01*
X116420814Y-81209390D01*
X116420827Y-81209397D01*
X116566498Y-81269735D01*
X116566503Y-81269737D01*
X116721153Y-81300499D01*
X116721156Y-81300500D01*
X116721158Y-81300500D01*
X116878844Y-81300500D01*
X116878845Y-81300499D01*
X117033497Y-81269737D01*
X117179179Y-81209394D01*
X117181110Y-81208103D01*
X117182276Y-81207737D01*
X117184546Y-81206525D01*
X117184776Y-81206955D01*
X117247786Y-81187226D01*
X117315166Y-81205710D01*
X117318850Y-81208077D01*
X117320821Y-81209394D01*
X117320824Y-81209395D01*
X117320827Y-81209397D01*
X117466498Y-81269735D01*
X117466503Y-81269737D01*
X117621153Y-81300499D01*
X117621156Y-81300500D01*
X117621158Y-81300500D01*
X117778844Y-81300500D01*
X117778845Y-81300499D01*
X117933497Y-81269737D01*
X118079179Y-81209394D01*
X118210289Y-81121789D01*
X118321789Y-81010289D01*
X118409394Y-80879179D01*
X118469737Y-80733497D01*
X118500500Y-80578842D01*
X118500500Y-80421158D01*
X118500500Y-80421155D01*
X118500499Y-80421153D01*
X118478269Y-80309397D01*
X118469737Y-80266503D01*
X118451215Y-80221786D01*
X118409397Y-80120827D01*
X118409390Y-80120814D01*
X118321789Y-79989711D01*
X118321786Y-79989707D01*
X118210292Y-79878213D01*
X118210288Y-79878210D01*
X118143104Y-79833319D01*
X118079185Y-79790609D01*
X118079172Y-79790602D01*
X117948083Y-79736304D01*
X121424500Y-79736304D01*
X121424500Y-79913695D01*
X121459103Y-80087658D01*
X121459106Y-80087667D01*
X121526983Y-80251540D01*
X121526990Y-80251553D01*
X121625535Y-80399034D01*
X121625538Y-80399038D01*
X121750961Y-80524461D01*
X121750965Y-80524464D01*
X121842784Y-80585816D01*
X121887589Y-80639428D01*
X121896296Y-80708753D01*
X121888455Y-80736369D01*
X121855263Y-80816503D01*
X121855262Y-80816506D01*
X121855262Y-80816507D01*
X121855261Y-80816510D01*
X121824500Y-80971153D01*
X121824500Y-81128846D01*
X121855261Y-81283489D01*
X121855264Y-81283501D01*
X121915602Y-81429172D01*
X121915609Y-81429185D01*
X122003210Y-81560288D01*
X122003213Y-81560292D01*
X122114707Y-81671786D01*
X122114711Y-81671789D01*
X122245814Y-81759390D01*
X122245827Y-81759397D01*
X122391498Y-81819735D01*
X122391503Y-81819737D01*
X122546153Y-81850499D01*
X122546156Y-81850500D01*
X122546158Y-81850500D01*
X122703844Y-81850500D01*
X122703845Y-81850499D01*
X122858497Y-81819737D01*
X123004179Y-81759394D01*
X123135289Y-81671789D01*
X123246789Y-81560289D01*
X123334394Y-81429179D01*
X123394737Y-81283497D01*
X123425500Y-81128842D01*
X123425500Y-80971158D01*
X123425500Y-80971155D01*
X123425499Y-80971153D01*
X123407204Y-80879179D01*
X123394737Y-80816503D01*
X123350106Y-80708753D01*
X123334397Y-80670827D01*
X123334390Y-80670814D01*
X123246789Y-80539711D01*
X123246786Y-80539707D01*
X123130982Y-80423903D01*
X123132507Y-80422377D01*
X123098660Y-80372672D01*
X123096799Y-80302827D01*
X123113560Y-80265693D01*
X123123013Y-80251547D01*
X123190894Y-80087666D01*
X123225500Y-79913691D01*
X123225500Y-79736309D01*
X123225500Y-79736306D01*
X123225499Y-79736304D01*
X123190896Y-79562341D01*
X123190893Y-79562332D01*
X123123016Y-79398459D01*
X123123009Y-79398446D01*
X123024464Y-79250965D01*
X123024461Y-79250961D01*
X122899038Y-79125538D01*
X122899034Y-79125535D01*
X122751553Y-79026990D01*
X122751540Y-79026983D01*
X122587667Y-78959106D01*
X122587658Y-78959103D01*
X122413694Y-78924500D01*
X122413691Y-78924500D01*
X122236309Y-78924500D01*
X122236306Y-78924500D01*
X122062341Y-78959103D01*
X122062332Y-78959106D01*
X121898459Y-79026983D01*
X121898446Y-79026990D01*
X121750965Y-79125535D01*
X121750961Y-79125538D01*
X121625538Y-79250961D01*
X121625535Y-79250965D01*
X121526990Y-79398446D01*
X121526983Y-79398459D01*
X121459106Y-79562332D01*
X121459103Y-79562341D01*
X121424500Y-79736304D01*
X117948083Y-79736304D01*
X117933501Y-79730264D01*
X117933489Y-79730261D01*
X117778845Y-79699500D01*
X117778842Y-79699500D01*
X117621158Y-79699500D01*
X117621155Y-79699500D01*
X117466510Y-79730261D01*
X117466498Y-79730264D01*
X117320822Y-79790604D01*
X117320820Y-79790605D01*
X117318885Y-79791899D01*
X117317717Y-79792264D01*
X117315451Y-79793476D01*
X117315221Y-79793045D01*
X117252206Y-79812773D01*
X117184827Y-79794285D01*
X117181115Y-79791899D01*
X117179179Y-79790605D01*
X117179177Y-79790604D01*
X117033501Y-79730264D01*
X117033489Y-79730261D01*
X116878845Y-79699500D01*
X116878842Y-79699500D01*
X116721158Y-79699500D01*
X116721155Y-79699500D01*
X116566510Y-79730261D01*
X116566498Y-79730264D01*
X116420827Y-79790602D01*
X116420814Y-79790609D01*
X116289711Y-79878210D01*
X116289707Y-79878213D01*
X116178213Y-79989707D01*
X116178210Y-79989711D01*
X116090609Y-80120814D01*
X116090602Y-80120827D01*
X116030264Y-80266498D01*
X116030261Y-80266510D01*
X115999500Y-80421153D01*
X98260500Y-80421153D01*
X98260500Y-79521153D01*
X104899500Y-79521153D01*
X104899500Y-79678846D01*
X104930261Y-79833489D01*
X104930264Y-79833501D01*
X104990602Y-79979172D01*
X104990609Y-79979185D01*
X105078210Y-80110288D01*
X105078213Y-80110292D01*
X105189707Y-80221786D01*
X105189711Y-80221789D01*
X105320814Y-80309390D01*
X105320827Y-80309397D01*
X105462336Y-80368011D01*
X105466503Y-80369737D01*
X105613788Y-80399034D01*
X105621153Y-80400499D01*
X105621156Y-80400500D01*
X105621158Y-80400500D01*
X105778844Y-80400500D01*
X105778845Y-80400499D01*
X105933497Y-80369737D01*
X106079179Y-80309394D01*
X106210289Y-80221789D01*
X106321789Y-80110289D01*
X106409394Y-79979179D01*
X106469737Y-79833497D01*
X106500500Y-79678842D01*
X106500500Y-79521158D01*
X106500500Y-79521155D01*
X106500499Y-79521153D01*
X106478269Y-79409397D01*
X106469737Y-79366503D01*
X106421880Y-79250965D01*
X106409397Y-79220827D01*
X106409390Y-79220814D01*
X106321789Y-79089711D01*
X106321786Y-79089707D01*
X106210292Y-78978213D01*
X106210288Y-78978210D01*
X106079185Y-78890609D01*
X106079172Y-78890602D01*
X105933501Y-78830264D01*
X105933489Y-78830261D01*
X105778845Y-78799500D01*
X105778842Y-78799500D01*
X105621158Y-78799500D01*
X105621155Y-78799500D01*
X105466510Y-78830261D01*
X105466498Y-78830264D01*
X105320827Y-78890602D01*
X105320814Y-78890609D01*
X105189711Y-78978210D01*
X105189707Y-78978213D01*
X105078213Y-79089707D01*
X105078210Y-79089711D01*
X104990609Y-79220814D01*
X104990602Y-79220827D01*
X104930264Y-79366498D01*
X104930261Y-79366510D01*
X104899500Y-79521153D01*
X98260500Y-79521153D01*
X98260500Y-78621153D01*
X102499500Y-78621153D01*
X102499500Y-78778846D01*
X102530261Y-78933489D01*
X102530264Y-78933501D01*
X102590602Y-79079172D01*
X102590609Y-79079185D01*
X102678210Y-79210288D01*
X102678213Y-79210292D01*
X102789707Y-79321786D01*
X102789711Y-79321789D01*
X102920814Y-79409390D01*
X102920827Y-79409397D01*
X103066498Y-79469735D01*
X103066503Y-79469737D01*
X103221153Y-79500499D01*
X103221156Y-79500500D01*
X103221158Y-79500500D01*
X103378844Y-79500500D01*
X103378845Y-79500499D01*
X103533497Y-79469737D01*
X103679179Y-79409394D01*
X103810289Y-79321789D01*
X103921789Y-79210289D01*
X104009394Y-79079179D01*
X104069737Y-78933497D01*
X104100500Y-78778842D01*
X104100500Y-78621158D01*
X104100500Y-78621155D01*
X104100499Y-78621153D01*
X104069738Y-78466510D01*
X104069737Y-78466503D01*
X104033427Y-78378842D01*
X104009397Y-78320827D01*
X104009390Y-78320814D01*
X103984763Y-78283957D01*
X103942798Y-78221153D01*
X125699500Y-78221153D01*
X125699500Y-78378846D01*
X125730261Y-78533489D01*
X125730264Y-78533501D01*
X125790602Y-78679172D01*
X125790609Y-78679185D01*
X125878210Y-78810288D01*
X125878213Y-78810292D01*
X125989707Y-78921786D01*
X125989711Y-78921789D01*
X126120814Y-79009390D01*
X126120827Y-79009397D01*
X126266498Y-79069735D01*
X126266503Y-79069737D01*
X126421153Y-79100499D01*
X126421156Y-79100500D01*
X126421158Y-79100500D01*
X126578844Y-79100500D01*
X126578845Y-79100499D01*
X126733497Y-79069737D01*
X126879179Y-79009394D01*
X127010289Y-78921789D01*
X127121789Y-78810289D01*
X127209394Y-78679179D01*
X127269737Y-78533497D01*
X127300500Y-78378842D01*
X127300500Y-78221158D01*
X127300500Y-78221155D01*
X127300499Y-78221153D01*
X127272066Y-78078211D01*
X127269737Y-78066503D01*
X127238298Y-77990602D01*
X127209397Y-77920827D01*
X127209390Y-77920814D01*
X127121789Y-77789711D01*
X127121786Y-77789707D01*
X127010292Y-77678213D01*
X127010288Y-77678210D01*
X126879185Y-77590609D01*
X126879172Y-77590602D01*
X126733501Y-77530264D01*
X126733489Y-77530261D01*
X126578845Y-77499500D01*
X126578842Y-77499500D01*
X126421158Y-77499500D01*
X126421155Y-77499500D01*
X126266510Y-77530261D01*
X126266498Y-77530264D01*
X126120827Y-77590602D01*
X126120814Y-77590609D01*
X125989711Y-77678210D01*
X125989707Y-77678213D01*
X125878213Y-77789707D01*
X125878210Y-77789711D01*
X125790609Y-77920814D01*
X125790602Y-77920827D01*
X125730264Y-78066498D01*
X125730261Y-78066510D01*
X125699500Y-78221153D01*
X103942798Y-78221153D01*
X103921789Y-78189711D01*
X103921786Y-78189707D01*
X103810292Y-78078213D01*
X103810288Y-78078210D01*
X103679185Y-77990609D01*
X103679172Y-77990602D01*
X103533501Y-77930264D01*
X103533489Y-77930261D01*
X103378845Y-77899500D01*
X103378842Y-77899500D01*
X103221158Y-77899500D01*
X103221155Y-77899500D01*
X103066510Y-77930261D01*
X103066498Y-77930264D01*
X102920827Y-77990602D01*
X102920814Y-77990609D01*
X102789711Y-78078210D01*
X102789707Y-78078213D01*
X102678213Y-78189707D01*
X102678210Y-78189711D01*
X102590609Y-78320814D01*
X102590602Y-78320827D01*
X102530264Y-78466498D01*
X102530261Y-78466510D01*
X102499500Y-78621153D01*
X98260500Y-78621153D01*
X98260500Y-75521153D01*
X103899500Y-75521153D01*
X103899500Y-75678846D01*
X103930261Y-75833489D01*
X103930264Y-75833501D01*
X103990602Y-75979172D01*
X103990609Y-75979185D01*
X104078210Y-76110288D01*
X104078213Y-76110292D01*
X104189707Y-76221786D01*
X104189711Y-76221789D01*
X104320814Y-76309390D01*
X104320827Y-76309397D01*
X104466498Y-76369735D01*
X104466503Y-76369737D01*
X104621153Y-76400499D01*
X104621156Y-76400500D01*
X104621158Y-76400500D01*
X104778844Y-76400500D01*
X104778845Y-76400499D01*
X104933497Y-76369737D01*
X105079179Y-76309394D01*
X105210289Y-76221789D01*
X105321789Y-76110289D01*
X105409394Y-75979179D01*
X105469737Y-75833497D01*
X105500500Y-75678842D01*
X105500500Y-75521158D01*
X105500500Y-75521155D01*
X105500499Y-75521153D01*
X105481564Y-75425961D01*
X105469737Y-75366503D01*
X105442413Y-75300536D01*
X105409397Y-75220827D01*
X105409390Y-75220814D01*
X105321789Y-75089711D01*
X105321786Y-75089707D01*
X105210292Y-74978213D01*
X105210288Y-74978210D01*
X105124897Y-74921153D01*
X112699500Y-74921153D01*
X112699500Y-75078846D01*
X112730261Y-75233489D01*
X112730264Y-75233501D01*
X112790602Y-75379172D01*
X112790609Y-75379185D01*
X112878210Y-75510288D01*
X112878213Y-75510292D01*
X112989707Y-75621786D01*
X112989711Y-75621789D01*
X113120814Y-75709390D01*
X113120827Y-75709397D01*
X113266498Y-75769735D01*
X113266503Y-75769737D01*
X113391814Y-75794663D01*
X113421153Y-75800499D01*
X113421156Y-75800500D01*
X113421158Y-75800500D01*
X113578844Y-75800500D01*
X113578845Y-75800499D01*
X113733497Y-75769737D01*
X113733509Y-75769731D01*
X113739324Y-75767969D01*
X113739906Y-75769888D01*
X113800219Y-75763396D01*
X113862702Y-75794663D01*
X113898362Y-75854748D01*
X113899717Y-75905206D01*
X113900097Y-75905244D01*
X113899799Y-75908263D01*
X113899836Y-75909616D01*
X113899500Y-75911304D01*
X113899500Y-76088695D01*
X113934103Y-76262658D01*
X113934105Y-76262662D01*
X113934106Y-76262666D01*
X113953459Y-76309390D01*
X113955467Y-76314237D01*
X113962934Y-76383707D01*
X113931658Y-76446185D01*
X113909799Y-76464788D01*
X113889709Y-76478212D01*
X113889704Y-76478217D01*
X113778213Y-76589707D01*
X113778210Y-76589711D01*
X113690609Y-76720814D01*
X113690602Y-76720827D01*
X113630264Y-76866498D01*
X113630261Y-76866510D01*
X113599500Y-77021153D01*
X113599500Y-77178846D01*
X113630261Y-77333489D01*
X113630264Y-77333501D01*
X113690602Y-77479172D01*
X113690609Y-77479185D01*
X113778210Y-77610288D01*
X113778213Y-77610292D01*
X113889707Y-77721786D01*
X113889711Y-77721789D01*
X114020814Y-77809390D01*
X114020827Y-77809397D01*
X114166498Y-77869735D01*
X114166503Y-77869737D01*
X114316131Y-77899500D01*
X114321153Y-77900499D01*
X114321156Y-77900500D01*
X114321158Y-77900500D01*
X114478844Y-77900500D01*
X114478845Y-77900499D01*
X114633497Y-77869737D01*
X114779179Y-77809394D01*
X114910289Y-77721789D01*
X115021789Y-77610289D01*
X115109394Y-77479179D01*
X115169737Y-77333497D01*
X115200500Y-77178842D01*
X115200500Y-77021158D01*
X115200500Y-77021155D01*
X115180541Y-76920817D01*
X115186768Y-76851225D01*
X115229631Y-76796048D01*
X115233267Y-76793523D01*
X115342063Y-76720827D01*
X115374035Y-76699464D01*
X115499464Y-76574035D01*
X115568208Y-76471153D01*
X128124500Y-76471153D01*
X128124500Y-76628846D01*
X128155261Y-76783489D01*
X128155264Y-76783501D01*
X128215602Y-76929172D01*
X128215609Y-76929185D01*
X128303210Y-77060288D01*
X128303213Y-77060292D01*
X128414707Y-77171786D01*
X128414711Y-77171789D01*
X128545814Y-77259390D01*
X128545827Y-77259397D01*
X128691498Y-77319735D01*
X128691503Y-77319737D01*
X128846153Y-77350499D01*
X128846156Y-77350500D01*
X128846158Y-77350500D01*
X129003844Y-77350500D01*
X129003845Y-77350499D01*
X129158497Y-77319737D01*
X129304179Y-77259394D01*
X129435289Y-77171789D01*
X129546789Y-77060289D01*
X129634394Y-76929179D01*
X129694737Y-76783497D01*
X129725500Y-76628842D01*
X129725500Y-76471158D01*
X129725500Y-76471155D01*
X129725499Y-76471153D01*
X129724233Y-76464788D01*
X129694737Y-76316503D01*
X129672437Y-76262666D01*
X129634397Y-76170827D01*
X129634390Y-76170814D01*
X129546789Y-76039711D01*
X129546786Y-76039707D01*
X129435292Y-75928213D01*
X129435288Y-75928210D01*
X129304185Y-75840609D01*
X129304172Y-75840602D01*
X129158501Y-75780264D01*
X129158489Y-75780261D01*
X129003845Y-75749500D01*
X129003842Y-75749500D01*
X128846158Y-75749500D01*
X128846155Y-75749500D01*
X128691510Y-75780261D01*
X128691498Y-75780264D01*
X128545827Y-75840602D01*
X128545814Y-75840609D01*
X128414711Y-75928210D01*
X128414707Y-75928213D01*
X128303213Y-76039707D01*
X128303210Y-76039711D01*
X128215609Y-76170814D01*
X128215602Y-76170827D01*
X128155264Y-76316498D01*
X128155261Y-76316510D01*
X128124500Y-76471153D01*
X115568208Y-76471153D01*
X115598013Y-76426547D01*
X115665894Y-76262666D01*
X115700500Y-76088691D01*
X115700500Y-75911309D01*
X115700500Y-75911306D01*
X115700499Y-75911304D01*
X115665896Y-75737341D01*
X115665893Y-75737332D01*
X115598016Y-75573459D01*
X115598009Y-75573446D01*
X115499464Y-75425965D01*
X115499461Y-75425961D01*
X115374038Y-75300538D01*
X115374034Y-75300535D01*
X115226553Y-75201990D01*
X115226540Y-75201983D01*
X115062667Y-75134106D01*
X115062658Y-75134103D01*
X114888694Y-75099500D01*
X114888691Y-75099500D01*
X114711309Y-75099500D01*
X114711306Y-75099500D01*
X114537341Y-75134103D01*
X114537337Y-75134105D01*
X114537335Y-75134105D01*
X114537334Y-75134106D01*
X114529430Y-75137380D01*
X114471951Y-75161188D01*
X114402481Y-75168655D01*
X114340003Y-75137380D01*
X114304351Y-75077290D01*
X114300500Y-75046626D01*
X114300500Y-74921155D01*
X114300499Y-74921153D01*
X114281909Y-74827695D01*
X114269737Y-74766503D01*
X114252280Y-74724357D01*
X114209397Y-74620827D01*
X114209390Y-74620814D01*
X114121789Y-74489711D01*
X114121786Y-74489707D01*
X114010292Y-74378213D01*
X114010288Y-74378210D01*
X113879185Y-74290609D01*
X113879172Y-74290602D01*
X113733501Y-74230264D01*
X113733489Y-74230261D01*
X113716261Y-74226834D01*
X113578845Y-74199500D01*
X113578842Y-74199500D01*
X113421158Y-74199500D01*
X113421155Y-74199500D01*
X113266510Y-74230261D01*
X113266498Y-74230264D01*
X113120827Y-74290602D01*
X113120814Y-74290609D01*
X112989711Y-74378210D01*
X112989707Y-74378213D01*
X112878213Y-74489707D01*
X112878210Y-74489711D01*
X112790609Y-74620814D01*
X112790602Y-74620827D01*
X112730264Y-74766498D01*
X112730261Y-74766510D01*
X112699500Y-74921153D01*
X105124897Y-74921153D01*
X105079185Y-74890609D01*
X105079172Y-74890602D01*
X104933501Y-74830264D01*
X104933489Y-74830261D01*
X104778845Y-74799500D01*
X104778842Y-74799500D01*
X104621158Y-74799500D01*
X104621155Y-74799500D01*
X104466510Y-74830261D01*
X104466498Y-74830264D01*
X104320827Y-74890602D01*
X104320814Y-74890609D01*
X104189711Y-74978210D01*
X104189707Y-74978213D01*
X104078213Y-75089707D01*
X104078210Y-75089711D01*
X103990609Y-75220814D01*
X103990602Y-75220827D01*
X103930264Y-75366498D01*
X103930261Y-75366510D01*
X103899500Y-75521153D01*
X98260500Y-75521153D01*
X98260500Y-74111304D01*
X120199500Y-74111304D01*
X120199500Y-74288695D01*
X120234103Y-74462658D01*
X120234106Y-74462667D01*
X120301983Y-74626540D01*
X120301990Y-74626553D01*
X120400535Y-74774034D01*
X120400538Y-74774038D01*
X120525961Y-74899461D01*
X120525965Y-74899464D01*
X120673446Y-74998009D01*
X120673459Y-74998016D01*
X120790816Y-75046626D01*
X120837334Y-75065894D01*
X120837336Y-75065894D01*
X120837341Y-75065896D01*
X121011304Y-75100499D01*
X121011307Y-75100500D01*
X121011309Y-75100500D01*
X121188693Y-75100500D01*
X121188694Y-75100499D01*
X121246682Y-75088964D01*
X121362658Y-75065896D01*
X121362661Y-75065894D01*
X121362666Y-75065894D01*
X121526547Y-74998013D01*
X121674035Y-74899464D01*
X121712318Y-74861181D01*
X121773640Y-74827695D01*
X121843332Y-74832679D01*
X121887682Y-74861181D01*
X121925961Y-74899461D01*
X121925965Y-74899464D01*
X122073446Y-74998009D01*
X122073459Y-74998016D01*
X122190816Y-75046626D01*
X122237334Y-75065894D01*
X122237336Y-75065894D01*
X122237341Y-75065896D01*
X122411304Y-75100499D01*
X122411307Y-75100500D01*
X122411309Y-75100500D01*
X122588693Y-75100500D01*
X122588694Y-75100499D01*
X122646682Y-75088964D01*
X122762658Y-75065896D01*
X122762661Y-75065894D01*
X122762666Y-75065894D01*
X122926547Y-74998013D01*
X123074035Y-74899464D01*
X123199464Y-74774035D01*
X123199466Y-74774031D01*
X123203328Y-74769327D01*
X123205249Y-74770904D01*
X123250477Y-74733085D01*
X123319799Y-74724357D01*
X123382835Y-74754493D01*
X123396097Y-74769798D01*
X123396672Y-74769327D01*
X123400538Y-74774038D01*
X123525961Y-74899461D01*
X123525965Y-74899464D01*
X123673446Y-74998009D01*
X123673459Y-74998016D01*
X123790816Y-75046626D01*
X123837334Y-75065894D01*
X123837336Y-75065894D01*
X123837341Y-75065896D01*
X124011304Y-75100499D01*
X124011307Y-75100500D01*
X124011309Y-75100500D01*
X124188693Y-75100500D01*
X124188694Y-75100499D01*
X124246682Y-75088964D01*
X124362658Y-75065896D01*
X124362661Y-75065894D01*
X124362666Y-75065894D01*
X124526547Y-74998013D01*
X124674035Y-74899464D01*
X124799464Y-74774035D01*
X124898013Y-74626547D01*
X124965894Y-74462666D01*
X124982694Y-74378210D01*
X125000499Y-74288695D01*
X125000500Y-74288693D01*
X125000500Y-74111306D01*
X125000499Y-74111304D01*
X124965896Y-73937341D01*
X124965893Y-73937332D01*
X124898016Y-73773459D01*
X124898009Y-73773446D01*
X124799464Y-73625965D01*
X124799461Y-73625961D01*
X124674038Y-73500538D01*
X124674034Y-73500535D01*
X124526553Y-73401990D01*
X124526540Y-73401983D01*
X124362667Y-73334106D01*
X124362658Y-73334103D01*
X124188694Y-73299500D01*
X124188691Y-73299500D01*
X124011309Y-73299500D01*
X124011306Y-73299500D01*
X123837341Y-73334103D01*
X123837332Y-73334106D01*
X123673459Y-73401983D01*
X123673446Y-73401990D01*
X123525965Y-73500535D01*
X123525961Y-73500538D01*
X123400538Y-73625961D01*
X123396672Y-73630673D01*
X123394756Y-73629100D01*
X123349480Y-73666933D01*
X123280155Y-73675635D01*
X123217130Y-73645475D01*
X123203898Y-73630204D01*
X123203328Y-73630673D01*
X123199461Y-73625961D01*
X123074038Y-73500538D01*
X123074034Y-73500535D01*
X122926553Y-73401990D01*
X122926540Y-73401983D01*
X122762667Y-73334106D01*
X122762658Y-73334103D01*
X122588694Y-73299500D01*
X122588691Y-73299500D01*
X122411309Y-73299500D01*
X122411306Y-73299500D01*
X122237341Y-73334103D01*
X122237332Y-73334106D01*
X122073459Y-73401983D01*
X122073446Y-73401990D01*
X121925965Y-73500535D01*
X121925961Y-73500538D01*
X121887681Y-73538819D01*
X121826358Y-73572304D01*
X121756666Y-73567320D01*
X121712319Y-73538819D01*
X121674038Y-73500538D01*
X121674034Y-73500535D01*
X121526553Y-73401990D01*
X121526540Y-73401983D01*
X121362667Y-73334106D01*
X121362658Y-73334103D01*
X121188694Y-73299500D01*
X121188691Y-73299500D01*
X121011309Y-73299500D01*
X121011306Y-73299500D01*
X120837341Y-73334103D01*
X120837332Y-73334106D01*
X120673459Y-73401983D01*
X120673446Y-73401990D01*
X120525965Y-73500535D01*
X120525961Y-73500538D01*
X120400538Y-73625961D01*
X120400535Y-73625965D01*
X120301990Y-73773446D01*
X120301983Y-73773459D01*
X120234106Y-73937332D01*
X120234103Y-73937341D01*
X120199500Y-74111304D01*
X98260500Y-74111304D01*
X98260500Y-71511304D01*
X124499500Y-71511304D01*
X124499500Y-71688695D01*
X124534103Y-71862658D01*
X124534106Y-71862667D01*
X124601983Y-72026540D01*
X124601990Y-72026553D01*
X124700535Y-72174034D01*
X124700538Y-72174038D01*
X124825961Y-72299461D01*
X124825965Y-72299464D01*
X124973446Y-72398009D01*
X124973459Y-72398016D01*
X125096363Y-72448923D01*
X125137334Y-72465894D01*
X125137336Y-72465894D01*
X125137341Y-72465896D01*
X125311304Y-72500499D01*
X125311307Y-72500500D01*
X125311309Y-72500500D01*
X125488693Y-72500500D01*
X125488694Y-72500499D01*
X125546682Y-72488964D01*
X125662658Y-72465896D01*
X125662661Y-72465894D01*
X125662666Y-72465894D01*
X125826547Y-72398013D01*
X125974035Y-72299464D01*
X126099464Y-72174035D01*
X126198013Y-72026547D01*
X126265894Y-71862666D01*
X126300500Y-71688691D01*
X126300500Y-71511309D01*
X126300500Y-71511306D01*
X126300499Y-71511304D01*
X126265896Y-71337341D01*
X126265893Y-71337332D01*
X126198016Y-71173459D01*
X126198009Y-71173446D01*
X126099464Y-71025965D01*
X126099461Y-71025961D01*
X125974038Y-70900538D01*
X125974034Y-70900535D01*
X125826553Y-70801990D01*
X125826540Y-70801983D01*
X125662667Y-70734106D01*
X125662658Y-70734103D01*
X125488694Y-70699500D01*
X125488691Y-70699500D01*
X125311309Y-70699500D01*
X125311306Y-70699500D01*
X125137341Y-70734103D01*
X125137332Y-70734106D01*
X124973459Y-70801983D01*
X124973446Y-70801990D01*
X124825965Y-70900535D01*
X124825961Y-70900538D01*
X124700538Y-71025961D01*
X124700535Y-71025965D01*
X124601990Y-71173446D01*
X124601983Y-71173459D01*
X124534106Y-71337332D01*
X124534103Y-71337341D01*
X124499500Y-71511304D01*
X98260500Y-71511304D01*
X98260500Y-70321153D01*
X104799500Y-70321153D01*
X104799500Y-70478846D01*
X104830261Y-70633489D01*
X104830264Y-70633501D01*
X104890602Y-70779172D01*
X104890609Y-70779185D01*
X104978210Y-70910288D01*
X104978213Y-70910292D01*
X105089707Y-71021786D01*
X105089711Y-71021789D01*
X105220814Y-71109390D01*
X105220827Y-71109397D01*
X105317552Y-71149461D01*
X105366503Y-71169737D01*
X105521153Y-71200499D01*
X105521156Y-71200500D01*
X105521158Y-71200500D01*
X105678844Y-71200500D01*
X105678845Y-71200499D01*
X105833497Y-71169737D01*
X105979179Y-71109394D01*
X106110289Y-71021789D01*
X106221789Y-70910289D01*
X106309394Y-70779179D01*
X106369737Y-70633497D01*
X106400500Y-70478842D01*
X106400500Y-70361304D01*
X112222012Y-70361304D01*
X112222012Y-70538695D01*
X112256615Y-70712658D01*
X112256618Y-70712667D01*
X112324495Y-70876540D01*
X112324502Y-70876553D01*
X112423047Y-71024034D01*
X112423050Y-71024038D01*
X112548473Y-71149461D01*
X112548477Y-71149464D01*
X112695958Y-71248009D01*
X112695971Y-71248016D01*
X112818875Y-71298923D01*
X112859846Y-71315894D01*
X112859848Y-71315894D01*
X112859853Y-71315896D01*
X113033816Y-71350499D01*
X113033819Y-71350500D01*
X113033821Y-71350500D01*
X113211205Y-71350500D01*
X113211206Y-71350499D01*
X113277403Y-71337332D01*
X113385170Y-71315896D01*
X113385173Y-71315894D01*
X113385178Y-71315894D01*
X113549059Y-71248013D01*
X113696547Y-71149464D01*
X113821976Y-71024035D01*
X113920525Y-70876547D01*
X113988406Y-70712666D01*
X114004156Y-70633489D01*
X114011476Y-70596682D01*
X114023012Y-70538691D01*
X114023012Y-70495081D01*
X114042697Y-70428042D01*
X114095501Y-70382287D01*
X114164659Y-70372343D01*
X114220361Y-70396885D01*
X114220900Y-70396080D01*
X114225482Y-70399141D01*
X114225678Y-70399228D01*
X114225958Y-70399457D01*
X114225965Y-70399464D01*
X114268735Y-70428042D01*
X114373446Y-70498009D01*
X114373459Y-70498016D01*
X114471659Y-70538691D01*
X114537334Y-70565894D01*
X114537336Y-70565894D01*
X114537341Y-70565896D01*
X114711304Y-70600499D01*
X114711307Y-70600500D01*
X114711309Y-70600500D01*
X114888693Y-70600500D01*
X114888694Y-70600499D01*
X114946682Y-70588964D01*
X115062658Y-70565896D01*
X115062661Y-70565894D01*
X115062666Y-70565894D01*
X115226547Y-70498013D01*
X115374035Y-70399464D01*
X115499464Y-70274035D01*
X115598013Y-70126547D01*
X115665894Y-69962666D01*
X115700500Y-69788691D01*
X115700500Y-69611309D01*
X115700500Y-69611306D01*
X115700499Y-69611304D01*
X115665896Y-69437341D01*
X115665893Y-69437332D01*
X115598016Y-69273459D01*
X115598009Y-69273446D01*
X115499464Y-69125965D01*
X115499461Y-69125961D01*
X115374038Y-69000538D01*
X115374034Y-69000535D01*
X115226553Y-68901990D01*
X115226540Y-68901983D01*
X115062667Y-68834106D01*
X115062658Y-68834103D01*
X114888694Y-68799500D01*
X114888691Y-68799500D01*
X114711309Y-68799500D01*
X114711306Y-68799500D01*
X114537341Y-68834103D01*
X114537332Y-68834106D01*
X114373459Y-68901983D01*
X114373446Y-68901990D01*
X114225965Y-69000535D01*
X114225961Y-69000538D01*
X114100538Y-69125961D01*
X114100535Y-69125965D01*
X114001990Y-69273446D01*
X114001983Y-69273459D01*
X113934106Y-69437332D01*
X113934103Y-69437341D01*
X113899500Y-69611304D01*
X113899500Y-69654918D01*
X113879815Y-69721957D01*
X113827011Y-69767712D01*
X113757853Y-69777656D01*
X113702149Y-69753116D01*
X113701612Y-69753920D01*
X113697041Y-69750866D01*
X113696846Y-69750780D01*
X113696553Y-69750539D01*
X113549065Y-69651990D01*
X113549052Y-69651983D01*
X113385179Y-69584106D01*
X113385170Y-69584103D01*
X113211206Y-69549500D01*
X113211203Y-69549500D01*
X113033821Y-69549500D01*
X113033818Y-69549500D01*
X112859853Y-69584103D01*
X112859844Y-69584106D01*
X112695971Y-69651983D01*
X112695958Y-69651990D01*
X112548477Y-69750535D01*
X112548473Y-69750538D01*
X112423050Y-69875961D01*
X112423047Y-69875965D01*
X112324502Y-70023446D01*
X112324495Y-70023459D01*
X112256618Y-70187332D01*
X112256615Y-70187341D01*
X112222012Y-70361304D01*
X106400500Y-70361304D01*
X106400500Y-70321158D01*
X106400500Y-70321155D01*
X106400499Y-70321153D01*
X106391127Y-70274038D01*
X106369737Y-70166503D01*
X106310487Y-70023459D01*
X106309397Y-70020827D01*
X106309390Y-70020814D01*
X106221789Y-69889711D01*
X106221786Y-69889707D01*
X106110292Y-69778213D01*
X106110288Y-69778210D01*
X105979185Y-69690609D01*
X105979172Y-69690602D01*
X105833501Y-69630264D01*
X105833489Y-69630261D01*
X105678845Y-69599500D01*
X105678842Y-69599500D01*
X105521158Y-69599500D01*
X105521155Y-69599500D01*
X105366510Y-69630261D01*
X105366498Y-69630264D01*
X105220827Y-69690602D01*
X105220814Y-69690609D01*
X105089711Y-69778210D01*
X105089707Y-69778213D01*
X104978213Y-69889707D01*
X104978210Y-69889711D01*
X104890609Y-70020814D01*
X104890602Y-70020827D01*
X104830264Y-70166498D01*
X104830261Y-70166510D01*
X104799500Y-70321153D01*
X98260500Y-70321153D01*
X98260500Y-66111304D01*
X105399500Y-66111304D01*
X105399500Y-66288695D01*
X105434103Y-66462658D01*
X105434106Y-66462667D01*
X105501983Y-66626540D01*
X105501990Y-66626553D01*
X105600535Y-66774034D01*
X105600538Y-66774038D01*
X105725961Y-66899461D01*
X105725965Y-66899464D01*
X105873446Y-66998009D01*
X105873459Y-66998016D01*
X105996363Y-67048923D01*
X106037334Y-67065894D01*
X106037336Y-67065894D01*
X106037341Y-67065896D01*
X106211304Y-67100499D01*
X106211307Y-67100500D01*
X106327351Y-67100500D01*
X106394390Y-67120185D01*
X106430452Y-67155608D01*
X106459754Y-67199461D01*
X106487426Y-67240876D01*
X106612850Y-67366300D01*
X106612854Y-67366303D01*
X106760335Y-67464848D01*
X106760348Y-67464855D01*
X106883252Y-67515762D01*
X106924223Y-67532733D01*
X106924225Y-67532733D01*
X106924230Y-67532735D01*
X107098193Y-67567338D01*
X107098196Y-67567339D01*
X107098198Y-67567339D01*
X107275582Y-67567339D01*
X107275583Y-67567338D01*
X107333571Y-67555803D01*
X107449547Y-67532735D01*
X107449550Y-67532733D01*
X107449555Y-67532733D01*
X107613436Y-67464852D01*
X107760924Y-67366303D01*
X107886353Y-67240874D01*
X107984902Y-67093386D01*
X108052783Y-66929505D01*
X108053371Y-66926553D01*
X108075853Y-66813521D01*
X108087389Y-66755530D01*
X108087389Y-66578148D01*
X108087389Y-66578145D01*
X108087388Y-66578143D01*
X108052785Y-66404180D01*
X108052782Y-66404171D01*
X107984905Y-66240298D01*
X107984898Y-66240285D01*
X107886353Y-66092804D01*
X107886350Y-66092800D01*
X107760927Y-65967377D01*
X107760923Y-65967374D01*
X107613442Y-65868829D01*
X107613429Y-65868822D01*
X107449556Y-65800945D01*
X107449547Y-65800942D01*
X107275583Y-65766339D01*
X107275580Y-65766339D01*
X107159538Y-65766339D01*
X107092499Y-65746654D01*
X107056435Y-65711229D01*
X107031582Y-65674034D01*
X106999464Y-65625965D01*
X106999462Y-65625962D01*
X106874038Y-65500538D01*
X106874034Y-65500535D01*
X106726553Y-65401990D01*
X106726540Y-65401983D01*
X106562667Y-65334106D01*
X106562658Y-65334103D01*
X106388694Y-65299500D01*
X106388691Y-65299500D01*
X106211309Y-65299500D01*
X106211306Y-65299500D01*
X106037341Y-65334103D01*
X106037332Y-65334106D01*
X105873459Y-65401983D01*
X105873446Y-65401990D01*
X105725965Y-65500535D01*
X105725961Y-65500538D01*
X105600538Y-65625961D01*
X105600535Y-65625965D01*
X105501990Y-65773446D01*
X105501983Y-65773459D01*
X105434106Y-65937332D01*
X105434103Y-65937341D01*
X105399500Y-66111304D01*
X98260500Y-66111304D01*
X98260500Y-63271153D01*
X107349500Y-63271153D01*
X107349500Y-63428846D01*
X107380261Y-63583489D01*
X107380264Y-63583501D01*
X107433204Y-63711309D01*
X107440606Y-63729179D01*
X107458402Y-63755812D01*
X107466100Y-63767334D01*
X107486977Y-63834012D01*
X107468492Y-63901392D01*
X107466102Y-63905110D01*
X107455612Y-63920810D01*
X107455602Y-63920828D01*
X107395264Y-64066498D01*
X107395261Y-64066510D01*
X107364500Y-64221153D01*
X107364500Y-64378846D01*
X107395261Y-64533489D01*
X107395264Y-64533501D01*
X107455602Y-64679172D01*
X107455609Y-64679185D01*
X107543210Y-64810288D01*
X107543213Y-64810292D01*
X107654707Y-64921786D01*
X107654711Y-64921789D01*
X107785814Y-65009390D01*
X107785827Y-65009397D01*
X107931498Y-65069735D01*
X107931503Y-65069737D01*
X108086153Y-65100499D01*
X108086156Y-65100500D01*
X108086158Y-65100500D01*
X108243844Y-65100500D01*
X108243845Y-65100499D01*
X108398497Y-65069737D01*
X108544179Y-65009394D01*
X108675289Y-64921789D01*
X108786789Y-64810289D01*
X108874394Y-64679179D01*
X108934737Y-64533497D01*
X108965500Y-64378842D01*
X108965500Y-64321153D01*
X109549500Y-64321153D01*
X109549500Y-64478846D01*
X109580261Y-64633489D01*
X109580264Y-64633501D01*
X109640602Y-64779172D01*
X109640609Y-64779185D01*
X109728210Y-64910288D01*
X109728213Y-64910292D01*
X109839707Y-65021786D01*
X109839711Y-65021789D01*
X109970814Y-65109390D01*
X109970827Y-65109397D01*
X110110914Y-65167422D01*
X110116503Y-65169737D01*
X110211791Y-65188691D01*
X110271153Y-65200499D01*
X110271156Y-65200500D01*
X110271158Y-65200500D01*
X110428844Y-65200500D01*
X110428845Y-65200499D01*
X110583497Y-65169737D01*
X110729179Y-65109394D01*
X110860289Y-65021789D01*
X110971789Y-64910289D01*
X111059394Y-64779179D01*
X111119737Y-64633497D01*
X111150500Y-64478842D01*
X111150500Y-64321158D01*
X111150500Y-64321155D01*
X111150499Y-64321153D01*
X111146686Y-64301984D01*
X111119737Y-64166503D01*
X111076727Y-64062666D01*
X111059397Y-64020827D01*
X111059390Y-64020814D01*
X110971789Y-63889711D01*
X110971786Y-63889707D01*
X110860292Y-63778213D01*
X110860288Y-63778210D01*
X110729185Y-63690609D01*
X110729172Y-63690602D01*
X110583501Y-63630264D01*
X110583489Y-63630261D01*
X110428845Y-63599500D01*
X110428842Y-63599500D01*
X110271158Y-63599500D01*
X110271155Y-63599500D01*
X110116510Y-63630261D01*
X110116498Y-63630264D01*
X109970827Y-63690602D01*
X109970814Y-63690609D01*
X109839711Y-63778210D01*
X109839707Y-63778213D01*
X109728213Y-63889707D01*
X109728210Y-63889711D01*
X109640609Y-64020814D01*
X109640602Y-64020827D01*
X109580264Y-64166498D01*
X109580261Y-64166510D01*
X109549500Y-64321153D01*
X108965500Y-64321153D01*
X108965500Y-64221158D01*
X108965500Y-64221155D01*
X108965499Y-64221153D01*
X108954627Y-64166498D01*
X108934737Y-64066503D01*
X108933144Y-64062658D01*
X108874397Y-63920827D01*
X108874393Y-63920820D01*
X108848898Y-63882664D01*
X108828021Y-63815989D01*
X108846505Y-63748608D01*
X108848848Y-63744961D01*
X108859394Y-63729179D01*
X108919737Y-63583497D01*
X108950500Y-63428842D01*
X108950500Y-63271158D01*
X108950500Y-63271155D01*
X108950499Y-63271153D01*
X108929562Y-63165896D01*
X108919737Y-63116503D01*
X108913124Y-63100538D01*
X108893297Y-63052669D01*
X108876163Y-63011304D01*
X111499500Y-63011304D01*
X111499500Y-63188695D01*
X111534103Y-63362658D01*
X111534106Y-63362667D01*
X111601983Y-63526540D01*
X111601990Y-63526553D01*
X111700535Y-63674034D01*
X111700538Y-63674038D01*
X111825961Y-63799461D01*
X111825965Y-63799464D01*
X111973446Y-63898009D01*
X111973459Y-63898016D01*
X112084624Y-63944061D01*
X112137334Y-63965894D01*
X112137336Y-63965894D01*
X112137341Y-63965896D01*
X112311304Y-64000499D01*
X112311307Y-64000500D01*
X112311309Y-64000500D01*
X112488693Y-64000500D01*
X112488694Y-64000499D01*
X112546682Y-63988964D01*
X112662658Y-63965896D01*
X112662660Y-63965895D01*
X112662666Y-63965894D01*
X112695635Y-63952237D01*
X112728261Y-63948730D01*
X112760733Y-63944061D01*
X112762820Y-63945014D01*
X112765103Y-63944769D01*
X112794446Y-63959457D01*
X112824289Y-63973086D01*
X112825529Y-63975016D01*
X112827582Y-63976044D01*
X112844322Y-64004259D01*
X112862063Y-64031864D01*
X112862498Y-64034893D01*
X112863234Y-64036133D01*
X112867086Y-64066799D01*
X112867086Y-64180348D01*
X112847401Y-64247387D01*
X112794597Y-64293142D01*
X112790541Y-64294908D01*
X112773456Y-64301984D01*
X112773455Y-64301985D01*
X112625965Y-64400535D01*
X112625961Y-64400538D01*
X112500538Y-64525961D01*
X112500535Y-64525965D01*
X112401990Y-64673446D01*
X112401983Y-64673459D01*
X112334106Y-64837332D01*
X112334103Y-64837341D01*
X112299500Y-65011304D01*
X112299500Y-65188695D01*
X112334103Y-65362658D01*
X112334106Y-65362667D01*
X112401983Y-65526540D01*
X112401990Y-65526553D01*
X112500535Y-65674034D01*
X112500538Y-65674038D01*
X112625961Y-65799461D01*
X112625965Y-65799464D01*
X112773446Y-65898009D01*
X112773459Y-65898016D01*
X112868378Y-65937332D01*
X112937334Y-65965894D01*
X112937336Y-65965894D01*
X112937341Y-65965896D01*
X113111304Y-66000499D01*
X113111307Y-66000500D01*
X113111309Y-66000500D01*
X113288693Y-66000500D01*
X113288694Y-66000499D01*
X113346682Y-65988964D01*
X113462658Y-65965896D01*
X113462661Y-65965894D01*
X113462666Y-65965894D01*
X113626547Y-65898013D01*
X113734099Y-65826148D01*
X113800775Y-65805271D01*
X113868155Y-65823755D01*
X113914846Y-65875734D01*
X113924606Y-65905060D01*
X113930261Y-65933489D01*
X113930264Y-65933501D01*
X113990602Y-66079172D01*
X113990609Y-66079185D01*
X114078210Y-66210288D01*
X114078213Y-66210292D01*
X114189707Y-66321786D01*
X114189711Y-66321789D01*
X114320814Y-66409390D01*
X114320827Y-66409397D01*
X114449432Y-66462666D01*
X114466503Y-66469737D01*
X114621153Y-66500499D01*
X114621156Y-66500500D01*
X114621158Y-66500500D01*
X114778844Y-66500500D01*
X114778845Y-66500499D01*
X114933497Y-66469737D01*
X115079179Y-66409394D01*
X115184434Y-66339064D01*
X115251108Y-66318188D01*
X115300774Y-66327607D01*
X115328439Y-66339066D01*
X115447753Y-66388487D01*
X115600799Y-66418930D01*
X115602403Y-66419249D01*
X115602406Y-66419250D01*
X115602408Y-66419250D01*
X115760093Y-66419250D01*
X115763340Y-66418930D01*
X115765028Y-66419250D01*
X115766184Y-66419250D01*
X115766184Y-66419469D01*
X115831987Y-66431945D01*
X115882699Y-66480008D01*
X115899500Y-66542332D01*
X115899500Y-66588695D01*
X115934103Y-66762658D01*
X115934106Y-66762667D01*
X116001983Y-66926540D01*
X116001990Y-66926553D01*
X116100535Y-67074034D01*
X116100538Y-67074038D01*
X116225961Y-67199461D01*
X116225965Y-67199464D01*
X116373446Y-67298009D01*
X116373459Y-67298016D01*
X116496363Y-67348923D01*
X116537334Y-67365894D01*
X116537336Y-67365894D01*
X116537341Y-67365896D01*
X116711304Y-67400499D01*
X116711307Y-67400500D01*
X116711309Y-67400500D01*
X116888693Y-67400500D01*
X116888694Y-67400499D01*
X116946682Y-67388964D01*
X117062658Y-67365896D01*
X117062661Y-67365894D01*
X117062666Y-67365894D01*
X117226547Y-67298013D01*
X117374035Y-67199464D01*
X117499464Y-67074035D01*
X117598013Y-66926547D01*
X117665894Y-66762666D01*
X117667314Y-66755530D01*
X117700499Y-66588695D01*
X117700500Y-66588693D01*
X117700500Y-66411306D01*
X117700499Y-66411304D01*
X117665896Y-66237341D01*
X117665893Y-66237332D01*
X117598016Y-66073459D01*
X117598009Y-66073446D01*
X117499464Y-65925965D01*
X117499461Y-65925961D01*
X117374038Y-65800538D01*
X117374034Y-65800535D01*
X117226553Y-65701990D01*
X117226540Y-65701983D01*
X117062667Y-65634106D01*
X117062658Y-65634103D01*
X116888694Y-65599500D01*
X116888691Y-65599500D01*
X116711309Y-65599500D01*
X116711304Y-65599500D01*
X116623506Y-65616964D01*
X116553914Y-65610737D01*
X116498737Y-65567873D01*
X116477698Y-65519538D01*
X116454316Y-65401990D01*
X116450987Y-65385253D01*
X116441628Y-65362658D01*
X116390647Y-65239577D01*
X116390640Y-65239564D01*
X116303039Y-65108461D01*
X116303036Y-65108457D01*
X116191542Y-64996963D01*
X116191538Y-64996960D01*
X116060435Y-64909359D01*
X116060422Y-64909352D01*
X115914751Y-64849014D01*
X115914739Y-64849011D01*
X115760095Y-64818250D01*
X115760092Y-64818250D01*
X115602408Y-64818250D01*
X115602405Y-64818250D01*
X115447760Y-64849011D01*
X115447748Y-64849014D01*
X115302077Y-64909352D01*
X115302064Y-64909359D01*
X115196818Y-64979683D01*
X115130140Y-65000561D01*
X115080475Y-64991142D01*
X114933501Y-64930264D01*
X114933489Y-64930261D01*
X114778845Y-64899500D01*
X114778842Y-64899500D01*
X114621158Y-64899500D01*
X114576171Y-64908448D01*
X114506579Y-64902219D01*
X114451403Y-64859356D01*
X114428159Y-64793466D01*
X114444228Y-64725469D01*
X114464306Y-64699143D01*
X114467050Y-64696399D01*
X114565599Y-64548911D01*
X114633480Y-64385030D01*
X114634711Y-64378844D01*
X114668085Y-64211059D01*
X114668086Y-64211057D01*
X114668086Y-64033670D01*
X114668085Y-64033668D01*
X114633482Y-63859705D01*
X114633479Y-63859696D01*
X114589148Y-63752669D01*
X114565602Y-63695823D01*
X114565595Y-63695810D01*
X114467050Y-63548329D01*
X114467047Y-63548325D01*
X114341624Y-63422902D01*
X114341620Y-63422899D01*
X114194139Y-63324354D01*
X114194126Y-63324347D01*
X114030253Y-63256470D01*
X114030244Y-63256467D01*
X113856280Y-63221864D01*
X113856277Y-63221864D01*
X113678895Y-63221864D01*
X113678892Y-63221864D01*
X113504927Y-63256467D01*
X113504919Y-63256470D01*
X113471950Y-63270126D01*
X113402481Y-63277593D01*
X113340002Y-63246317D01*
X113304351Y-63186227D01*
X113300500Y-63155564D01*
X113300500Y-63011306D01*
X113300499Y-63011304D01*
X113265896Y-62837341D01*
X113265893Y-62837332D01*
X113198016Y-62673459D01*
X113198009Y-62673446D01*
X113099464Y-62525965D01*
X113099461Y-62525961D01*
X112974038Y-62400538D01*
X112974034Y-62400535D01*
X112836024Y-62308319D01*
X112836023Y-62308318D01*
X112826554Y-62301991D01*
X112826540Y-62301983D01*
X112662667Y-62234106D01*
X112662658Y-62234103D01*
X112548038Y-62211304D01*
X118399500Y-62211304D01*
X118399500Y-62388695D01*
X118434103Y-62562658D01*
X118434106Y-62562667D01*
X118501983Y-62726540D01*
X118501990Y-62726553D01*
X118600535Y-62874034D01*
X118600538Y-62874038D01*
X118725961Y-62999461D01*
X118725965Y-62999464D01*
X118873446Y-63098009D01*
X118873459Y-63098016D01*
X118944755Y-63127547D01*
X119037334Y-63165894D01*
X119037336Y-63165894D01*
X119037341Y-63165896D01*
X119211304Y-63200499D01*
X119211307Y-63200500D01*
X119211309Y-63200500D01*
X119388693Y-63200500D01*
X119388694Y-63200499D01*
X119460446Y-63186227D01*
X119562658Y-63165896D01*
X119562661Y-63165894D01*
X119562666Y-63165894D01*
X119726547Y-63098013D01*
X119874035Y-62999464D01*
X119999464Y-62874035D01*
X120098013Y-62726547D01*
X120165894Y-62562666D01*
X120173195Y-62525965D01*
X120198646Y-62398013D01*
X120200500Y-62388691D01*
X120200500Y-62211309D01*
X120200500Y-62211306D01*
X120200499Y-62211304D01*
X120165896Y-62037341D01*
X120165893Y-62037332D01*
X120098016Y-61873459D01*
X120098009Y-61873446D01*
X119999464Y-61725965D01*
X119999461Y-61725961D01*
X119874038Y-61600538D01*
X119874035Y-61600536D01*
X119740492Y-61511304D01*
X122299500Y-61511304D01*
X122299500Y-61688695D01*
X122334103Y-61862658D01*
X122334106Y-61862667D01*
X122401983Y-62026540D01*
X122401990Y-62026553D01*
X122500535Y-62174034D01*
X122500538Y-62174038D01*
X122625961Y-62299461D01*
X122625965Y-62299464D01*
X122773446Y-62398009D01*
X122773459Y-62398016D01*
X122896363Y-62448923D01*
X122937334Y-62465894D01*
X122937336Y-62465894D01*
X122937341Y-62465896D01*
X123111304Y-62500499D01*
X123111307Y-62500500D01*
X123111309Y-62500500D01*
X123288693Y-62500500D01*
X123288694Y-62500499D01*
X123346682Y-62488964D01*
X123462658Y-62465896D01*
X123462661Y-62465894D01*
X123462666Y-62465894D01*
X123485879Y-62456279D01*
X124144475Y-62456279D01*
X124144475Y-62633670D01*
X124179078Y-62807633D01*
X124179081Y-62807642D01*
X124246958Y-62971515D01*
X124246965Y-62971528D01*
X124345510Y-63119009D01*
X124345513Y-63119013D01*
X124470936Y-63244436D01*
X124470940Y-63244439D01*
X124618421Y-63342984D01*
X124618434Y-63342991D01*
X124691992Y-63373459D01*
X124782309Y-63410869D01*
X124782311Y-63410869D01*
X124782316Y-63410871D01*
X124956279Y-63445474D01*
X124956282Y-63445475D01*
X124956284Y-63445475D01*
X125133668Y-63445475D01*
X125133669Y-63445474D01*
X125191657Y-63433939D01*
X125307633Y-63410871D01*
X125307636Y-63410869D01*
X125307641Y-63410869D01*
X125471522Y-63342988D01*
X125619010Y-63244439D01*
X125744439Y-63119010D01*
X125842988Y-62971522D01*
X125910869Y-62807641D01*
X125917263Y-62775500D01*
X125944094Y-62640609D01*
X125945475Y-62633666D01*
X125945475Y-62456284D01*
X125945475Y-62456281D01*
X125945474Y-62456279D01*
X125910871Y-62282316D01*
X125910868Y-62282307D01*
X125842991Y-62118434D01*
X125842984Y-62118421D01*
X125744439Y-61970940D01*
X125744436Y-61970936D01*
X125619013Y-61845513D01*
X125619009Y-61845510D01*
X125471528Y-61746965D01*
X125471515Y-61746958D01*
X125307642Y-61679081D01*
X125307633Y-61679078D01*
X125133669Y-61644475D01*
X125133666Y-61644475D01*
X124956284Y-61644475D01*
X124956281Y-61644475D01*
X124782316Y-61679078D01*
X124782307Y-61679081D01*
X124618434Y-61746958D01*
X124618421Y-61746965D01*
X124470940Y-61845510D01*
X124470936Y-61845513D01*
X124345513Y-61970936D01*
X124345510Y-61970940D01*
X124246965Y-62118421D01*
X124246958Y-62118434D01*
X124179081Y-62282307D01*
X124179078Y-62282316D01*
X124144475Y-62456279D01*
X123485879Y-62456279D01*
X123626547Y-62398013D01*
X123640498Y-62388691D01*
X123702759Y-62347090D01*
X123735758Y-62325039D01*
X123774035Y-62299464D01*
X123899464Y-62174035D01*
X123998013Y-62026547D01*
X124065894Y-61862666D01*
X124069307Y-61845511D01*
X124100499Y-61688695D01*
X124100500Y-61688693D01*
X124100500Y-61511306D01*
X124100499Y-61511304D01*
X124085143Y-61434106D01*
X124065894Y-61337334D01*
X124059603Y-61322146D01*
X124052136Y-61252676D01*
X124083412Y-61190198D01*
X124086436Y-61187062D01*
X124099464Y-61174035D01*
X124198013Y-61026547D01*
X124199841Y-61022135D01*
X124227898Y-60954398D01*
X124265894Y-60862666D01*
X124272856Y-60827669D01*
X124295773Y-60712454D01*
X124300500Y-60688691D01*
X124300500Y-60511309D01*
X124300500Y-60511306D01*
X124300499Y-60511304D01*
X124265896Y-60337341D01*
X124265893Y-60337332D01*
X124198016Y-60173459D01*
X124198009Y-60173446D01*
X124099464Y-60025965D01*
X124099461Y-60025961D01*
X123974038Y-59900538D01*
X123974034Y-59900535D01*
X123826553Y-59801990D01*
X123826540Y-59801983D01*
X123662667Y-59734106D01*
X123662658Y-59734103D01*
X123488694Y-59699500D01*
X123488691Y-59699500D01*
X123311309Y-59699500D01*
X123311306Y-59699500D01*
X123137341Y-59734103D01*
X123137332Y-59734106D01*
X122973459Y-59801983D01*
X122973446Y-59801990D01*
X122825965Y-59900535D01*
X122825961Y-59900538D01*
X122700538Y-60025961D01*
X122700535Y-60025965D01*
X122601990Y-60173446D01*
X122601983Y-60173459D01*
X122534106Y-60337332D01*
X122534103Y-60337341D01*
X122499500Y-60511304D01*
X122499500Y-60688695D01*
X122534103Y-60862658D01*
X122534105Y-60862663D01*
X122534106Y-60862666D01*
X122540396Y-60877852D01*
X122547865Y-60947320D01*
X122516590Y-61009799D01*
X122513519Y-61012982D01*
X122500533Y-61025968D01*
X122401990Y-61173446D01*
X122401983Y-61173459D01*
X122334106Y-61337332D01*
X122334103Y-61337341D01*
X122299500Y-61511304D01*
X119740492Y-61511304D01*
X119726553Y-61501990D01*
X119726540Y-61501983D01*
X119562667Y-61434106D01*
X119562658Y-61434103D01*
X119388694Y-61399500D01*
X119388691Y-61399500D01*
X119211309Y-61399500D01*
X119211306Y-61399500D01*
X119037341Y-61434103D01*
X119037332Y-61434106D01*
X118873459Y-61501983D01*
X118873446Y-61501990D01*
X118725965Y-61600535D01*
X118725961Y-61600538D01*
X118600538Y-61725961D01*
X118600535Y-61725965D01*
X118501990Y-61873446D01*
X118501983Y-61873459D01*
X118434106Y-62037332D01*
X118434103Y-62037341D01*
X118399500Y-62211304D01*
X112548038Y-62211304D01*
X112488694Y-62199500D01*
X112488691Y-62199500D01*
X112311309Y-62199500D01*
X112311306Y-62199500D01*
X112137341Y-62234103D01*
X112137332Y-62234106D01*
X111973459Y-62301983D01*
X111973446Y-62301990D01*
X111825965Y-62400535D01*
X111825961Y-62400538D01*
X111700538Y-62525961D01*
X111700535Y-62525965D01*
X111601990Y-62673446D01*
X111601983Y-62673459D01*
X111534106Y-62837332D01*
X111534103Y-62837341D01*
X111499500Y-63011304D01*
X108876163Y-63011304D01*
X108859395Y-62970823D01*
X108859390Y-62970814D01*
X108771789Y-62839711D01*
X108771786Y-62839707D01*
X108660292Y-62728213D01*
X108660288Y-62728210D01*
X108529185Y-62640609D01*
X108529172Y-62640602D01*
X108383501Y-62580264D01*
X108383489Y-62580261D01*
X108228845Y-62549500D01*
X108228842Y-62549500D01*
X108071158Y-62549500D01*
X108071155Y-62549500D01*
X107916510Y-62580261D01*
X107916498Y-62580264D01*
X107770827Y-62640602D01*
X107770814Y-62640609D01*
X107639711Y-62728210D01*
X107639707Y-62728213D01*
X107528213Y-62839707D01*
X107528210Y-62839711D01*
X107440609Y-62970814D01*
X107440602Y-62970827D01*
X107380264Y-63116498D01*
X107380261Y-63116510D01*
X107349500Y-63271153D01*
X98260500Y-63271153D01*
X98260500Y-42090861D01*
X98280185Y-42023822D01*
X98296814Y-42003185D01*
X98390872Y-41909127D01*
X98452193Y-41875644D01*
X98521885Y-41880628D01*
X98577818Y-41922500D01*
X98596480Y-41958489D01*
X98617709Y-42023822D01*
X98648444Y-42118414D01*
X98744951Y-42307820D01*
X98869890Y-42479786D01*
X99020213Y-42630109D01*
X99192182Y-42755050D01*
X99200946Y-42759516D01*
X99251742Y-42807491D01*
X99268536Y-42875312D01*
X99245998Y-42941447D01*
X99200946Y-42980484D01*
X99192182Y-42984949D01*
X99020213Y-43109890D01*
X98869890Y-43260213D01*
X98744951Y-43432179D01*
X98648444Y-43621585D01*
X98582753Y-43823760D01*
X98549500Y-44033713D01*
X98549500Y-44246286D01*
X98582753Y-44456239D01*
X98648444Y-44658414D01*
X98744951Y-44847820D01*
X98869890Y-45019786D01*
X99020213Y-45170109D01*
X99192182Y-45295050D01*
X99200946Y-45299516D01*
X99251742Y-45347491D01*
X99268536Y-45415312D01*
X99245998Y-45481447D01*
X99200946Y-45520484D01*
X99192182Y-45524949D01*
X99020213Y-45649890D01*
X98869890Y-45800213D01*
X98744951Y-45972179D01*
X98648444Y-46161585D01*
X98582753Y-46363760D01*
X98549500Y-46573713D01*
X98549500Y-46786286D01*
X98582753Y-46996239D01*
X98648444Y-47198414D01*
X98744951Y-47387820D01*
X98869890Y-47559786D01*
X99020213Y-47710109D01*
X99192182Y-47835050D01*
X99200946Y-47839516D01*
X99251742Y-47887491D01*
X99268536Y-47955312D01*
X99245998Y-48021447D01*
X99200946Y-48060484D01*
X99192182Y-48064949D01*
X99020213Y-48189890D01*
X98869890Y-48340213D01*
X98744951Y-48512179D01*
X98648444Y-48701585D01*
X98582753Y-48903760D01*
X98549500Y-49113713D01*
X98549500Y-49326286D01*
X98579019Y-49512666D01*
X98582754Y-49536243D01*
X98647658Y-49735997D01*
X98648444Y-49738414D01*
X98744951Y-49927820D01*
X98869890Y-50099786D01*
X99020213Y-50250109D01*
X99192182Y-50375050D01*
X99200946Y-50379516D01*
X99251742Y-50427491D01*
X99268536Y-50495312D01*
X99245998Y-50561447D01*
X99200946Y-50600484D01*
X99192182Y-50604949D01*
X99020213Y-50729890D01*
X98869890Y-50880213D01*
X98744951Y-51052179D01*
X98648444Y-51241585D01*
X98582753Y-51443760D01*
X98549500Y-51653713D01*
X98549500Y-51866286D01*
X98582753Y-52076239D01*
X98648444Y-52278414D01*
X98744951Y-52467820D01*
X98869890Y-52639786D01*
X99020213Y-52790109D01*
X99192182Y-52915050D01*
X99200946Y-52919516D01*
X99251742Y-52967491D01*
X99268536Y-53035312D01*
X99245998Y-53101447D01*
X99200946Y-53140484D01*
X99192182Y-53144949D01*
X99020213Y-53269890D01*
X98869890Y-53420213D01*
X98744951Y-53592179D01*
X98648444Y-53781585D01*
X98582753Y-53983760D01*
X98549500Y-54193713D01*
X98549500Y-54406287D01*
X98582754Y-54616243D01*
X98611699Y-54705327D01*
X98648444Y-54818414D01*
X98744951Y-55007820D01*
X98869890Y-55179786D01*
X99020213Y-55330109D01*
X99192182Y-55455050D01*
X99200946Y-55459516D01*
X99251742Y-55507491D01*
X99268536Y-55575312D01*
X99245998Y-55641447D01*
X99200946Y-55680484D01*
X99192182Y-55684949D01*
X99020213Y-55809890D01*
X98869890Y-55960213D01*
X98744951Y-56132179D01*
X98648444Y-56321585D01*
X98582753Y-56523760D01*
X98549500Y-56733713D01*
X98549500Y-56946286D01*
X98579758Y-57137332D01*
X98582754Y-57156243D01*
X98640545Y-57334106D01*
X98648444Y-57358414D01*
X98744951Y-57547820D01*
X98869890Y-57719786D01*
X99020213Y-57870109D01*
X99192179Y-57995048D01*
X99192181Y-57995049D01*
X99192184Y-57995051D01*
X99201493Y-57999794D01*
X99252290Y-58047766D01*
X99269087Y-58115587D01*
X99246552Y-58181722D01*
X99201505Y-58220760D01*
X99192446Y-58225376D01*
X99192440Y-58225380D01*
X99138282Y-58264727D01*
X99138282Y-58264728D01*
X99770591Y-58897037D01*
X99707007Y-58914075D01*
X99592993Y-58979901D01*
X99499901Y-59072993D01*
X99434075Y-59187007D01*
X99417037Y-59250591D01*
X98784728Y-58618282D01*
X98784727Y-58618282D01*
X98745380Y-58672439D01*
X98648904Y-58861782D01*
X98583242Y-59063869D01*
X98583242Y-59063872D01*
X98550000Y-59273753D01*
X98550000Y-59486246D01*
X98583242Y-59696127D01*
X98583242Y-59696130D01*
X98648904Y-59898217D01*
X98745375Y-60087550D01*
X98784728Y-60141716D01*
X99417037Y-59509408D01*
X99434075Y-59572993D01*
X99499901Y-59687007D01*
X99592993Y-59780099D01*
X99707007Y-59845925D01*
X99770590Y-59862962D01*
X99100370Y-60533181D01*
X99039047Y-60566666D01*
X99012698Y-60569500D01*
X99002134Y-60569500D01*
X99002123Y-60569501D01*
X98942516Y-60575908D01*
X98807671Y-60626202D01*
X98807664Y-60626206D01*
X98692455Y-60712452D01*
X98692452Y-60712455D01*
X98606206Y-60827664D01*
X98606202Y-60827671D01*
X98555908Y-60962517D01*
X98550825Y-61009799D01*
X98549501Y-61022123D01*
X98549500Y-61022135D01*
X98549500Y-62817870D01*
X98549501Y-62817876D01*
X98555908Y-62877483D01*
X98606202Y-63012328D01*
X98606206Y-63012335D01*
X98692452Y-63127544D01*
X98692455Y-63127547D01*
X98807664Y-63213793D01*
X98807671Y-63213797D01*
X98942517Y-63264091D01*
X98942516Y-63264091D01*
X98949444Y-63264835D01*
X99002127Y-63270500D01*
X100797872Y-63270499D01*
X100857483Y-63264091D01*
X100992331Y-63213796D01*
X101010092Y-63200500D01*
X101056446Y-63165800D01*
X101082503Y-63146293D01*
X101107546Y-63127546D01*
X101193796Y-63012331D01*
X101244091Y-62877483D01*
X101250500Y-62817873D01*
X101250499Y-61022128D01*
X101244091Y-60962517D01*
X101212512Y-60877850D01*
X101193797Y-60827671D01*
X101193793Y-60827664D01*
X101107547Y-60712455D01*
X101107544Y-60712452D01*
X100992335Y-60626206D01*
X100992328Y-60626202D01*
X100857482Y-60575908D01*
X100857483Y-60575908D01*
X100797883Y-60569501D01*
X100797881Y-60569500D01*
X100797873Y-60569500D01*
X100797865Y-60569500D01*
X100787309Y-60569500D01*
X100720270Y-60549815D01*
X100699628Y-60533181D01*
X100029408Y-59862962D01*
X100092993Y-59845925D01*
X100207007Y-59780099D01*
X100300099Y-59687007D01*
X100365925Y-59572993D01*
X100382962Y-59509409D01*
X101015270Y-60141717D01*
X101015270Y-60141716D01*
X101054622Y-60087554D01*
X101151095Y-59898217D01*
X101216757Y-59696130D01*
X101216757Y-59696127D01*
X101250000Y-59486246D01*
X101250000Y-59273753D01*
X101216757Y-59063872D01*
X101216757Y-59063869D01*
X101151095Y-58861782D01*
X101054624Y-58672449D01*
X101015270Y-58618282D01*
X101015269Y-58618282D01*
X100382962Y-59250590D01*
X100365925Y-59187007D01*
X100300099Y-59072993D01*
X100207007Y-58979901D01*
X100092993Y-58914075D01*
X100029409Y-58897037D01*
X100661716Y-58264728D01*
X100607547Y-58225373D01*
X100607547Y-58225372D01*
X100598500Y-58220763D01*
X100547706Y-58172788D01*
X100530912Y-58104966D01*
X100553451Y-58038832D01*
X100598508Y-57999793D01*
X100607816Y-57995051D01*
X100708656Y-57921787D01*
X100779786Y-57870109D01*
X100779788Y-57870106D01*
X100779792Y-57870104D01*
X100930104Y-57719792D01*
X100930106Y-57719788D01*
X100930109Y-57719786D01*
X101055048Y-57547820D01*
X101055047Y-57547820D01*
X101055051Y-57547816D01*
X101151557Y-57358412D01*
X101196155Y-57221153D01*
X107499500Y-57221153D01*
X107499500Y-57378846D01*
X107530261Y-57533489D01*
X107530264Y-57533501D01*
X107590602Y-57679172D01*
X107590609Y-57679185D01*
X107678210Y-57810288D01*
X107678213Y-57810292D01*
X107789707Y-57921786D01*
X107789711Y-57921789D01*
X107920814Y-58009390D01*
X107920827Y-58009397D01*
X108059398Y-58066794D01*
X108066503Y-58069737D01*
X108069470Y-58070327D01*
X108070880Y-58071064D01*
X108072335Y-58071506D01*
X108072251Y-58071781D01*
X108131382Y-58102710D01*
X108165958Y-58163425D01*
X108162220Y-58233195D01*
X108121355Y-58289868D01*
X108114173Y-58295047D01*
X107989711Y-58378210D01*
X107989707Y-58378213D01*
X107878213Y-58489707D01*
X107878210Y-58489711D01*
X107790609Y-58620814D01*
X107790602Y-58620827D01*
X107730264Y-58766498D01*
X107730261Y-58766510D01*
X107699500Y-58921153D01*
X107699500Y-59078846D01*
X107730261Y-59233489D01*
X107730264Y-59233501D01*
X107790602Y-59379172D01*
X107790609Y-59379185D01*
X107878210Y-59510288D01*
X107878213Y-59510292D01*
X107989707Y-59621786D01*
X107989711Y-59621789D01*
X108120814Y-59709390D01*
X108120827Y-59709397D01*
X108266498Y-59769735D01*
X108266503Y-59769737D01*
X108408635Y-59798009D01*
X108421153Y-59800499D01*
X108421156Y-59800500D01*
X108421158Y-59800500D01*
X108578844Y-59800500D01*
X108578845Y-59800499D01*
X108733497Y-59769737D01*
X108879179Y-59709394D01*
X109010289Y-59621789D01*
X109121789Y-59510289D01*
X109209394Y-59379179D01*
X109269737Y-59233497D01*
X109300500Y-59078842D01*
X109300500Y-58921158D01*
X109300499Y-58921153D01*
X109300499Y-58921150D01*
X109298540Y-58911304D01*
X112599500Y-58911304D01*
X112599500Y-59088695D01*
X112634103Y-59262658D01*
X112634106Y-59262667D01*
X112701983Y-59426540D01*
X112701990Y-59426553D01*
X112800535Y-59574034D01*
X112800538Y-59574038D01*
X112925961Y-59699461D01*
X112925965Y-59699464D01*
X113073446Y-59798009D01*
X113073459Y-59798016D01*
X113189124Y-59845925D01*
X113237334Y-59865894D01*
X113237336Y-59865894D01*
X113237341Y-59865896D01*
X113411304Y-59900499D01*
X113411307Y-59900500D01*
X113411309Y-59900500D01*
X113588693Y-59900500D01*
X113588694Y-59900499D01*
X113646682Y-59888964D01*
X113762658Y-59865896D01*
X113762661Y-59865894D01*
X113762666Y-59865894D01*
X113916953Y-59801987D01*
X113926540Y-59798016D01*
X113926540Y-59798015D01*
X113926547Y-59798013D01*
X114074035Y-59699464D01*
X114199464Y-59574035D01*
X114298013Y-59426547D01*
X114365894Y-59262666D01*
X114371696Y-59233501D01*
X114400499Y-59088695D01*
X114400500Y-59088693D01*
X114400500Y-58911306D01*
X114400499Y-58911304D01*
X114365896Y-58737341D01*
X114365893Y-58737332D01*
X114298016Y-58573459D01*
X114298014Y-58573456D01*
X114298013Y-58573453D01*
X114256486Y-58511304D01*
X118099500Y-58511304D01*
X118099500Y-58688695D01*
X118134103Y-58862658D01*
X118134106Y-58862667D01*
X118201983Y-59026540D01*
X118201990Y-59026553D01*
X118300535Y-59174034D01*
X118300538Y-59174038D01*
X118425961Y-59299461D01*
X118425965Y-59299464D01*
X118573446Y-59398009D01*
X118573459Y-59398016D01*
X118642355Y-59426553D01*
X118737334Y-59465894D01*
X118737336Y-59465894D01*
X118737341Y-59465896D01*
X118911304Y-59500499D01*
X118911307Y-59500500D01*
X118911309Y-59500500D01*
X119088693Y-59500500D01*
X119088694Y-59500499D01*
X119160350Y-59486246D01*
X119262658Y-59465896D01*
X119262661Y-59465894D01*
X119262666Y-59465894D01*
X119426547Y-59398013D01*
X119574035Y-59299464D01*
X119610841Y-59262658D01*
X119692300Y-59181200D01*
X119699461Y-59174038D01*
X119699464Y-59174035D01*
X119798013Y-59026547D01*
X119865894Y-58862666D01*
X119900500Y-58688691D01*
X119900500Y-58511309D01*
X119900500Y-58511306D01*
X119883905Y-58427882D01*
X119890132Y-58358291D01*
X119932994Y-58303113D01*
X119981331Y-58282073D01*
X120062658Y-58265896D01*
X120062661Y-58265894D01*
X120062666Y-58265894D01*
X120216953Y-58201987D01*
X120226540Y-58198016D01*
X120226540Y-58198015D01*
X120226547Y-58198013D01*
X120356315Y-58111304D01*
X120799500Y-58111304D01*
X120799500Y-58288695D01*
X120834103Y-58462658D01*
X120834106Y-58462667D01*
X120901983Y-58626540D01*
X120901990Y-58626553D01*
X121000535Y-58774034D01*
X121000538Y-58774038D01*
X121125961Y-58899461D01*
X121125965Y-58899464D01*
X121273446Y-58998009D01*
X121273459Y-58998016D01*
X121342355Y-59026553D01*
X121437334Y-59065894D01*
X121437336Y-59065894D01*
X121437341Y-59065896D01*
X121611304Y-59100499D01*
X121611307Y-59100500D01*
X121611309Y-59100500D01*
X121788693Y-59100500D01*
X121788694Y-59100499D01*
X121848058Y-59088691D01*
X121962658Y-59065896D01*
X121962661Y-59065894D01*
X121962666Y-59065894D01*
X122126547Y-58998013D01*
X122274035Y-58899464D01*
X122399464Y-58774035D01*
X122498013Y-58626547D01*
X122501437Y-58618282D01*
X122507958Y-58602535D01*
X122565894Y-58462666D01*
X122573195Y-58425965D01*
X122600499Y-58288695D01*
X122600500Y-58288693D01*
X122600500Y-58111306D01*
X122600499Y-58111304D01*
X122565896Y-57937341D01*
X122565893Y-57937332D01*
X122498016Y-57773459D01*
X122498009Y-57773446D01*
X122399464Y-57625965D01*
X122399461Y-57625961D01*
X122274038Y-57500538D01*
X122274034Y-57500535D01*
X122253046Y-57486511D01*
X122208241Y-57432898D01*
X122199534Y-57363573D01*
X122229689Y-57300546D01*
X122253046Y-57280307D01*
X122279384Y-57262708D01*
X122374035Y-57199464D01*
X122499464Y-57074035D01*
X122598013Y-56926547D01*
X122665894Y-56762666D01*
X122682694Y-56678210D01*
X122688964Y-56646682D01*
X122700500Y-56588691D01*
X122700500Y-56411309D01*
X122700500Y-56411306D01*
X122700499Y-56411304D01*
X122665896Y-56237341D01*
X122665893Y-56237332D01*
X122598016Y-56073459D01*
X122598009Y-56073446D01*
X122499464Y-55925965D01*
X122499461Y-55925961D01*
X122374038Y-55800538D01*
X122374034Y-55800535D01*
X122226553Y-55701990D01*
X122226540Y-55701983D01*
X122062667Y-55634106D01*
X122062658Y-55634103D01*
X121888694Y-55599500D01*
X121888691Y-55599500D01*
X121711309Y-55599500D01*
X121711306Y-55599500D01*
X121537341Y-55634103D01*
X121537332Y-55634106D01*
X121373459Y-55701983D01*
X121373446Y-55701990D01*
X121225965Y-55800535D01*
X121225961Y-55800538D01*
X121100538Y-55925961D01*
X121100535Y-55925965D01*
X121001990Y-56073446D01*
X121001983Y-56073459D01*
X120934106Y-56237332D01*
X120934103Y-56237341D01*
X120899500Y-56411304D01*
X120899500Y-56588695D01*
X120934103Y-56762658D01*
X120934106Y-56762667D01*
X121001983Y-56926540D01*
X121001990Y-56926553D01*
X121100535Y-57074034D01*
X121100538Y-57074038D01*
X121225964Y-57199464D01*
X121246953Y-57213488D01*
X121291758Y-57267100D01*
X121300465Y-57336425D01*
X121270311Y-57399452D01*
X121246954Y-57419691D01*
X121125967Y-57500533D01*
X121125961Y-57500538D01*
X121000538Y-57625961D01*
X121000535Y-57625965D01*
X120901990Y-57773446D01*
X120901983Y-57773459D01*
X120834106Y-57937332D01*
X120834103Y-57937341D01*
X120799500Y-58111304D01*
X120356315Y-58111304D01*
X120374035Y-58099464D01*
X120406705Y-58066794D01*
X120455964Y-58017536D01*
X120499461Y-57974038D01*
X120499464Y-57974035D01*
X120598013Y-57826547D01*
X120665894Y-57662666D01*
X120673195Y-57625965D01*
X120700499Y-57488695D01*
X120700500Y-57488693D01*
X120700500Y-57311306D01*
X120700499Y-57311304D01*
X120665896Y-57137341D01*
X120665893Y-57137332D01*
X120598016Y-56973459D01*
X120598009Y-56973446D01*
X120499464Y-56825965D01*
X120499461Y-56825961D01*
X120374038Y-56700538D01*
X120374034Y-56700535D01*
X120226553Y-56601990D01*
X120226540Y-56601983D01*
X120062667Y-56534106D01*
X120062658Y-56534103D01*
X119888694Y-56499500D01*
X119888691Y-56499500D01*
X119711309Y-56499500D01*
X119711306Y-56499500D01*
X119537341Y-56534103D01*
X119537332Y-56534106D01*
X119373459Y-56601983D01*
X119373446Y-56601990D01*
X119225965Y-56700535D01*
X119225961Y-56700538D01*
X119100538Y-56825961D01*
X119100535Y-56825965D01*
X119001990Y-56973446D01*
X119001983Y-56973459D01*
X118934106Y-57137332D01*
X118934103Y-57137341D01*
X118899500Y-57311304D01*
X118899500Y-57488695D01*
X118916094Y-57572118D01*
X118909867Y-57641709D01*
X118867004Y-57696887D01*
X118818670Y-57717926D01*
X118737338Y-57734104D01*
X118737332Y-57734106D01*
X118573459Y-57801983D01*
X118573446Y-57801990D01*
X118425965Y-57900535D01*
X118425961Y-57900538D01*
X118300538Y-58025961D01*
X118300535Y-58025965D01*
X118201990Y-58173446D01*
X118201983Y-58173459D01*
X118134106Y-58337332D01*
X118134103Y-58337341D01*
X118099500Y-58511304D01*
X114256486Y-58511304D01*
X114199464Y-58425965D01*
X114199461Y-58425961D01*
X114074038Y-58300538D01*
X114074034Y-58300535D01*
X113926553Y-58201990D01*
X113926540Y-58201983D01*
X113762667Y-58134106D01*
X113762658Y-58134103D01*
X113588694Y-58099500D01*
X113588691Y-58099500D01*
X113411309Y-58099500D01*
X113411306Y-58099500D01*
X113237341Y-58134103D01*
X113237332Y-58134106D01*
X113073459Y-58201983D01*
X113073446Y-58201990D01*
X112925965Y-58300535D01*
X112925961Y-58300538D01*
X112800538Y-58425961D01*
X112800535Y-58425965D01*
X112701990Y-58573446D01*
X112701983Y-58573459D01*
X112634106Y-58737332D01*
X112634103Y-58737341D01*
X112599500Y-58911304D01*
X109298540Y-58911304D01*
X109282008Y-58828195D01*
X109269737Y-58766503D01*
X109237508Y-58688695D01*
X109209397Y-58620827D01*
X109209390Y-58620814D01*
X109121789Y-58489711D01*
X109121786Y-58489707D01*
X109010292Y-58378213D01*
X109010288Y-58378210D01*
X108879185Y-58290609D01*
X108879172Y-58290602D01*
X108733501Y-58230264D01*
X108733490Y-58230261D01*
X108730519Y-58229670D01*
X108729107Y-58228931D01*
X108727665Y-58228494D01*
X108727748Y-58228220D01*
X108668610Y-58197281D01*
X108634039Y-58136564D01*
X108637783Y-58066794D01*
X108678652Y-58010125D01*
X108685809Y-58004963D01*
X108810289Y-57921789D01*
X108921789Y-57810289D01*
X109009394Y-57679179D01*
X109069737Y-57533497D01*
X109100500Y-57378842D01*
X109100500Y-57221158D01*
X109100500Y-57221155D01*
X109100499Y-57221153D01*
X109091666Y-57176747D01*
X109069737Y-57066503D01*
X109069735Y-57066498D01*
X109009397Y-56920827D01*
X109009390Y-56920814D01*
X108921789Y-56789711D01*
X108921786Y-56789707D01*
X108810292Y-56678213D01*
X108810288Y-56678210D01*
X108679185Y-56590609D01*
X108679172Y-56590602D01*
X108533501Y-56530264D01*
X108533489Y-56530261D01*
X108378845Y-56499500D01*
X108378842Y-56499500D01*
X108221158Y-56499500D01*
X108221155Y-56499500D01*
X108066510Y-56530261D01*
X108066498Y-56530264D01*
X107920827Y-56590602D01*
X107920814Y-56590609D01*
X107789711Y-56678210D01*
X107789707Y-56678213D01*
X107678213Y-56789707D01*
X107678210Y-56789711D01*
X107590609Y-56920814D01*
X107590602Y-56920827D01*
X107530264Y-57066498D01*
X107530261Y-57066510D01*
X107499500Y-57221153D01*
X101196155Y-57221153D01*
X101217246Y-57156243D01*
X101250500Y-56946287D01*
X101250500Y-56733713D01*
X101217246Y-56523757D01*
X101151557Y-56321588D01*
X101055051Y-56132184D01*
X101055049Y-56132181D01*
X101055048Y-56132179D01*
X100930109Y-55960213D01*
X100779786Y-55809890D01*
X100607820Y-55684951D01*
X100607115Y-55684591D01*
X100599054Y-55680485D01*
X100548259Y-55632512D01*
X100531463Y-55564692D01*
X100553999Y-55498556D01*
X100599054Y-55459515D01*
X100607816Y-55455051D01*
X100673489Y-55407337D01*
X100779786Y-55330109D01*
X100779788Y-55330106D01*
X100779792Y-55330104D01*
X100930104Y-55179792D01*
X100930106Y-55179788D01*
X100930109Y-55179786D01*
X101055048Y-55007820D01*
X101055047Y-55007820D01*
X101055051Y-55007816D01*
X101151557Y-54818412D01*
X101217246Y-54616243D01*
X101250500Y-54406287D01*
X101250500Y-54311304D01*
X111099500Y-54311304D01*
X111099500Y-54488695D01*
X111134103Y-54662658D01*
X111134106Y-54662667D01*
X111201983Y-54826540D01*
X111201990Y-54826553D01*
X111300535Y-54974034D01*
X111300538Y-54974038D01*
X111425961Y-55099461D01*
X111425965Y-55099464D01*
X111573453Y-55198013D01*
X111584667Y-55202658D01*
X111639070Y-55246496D01*
X111661137Y-55312789D01*
X111651778Y-55364670D01*
X111634105Y-55407337D01*
X111634103Y-55407341D01*
X111599500Y-55581304D01*
X111599500Y-55758695D01*
X111634103Y-55932658D01*
X111634106Y-55932667D01*
X111701983Y-56096540D01*
X111701990Y-56096553D01*
X111800535Y-56244034D01*
X111800538Y-56244038D01*
X111925961Y-56369461D01*
X111925965Y-56369464D01*
X112073446Y-56468009D01*
X112073459Y-56468016D01*
X112149470Y-56499500D01*
X112237334Y-56535894D01*
X112237336Y-56535894D01*
X112237341Y-56535896D01*
X112411304Y-56570499D01*
X112411307Y-56570500D01*
X112411309Y-56570500D01*
X112588693Y-56570500D01*
X112588694Y-56570499D01*
X112646682Y-56558964D01*
X112762658Y-56535896D01*
X112762661Y-56535894D01*
X112762666Y-56535894D01*
X112926547Y-56468013D01*
X113074035Y-56369464D01*
X113199464Y-56244035D01*
X113298013Y-56096547D01*
X113365894Y-55932666D01*
X113400500Y-55758691D01*
X113400500Y-55581309D01*
X113400500Y-55581306D01*
X113400499Y-55581304D01*
X113365896Y-55407341D01*
X113365893Y-55407332D01*
X113298016Y-55243459D01*
X113298009Y-55243446D01*
X113199464Y-55095965D01*
X113199461Y-55095961D01*
X113074038Y-54970538D01*
X113074034Y-54970535D01*
X112926553Y-54871990D01*
X112926544Y-54871985D01*
X112915331Y-54867341D01*
X112860928Y-54823500D01*
X112838863Y-54757206D01*
X112848223Y-54705327D01*
X112865894Y-54662666D01*
X112900500Y-54488691D01*
X112900500Y-54311309D01*
X112900500Y-54311306D01*
X112884209Y-54229409D01*
X112884209Y-54229408D01*
X112880608Y-54211304D01*
X124099500Y-54211304D01*
X124099500Y-54388695D01*
X124134103Y-54562658D01*
X124134106Y-54562667D01*
X124201983Y-54726540D01*
X124201990Y-54726553D01*
X124300535Y-54874034D01*
X124300538Y-54874038D01*
X124425961Y-54999461D01*
X124425965Y-54999464D01*
X124573446Y-55098009D01*
X124573459Y-55098016D01*
X124696363Y-55148923D01*
X124737334Y-55165894D01*
X124737336Y-55165894D01*
X124737341Y-55165896D01*
X124911304Y-55200499D01*
X124911307Y-55200500D01*
X124911309Y-55200500D01*
X125088693Y-55200500D01*
X125088694Y-55200499D01*
X125146682Y-55188964D01*
X125262658Y-55165896D01*
X125262661Y-55165894D01*
X125262666Y-55165894D01*
X125426547Y-55098013D01*
X125574035Y-54999464D01*
X125699464Y-54874035D01*
X125798013Y-54726547D01*
X125865894Y-54562666D01*
X125900500Y-54388691D01*
X125900500Y-54211309D01*
X125900500Y-54211306D01*
X125900499Y-54211304D01*
X125865896Y-54037341D01*
X125865893Y-54037332D01*
X125798016Y-53873459D01*
X125798009Y-53873446D01*
X125699464Y-53725965D01*
X125699461Y-53725961D01*
X125574038Y-53600538D01*
X125574034Y-53600535D01*
X125426553Y-53501990D01*
X125426540Y-53501983D01*
X125262667Y-53434106D01*
X125262658Y-53434103D01*
X125088694Y-53399500D01*
X125088691Y-53399500D01*
X124911309Y-53399500D01*
X124911306Y-53399500D01*
X124737341Y-53434103D01*
X124737332Y-53434106D01*
X124573459Y-53501983D01*
X124573446Y-53501990D01*
X124425965Y-53600535D01*
X124425961Y-53600538D01*
X124300538Y-53725961D01*
X124300535Y-53725965D01*
X124201990Y-53873446D01*
X124201983Y-53873459D01*
X124134106Y-54037332D01*
X124134103Y-54037341D01*
X124099500Y-54211304D01*
X112880608Y-54211304D01*
X112865896Y-54137341D01*
X112865893Y-54137332D01*
X112798016Y-53973459D01*
X112798009Y-53973446D01*
X112699464Y-53825965D01*
X112699461Y-53825961D01*
X112574038Y-53700538D01*
X112574034Y-53700535D01*
X112426553Y-53601990D01*
X112426540Y-53601983D01*
X112262667Y-53534106D01*
X112262658Y-53534103D01*
X112088694Y-53499500D01*
X112088691Y-53499500D01*
X111911309Y-53499500D01*
X111911306Y-53499500D01*
X111737341Y-53534103D01*
X111737332Y-53534106D01*
X111573459Y-53601983D01*
X111573446Y-53601990D01*
X111425965Y-53700535D01*
X111425961Y-53700538D01*
X111300538Y-53825961D01*
X111300535Y-53825965D01*
X111201990Y-53973446D01*
X111201983Y-53973459D01*
X111134106Y-54137332D01*
X111134103Y-54137341D01*
X111099500Y-54311304D01*
X101250500Y-54311304D01*
X101250500Y-54193713D01*
X101217246Y-53983757D01*
X101151557Y-53781588D01*
X101055051Y-53592184D01*
X101055049Y-53592181D01*
X101055048Y-53592179D01*
X100930109Y-53420213D01*
X100779786Y-53269890D01*
X100607820Y-53144951D01*
X100607115Y-53144591D01*
X100599054Y-53140485D01*
X100548259Y-53092512D01*
X100531463Y-53024692D01*
X100553999Y-52958556D01*
X100599054Y-52919515D01*
X100607816Y-52915051D01*
X100629789Y-52899086D01*
X100779786Y-52790109D01*
X100779788Y-52790106D01*
X100779792Y-52790104D01*
X100930104Y-52639792D01*
X100930106Y-52639788D01*
X100930109Y-52639786D01*
X101055048Y-52467820D01*
X101055047Y-52467820D01*
X101055051Y-52467816D01*
X101151557Y-52278412D01*
X101217246Y-52076243D01*
X101250500Y-51866287D01*
X101250500Y-51653713D01*
X101217246Y-51443757D01*
X101151557Y-51241588D01*
X101055051Y-51052184D01*
X101055049Y-51052181D01*
X101055048Y-51052179D01*
X100930109Y-50880213D01*
X100779790Y-50729894D01*
X100779785Y-50729890D01*
X100613721Y-50609238D01*
X100613712Y-50609233D01*
X100607816Y-50604949D01*
X100595978Y-50598917D01*
X100593000Y-50597185D01*
X100571247Y-50574223D01*
X100548259Y-50552512D01*
X100547401Y-50549051D01*
X100544949Y-50546462D01*
X100539063Y-50515381D01*
X100538053Y-50511304D01*
X107099500Y-50511304D01*
X107099500Y-50688695D01*
X107134103Y-50862658D01*
X107134106Y-50862667D01*
X107201983Y-51026540D01*
X107201990Y-51026553D01*
X107300535Y-51174034D01*
X107300538Y-51174038D01*
X107425961Y-51299461D01*
X107425965Y-51299464D01*
X107480813Y-51336113D01*
X107525618Y-51389726D01*
X107534325Y-51459051D01*
X107504170Y-51522078D01*
X107499604Y-51526896D01*
X107400535Y-51625965D01*
X107301990Y-51773446D01*
X107301983Y-51773459D01*
X107234106Y-51937332D01*
X107234103Y-51937341D01*
X107199500Y-52111304D01*
X107199500Y-52288695D01*
X107234103Y-52462658D01*
X107234106Y-52462667D01*
X107301983Y-52626540D01*
X107301990Y-52626553D01*
X107400535Y-52774034D01*
X107400538Y-52774038D01*
X107525961Y-52899461D01*
X107525965Y-52899464D01*
X107673446Y-52998009D01*
X107673459Y-52998016D01*
X107795203Y-53048443D01*
X107837334Y-53065894D01*
X107837336Y-53065894D01*
X107837341Y-53065896D01*
X108011304Y-53100499D01*
X108011307Y-53100500D01*
X108011309Y-53100500D01*
X108188693Y-53100500D01*
X108188694Y-53100499D01*
X108246682Y-53088964D01*
X108362658Y-53065896D01*
X108362661Y-53065894D01*
X108362666Y-53065894D01*
X108526547Y-52998013D01*
X108674035Y-52899464D01*
X108799464Y-52774035D01*
X108898013Y-52626547D01*
X108965894Y-52462666D01*
X109000500Y-52288691D01*
X109000500Y-52111309D01*
X109000500Y-52111306D01*
X109000499Y-52111304D01*
X108965896Y-51937341D01*
X108965893Y-51937332D01*
X108898016Y-51773459D01*
X108898009Y-51773446D01*
X108799464Y-51625965D01*
X108799461Y-51625961D01*
X108674038Y-51500538D01*
X108619185Y-51463886D01*
X108574381Y-51410273D01*
X108565674Y-51340948D01*
X108595829Y-51277921D01*
X108600377Y-51273121D01*
X108699464Y-51174035D01*
X108798013Y-51026547D01*
X108865894Y-50862666D01*
X108900500Y-50688691D01*
X108900500Y-50511309D01*
X108900500Y-50511306D01*
X108900499Y-50511304D01*
X108865896Y-50337341D01*
X108865893Y-50337332D01*
X108798016Y-50173459D01*
X108798009Y-50173446D01*
X108699464Y-50025965D01*
X108699461Y-50025961D01*
X108574038Y-49900538D01*
X108574034Y-49900535D01*
X108545793Y-49881665D01*
X108500988Y-49828053D01*
X108492281Y-49758728D01*
X108522435Y-49695701D01*
X108567226Y-49664005D01*
X108726547Y-49598013D01*
X108874035Y-49499464D01*
X108999464Y-49374035D01*
X109098013Y-49226547D01*
X109125037Y-49161304D01*
X120749500Y-49161304D01*
X120749500Y-49338695D01*
X120784103Y-49512658D01*
X120784106Y-49512667D01*
X120851983Y-49676540D01*
X120851990Y-49676553D01*
X120950535Y-49824034D01*
X120950538Y-49824038D01*
X121075961Y-49949461D01*
X121075965Y-49949464D01*
X121223446Y-50048009D01*
X121223459Y-50048016D01*
X121346363Y-50098923D01*
X121387334Y-50115894D01*
X121387336Y-50115894D01*
X121387341Y-50115896D01*
X121561304Y-50150499D01*
X121561307Y-50150500D01*
X121561309Y-50150500D01*
X121738693Y-50150500D01*
X121738694Y-50150499D01*
X121796682Y-50138964D01*
X121912658Y-50115896D01*
X121912661Y-50115894D01*
X121912666Y-50115894D01*
X122076547Y-50048013D01*
X122224035Y-49949464D01*
X122349464Y-49824035D01*
X122448013Y-49676547D01*
X122515894Y-49512666D01*
X122518521Y-49499462D01*
X122550499Y-49338695D01*
X122550500Y-49338693D01*
X122550500Y-49161306D01*
X122550499Y-49161304D01*
X122515896Y-48987341D01*
X122515893Y-48987332D01*
X122448016Y-48823459D01*
X122448009Y-48823446D01*
X122349464Y-48675965D01*
X122349461Y-48675961D01*
X122224038Y-48550538D01*
X122224034Y-48550535D01*
X122076553Y-48451990D01*
X122076540Y-48451983D01*
X121912667Y-48384106D01*
X121912658Y-48384103D01*
X121738694Y-48349500D01*
X121738691Y-48349500D01*
X121561309Y-48349500D01*
X121561306Y-48349500D01*
X121387341Y-48384103D01*
X121387332Y-48384106D01*
X121223459Y-48451983D01*
X121223446Y-48451990D01*
X121075965Y-48550535D01*
X121075961Y-48550538D01*
X120950538Y-48675961D01*
X120950535Y-48675965D01*
X120851990Y-48823446D01*
X120851983Y-48823459D01*
X120784106Y-48987332D01*
X120784103Y-48987341D01*
X120749500Y-49161304D01*
X109125037Y-49161304D01*
X109165894Y-49062666D01*
X109200500Y-48888691D01*
X109200500Y-48711309D01*
X109200500Y-48711306D01*
X109200499Y-48711304D01*
X109165896Y-48537341D01*
X109165893Y-48537332D01*
X109098016Y-48373459D01*
X109098009Y-48373446D01*
X108999464Y-48225965D01*
X108999461Y-48225961D01*
X108874038Y-48100538D01*
X108874034Y-48100535D01*
X108765956Y-48028319D01*
X108726552Y-48001990D01*
X108726540Y-48001983D01*
X108562667Y-47934106D01*
X108562658Y-47934103D01*
X108548586Y-47931304D01*
X124499500Y-47931304D01*
X124499500Y-48108695D01*
X124534103Y-48282658D01*
X124534106Y-48282667D01*
X124601983Y-48446540D01*
X124601990Y-48446553D01*
X124700535Y-48594034D01*
X124700538Y-48594038D01*
X124825961Y-48719461D01*
X124825965Y-48719464D01*
X124973446Y-48818009D01*
X124973459Y-48818016D01*
X125096363Y-48868923D01*
X125137334Y-48885894D01*
X125137336Y-48885894D01*
X125137341Y-48885896D01*
X125311304Y-48920499D01*
X125311307Y-48920500D01*
X125311309Y-48920500D01*
X125488693Y-48920500D01*
X125488694Y-48920499D01*
X125546682Y-48908964D01*
X125662658Y-48885896D01*
X125662661Y-48885894D01*
X125662666Y-48885894D01*
X125813414Y-48823453D01*
X125826540Y-48818016D01*
X125826540Y-48818015D01*
X125826547Y-48818013D01*
X125974035Y-48719464D01*
X126099464Y-48594035D01*
X126198013Y-48446547D01*
X126265894Y-48282666D01*
X126277174Y-48225961D01*
X126300499Y-48108695D01*
X126300500Y-48108693D01*
X126300500Y-47931306D01*
X126300499Y-47931304D01*
X126265896Y-47757341D01*
X126265893Y-47757332D01*
X126198016Y-47593459D01*
X126198009Y-47593446D01*
X126099464Y-47445965D01*
X126099461Y-47445961D01*
X125974038Y-47320538D01*
X125974034Y-47320535D01*
X125826553Y-47221990D01*
X125826540Y-47221983D01*
X125662667Y-47154106D01*
X125662658Y-47154103D01*
X125488694Y-47119500D01*
X125488691Y-47119500D01*
X125311309Y-47119500D01*
X125311306Y-47119500D01*
X125137341Y-47154103D01*
X125137332Y-47154106D01*
X124973459Y-47221983D01*
X124973446Y-47221990D01*
X124825965Y-47320535D01*
X124825961Y-47320538D01*
X124700538Y-47445961D01*
X124700535Y-47445965D01*
X124601990Y-47593446D01*
X124601983Y-47593459D01*
X124534106Y-47757332D01*
X124534103Y-47757341D01*
X124499500Y-47931304D01*
X108548586Y-47931304D01*
X108388694Y-47899500D01*
X108388691Y-47899500D01*
X108211309Y-47899500D01*
X108211306Y-47899500D01*
X108037341Y-47934103D01*
X108037332Y-47934106D01*
X107873459Y-48001983D01*
X107873446Y-48001990D01*
X107725965Y-48100535D01*
X107725961Y-48100538D01*
X107600538Y-48225961D01*
X107600535Y-48225965D01*
X107501990Y-48373446D01*
X107501983Y-48373459D01*
X107434106Y-48537332D01*
X107434103Y-48537341D01*
X107399500Y-48711304D01*
X107399500Y-48888695D01*
X107434103Y-49062658D01*
X107434106Y-49062667D01*
X107501983Y-49226540D01*
X107501990Y-49226553D01*
X107600535Y-49374034D01*
X107600538Y-49374038D01*
X107725962Y-49499462D01*
X107725965Y-49499464D01*
X107754205Y-49518334D01*
X107799010Y-49571945D01*
X107807718Y-49641270D01*
X107777564Y-49704298D01*
X107732767Y-49735997D01*
X107573459Y-49801983D01*
X107573446Y-49801990D01*
X107425965Y-49900535D01*
X107425961Y-49900538D01*
X107300538Y-50025961D01*
X107300535Y-50025965D01*
X107201990Y-50173446D01*
X107201983Y-50173459D01*
X107134106Y-50337332D01*
X107134103Y-50337341D01*
X107099500Y-50511304D01*
X100538053Y-50511304D01*
X100531463Y-50484692D01*
X100532612Y-50481317D01*
X100531949Y-50477812D01*
X100543800Y-50448485D01*
X100553999Y-50418556D01*
X100556917Y-50416026D01*
X100558128Y-50413032D01*
X100570346Y-50404391D01*
X100599054Y-50379515D01*
X100607816Y-50375051D01*
X100659720Y-50337341D01*
X100779786Y-50250109D01*
X100779788Y-50250106D01*
X100779792Y-50250104D01*
X100930104Y-50099792D01*
X100930106Y-50099788D01*
X100930109Y-50099786D01*
X101055048Y-49927820D01*
X101055047Y-49927820D01*
X101055051Y-49927816D01*
X101151557Y-49738412D01*
X101217246Y-49536243D01*
X101250500Y-49326287D01*
X101250500Y-49113713D01*
X101217246Y-48903757D01*
X101151557Y-48701588D01*
X101055051Y-48512184D01*
X101055049Y-48512181D01*
X101055048Y-48512179D01*
X100930109Y-48340213D01*
X100779786Y-48189890D01*
X100607820Y-48064951D01*
X100607115Y-48064591D01*
X100599054Y-48060485D01*
X100548259Y-48012512D01*
X100531463Y-47944692D01*
X100553999Y-47878556D01*
X100599054Y-47839515D01*
X100607816Y-47835051D01*
X100629789Y-47819086D01*
X100779786Y-47710109D01*
X100779788Y-47710106D01*
X100779792Y-47710104D01*
X100930104Y-47559792D01*
X100930106Y-47559788D01*
X100930109Y-47559786D01*
X101055048Y-47387820D01*
X101055047Y-47387820D01*
X101055051Y-47387816D01*
X101151557Y-47198412D01*
X101217246Y-46996243D01*
X101250500Y-46786287D01*
X101250500Y-46573713D01*
X101217246Y-46363757D01*
X101151557Y-46161588D01*
X101055051Y-45972184D01*
X101055049Y-45972181D01*
X101055048Y-45972179D01*
X100930109Y-45800213D01*
X100779792Y-45649896D01*
X100635271Y-45544896D01*
X100635269Y-45544895D01*
X100607816Y-45524949D01*
X100593194Y-45517498D01*
X100587687Y-45513913D01*
X100569069Y-45492166D01*
X100548259Y-45472512D01*
X100546637Y-45465962D01*
X100542249Y-45460837D01*
X100540592Y-45448804D01*
X101737000Y-45448804D01*
X101737000Y-45626195D01*
X101771603Y-45800158D01*
X101771606Y-45800167D01*
X101839483Y-45964040D01*
X101839490Y-45964053D01*
X101938035Y-46111534D01*
X101938038Y-46111538D01*
X102063461Y-46236961D01*
X102063465Y-46236964D01*
X102210946Y-46335509D01*
X102210959Y-46335516D01*
X102333863Y-46386423D01*
X102374834Y-46403394D01*
X102374836Y-46403394D01*
X102374841Y-46403396D01*
X102548804Y-46437999D01*
X102548807Y-46438000D01*
X102548809Y-46438000D01*
X102726193Y-46438000D01*
X102726194Y-46437999D01*
X102784182Y-46426464D01*
X102900158Y-46403396D01*
X102900161Y-46403394D01*
X102900166Y-46403394D01*
X103064047Y-46335513D01*
X103211535Y-46236964D01*
X103336964Y-46111535D01*
X103435513Y-45964047D01*
X103503394Y-45800166D01*
X103503535Y-45799461D01*
X103537999Y-45626195D01*
X103538000Y-45626193D01*
X103538000Y-45448806D01*
X103537999Y-45448804D01*
X103503396Y-45274841D01*
X103503393Y-45274832D01*
X103435516Y-45110959D01*
X103435512Y-45110952D01*
X103410894Y-45074109D01*
X103410893Y-45074107D01*
X103368930Y-45011306D01*
X103368929Y-45011304D01*
X106699500Y-45011304D01*
X106699500Y-45188695D01*
X106734103Y-45362658D01*
X106734106Y-45362667D01*
X106801983Y-45526540D01*
X106801990Y-45526553D01*
X106900535Y-45674034D01*
X106900538Y-45674038D01*
X107025961Y-45799461D01*
X107025965Y-45799464D01*
X107173446Y-45898009D01*
X107173459Y-45898016D01*
X107296363Y-45948923D01*
X107337334Y-45965894D01*
X107337336Y-45965894D01*
X107337341Y-45965896D01*
X107511304Y-46000499D01*
X107511307Y-46000500D01*
X107511309Y-46000500D01*
X107688693Y-46000500D01*
X107688694Y-46000499D01*
X107746682Y-45988964D01*
X107862658Y-45965896D01*
X107862661Y-45965894D01*
X107862666Y-45965894D01*
X108026547Y-45898013D01*
X108174035Y-45799464D01*
X108299464Y-45674035D01*
X108398013Y-45526547D01*
X108465894Y-45362666D01*
X108474523Y-45319288D01*
X108500499Y-45188695D01*
X108500500Y-45188693D01*
X108500500Y-45011306D01*
X108500499Y-45011304D01*
X108465896Y-44837341D01*
X108465893Y-44837332D01*
X108398016Y-44673459D01*
X108398009Y-44673446D01*
X108299464Y-44525965D01*
X108299461Y-44525961D01*
X108174038Y-44400538D01*
X108174034Y-44400535D01*
X108026553Y-44301990D01*
X108026540Y-44301983D01*
X107862667Y-44234106D01*
X107862658Y-44234103D01*
X107688694Y-44199500D01*
X107688691Y-44199500D01*
X107511309Y-44199500D01*
X107511306Y-44199500D01*
X107337341Y-44234103D01*
X107337332Y-44234106D01*
X107173459Y-44301983D01*
X107173446Y-44301990D01*
X107025965Y-44400535D01*
X107025961Y-44400538D01*
X106900538Y-44525961D01*
X106900535Y-44525965D01*
X106801990Y-44673446D01*
X106801983Y-44673459D01*
X106734106Y-44837332D01*
X106734103Y-44837341D01*
X106699500Y-45011304D01*
X103368929Y-45011304D01*
X103336964Y-44963465D01*
X103336961Y-44963461D01*
X103211538Y-44838038D01*
X103211534Y-44838035D01*
X103064053Y-44739490D01*
X103064040Y-44739483D01*
X102900167Y-44671606D01*
X102900158Y-44671603D01*
X102726194Y-44637000D01*
X102726191Y-44637000D01*
X102548809Y-44637000D01*
X102548806Y-44637000D01*
X102374841Y-44671603D01*
X102374832Y-44671606D01*
X102210959Y-44739483D01*
X102210946Y-44739490D01*
X102063465Y-44838035D01*
X102063461Y-44838038D01*
X101938038Y-44963461D01*
X101938035Y-44963465D01*
X101839490Y-45110946D01*
X101839483Y-45110959D01*
X101771606Y-45274832D01*
X101771603Y-45274841D01*
X101737000Y-45448804D01*
X100540592Y-45448804D01*
X100538344Y-45432478D01*
X100531463Y-45404692D01*
X100533639Y-45398304D01*
X100532719Y-45391620D01*
X100544765Y-45365653D01*
X100553999Y-45338556D01*
X100559580Y-45333719D01*
X100562123Y-45328239D01*
X100576235Y-45319288D01*
X100599054Y-45299515D01*
X100607816Y-45295051D01*
X100754204Y-45188695D01*
X100779786Y-45170109D01*
X100779788Y-45170106D01*
X100779792Y-45170104D01*
X100930104Y-45019792D01*
X100930106Y-45019788D01*
X100930109Y-45019786D01*
X101055048Y-44847820D01*
X101055047Y-44847820D01*
X101055051Y-44847816D01*
X101151557Y-44658412D01*
X101217246Y-44456243D01*
X101250500Y-44246287D01*
X101250500Y-44033713D01*
X101217246Y-43823757D01*
X101151557Y-43621588D01*
X101055051Y-43432184D01*
X101055049Y-43432181D01*
X101055048Y-43432179D01*
X100930109Y-43260213D01*
X100779786Y-43109890D01*
X100607820Y-42984951D01*
X100607115Y-42984591D01*
X100599054Y-42980485D01*
X100548259Y-42932512D01*
X100531463Y-42864692D01*
X100553999Y-42798556D01*
X100599054Y-42759515D01*
X100607816Y-42755051D01*
X100629789Y-42739086D01*
X100779786Y-42630109D01*
X100779788Y-42630106D01*
X100779792Y-42630104D01*
X100930104Y-42479792D01*
X100930106Y-42479788D01*
X100930109Y-42479786D01*
X101055048Y-42307820D01*
X101055047Y-42307820D01*
X101055051Y-42307816D01*
X101151557Y-42118412D01*
X101217246Y-41916243D01*
X101250500Y-41706287D01*
X101250500Y-41493713D01*
X101217246Y-41283757D01*
X101210280Y-41262317D01*
X101208285Y-41192476D01*
X101244366Y-41132643D01*
X101307068Y-41101816D01*
X101328211Y-41100000D01*
X105676000Y-41100000D01*
X105743039Y-41119685D01*
G37*
%TD.AperFunction*%
%TD*%
M02*
